<mxfile host="Electron" modified="2023-05-12T06:12:15.026Z" agent="Mozilla/5.0 (Windows NT 10.0; Win64; x64) AppleWebKit/537.36 (KHTML, like Gecko) draw.io/21.2.8 Chrome/112.0.5615.165 Electron/24.2.0 Safari/537.36" etag="7PcMfmVXKupnw-BVs0hp" version="21.2.8" type="device" pages="6">
  <diagram id="3GZIQDmOxW1CZ42WleLM" name="接口设计">
    <mxGraphModel dx="875" dy="524" grid="1" gridSize="10" guides="1" tooltips="1" connect="1" arrows="1" fold="1" page="1" pageScale="1" pageWidth="827" pageHeight="1169" math="0" shadow="0">
      <root>
        <mxCell id="0" />
        <mxCell id="1" parent="0" />
        <mxCell id="SpDP-0PLcQuO3Ik-ZMjS-1" value="&lt;p style=&quot;margin:0px;margin-top:4px;text-align:center;&quot;&gt;&lt;i&gt;&amp;lt;&amp;lt;Interface&amp;gt;&amp;gt;&lt;/i&gt;&lt;br&gt;&lt;b&gt;Translate&lt;/b&gt;&lt;/p&gt;&lt;hr size=&quot;1&quot;&gt;&lt;p style=&quot;margin:0px;margin-left:4px;&quot;&gt;&lt;span style=&quot;background-color: initial;&quot;&gt;ManualTranslate(void): String&lt;/span&gt;&lt;br&gt;&lt;/p&gt;&lt;p style=&quot;margin:0px;margin-left:4px;&quot;&gt;ComputerAssistedTranslate(void): String&lt;/p&gt;&lt;p style=&quot;margin:0px;margin-left:4px;&quot;&gt;MachineTranslate(void): String&lt;/p&gt;&lt;p style=&quot;margin:0px;margin-left:4px;&quot;&gt;&lt;br&gt;&lt;/p&gt;" style="verticalAlign=top;align=left;overflow=fill;fontSize=12;fontFamily=Helvetica;html=1;whiteSpace=wrap;" vertex="1" parent="1">
          <mxGeometry x="827" y="680" width="230" height="140" as="geometry" />
        </mxCell>
        <mxCell id="SpDP-0PLcQuO3Ik-ZMjS-2" value="&lt;p style=&quot;margin:0px;margin-top:4px;text-align:center;&quot;&gt;&lt;i&gt;&amp;lt;&amp;lt;Interface&amp;gt;&amp;gt;&lt;/i&gt;&lt;br&gt;&lt;b&gt;ParagraphManage&lt;/b&gt;&lt;/p&gt;&lt;hr size=&quot;1&quot;&gt;&lt;p style=&quot;margin:0px;margin-left:4px;&quot;&gt;&lt;span style=&quot;background-color: initial;&quot;&gt;DivideParagraph(String): Sentence[]&lt;/span&gt;&lt;br&gt;&lt;/p&gt;&lt;p style=&quot;margin:0px;margin-left:4px;&quot;&gt;&lt;span style=&quot;background-color: initial;&quot;&gt;MergeParagraph(void): String&lt;/span&gt;&lt;/p&gt;" style="verticalAlign=top;align=left;overflow=fill;fontSize=12;fontFamily=Helvetica;html=1;whiteSpace=wrap;" vertex="1" parent="1">
          <mxGeometry x="1097" y="680" width="210" height="140" as="geometry" />
        </mxCell>
        <mxCell id="SpDP-0PLcQuO3Ik-ZMjS-3" value="&lt;p style=&quot;margin:0px;margin-top:4px;text-align:center;&quot;&gt;&lt;i&gt;&amp;lt;&amp;lt;Interface&amp;gt;&amp;gt;&lt;/i&gt;&lt;br&gt;&lt;b&gt;MemoryLibraryAttribute&lt;/b&gt;&lt;/p&gt;&lt;hr size=&quot;1&quot;&gt;&lt;p style=&quot;margin:0px;margin-left:4px;&quot;&gt;&lt;span style=&quot;background-color: initial;&quot;&gt;RemoveItem(TranslationItem): void&lt;/span&gt;&lt;br&gt;&lt;/p&gt;&lt;p style=&quot;margin:0px;margin-left:4px;&quot;&gt;AddItem(TranslationIten): void&lt;/p&gt;&lt;p style=&quot;margin:0px;margin-left:4px;&quot;&gt;EditItem(TranslationItem): void&lt;/p&gt;&lt;p style=&quot;border-color: var(--border-color); margin: 0px 0px 0px 4px;&quot;&gt;SerchItemByOrigin(MemoryLibrary,String): TranslationItem[]&lt;/p&gt;&lt;p style=&quot;border-color: var(--border-color); margin: 0px 0px 0px 4px;&quot;&gt;SerchItemByTranslation(MemoryLibrary,String): TranslationItem[]&lt;/p&gt;&lt;p style=&quot;border-color: var(--border-color); margin: 0px 0px 0px 4px;&quot;&gt;MatchItem(MemoryLibrary,Sentence): String&lt;/p&gt;" style="verticalAlign=top;align=left;overflow=fill;fontSize=12;fontFamily=Helvetica;html=1;whiteSpace=wrap;" vertex="1" parent="1">
          <mxGeometry x="407" y="680" width="380" height="140" as="geometry" />
        </mxCell>
        <mxCell id="SpDP-0PLcQuO3Ik-ZMjS-4" value="&lt;p style=&quot;margin:0px;margin-top:4px;text-align:center;&quot;&gt;&lt;i&gt;&amp;lt;&amp;lt;Interface&amp;gt;&amp;gt;&lt;/i&gt;&lt;br&gt;&lt;b&gt;TermLibraryManage&lt;/b&gt;&lt;/p&gt;&lt;hr size=&quot;1&quot;&gt;&lt;p style=&quot;margin:0px;margin-left:4px;&quot;&gt;&lt;span style=&quot;background-color: initial;&quot;&gt;MatchTerm(Sentence): String&lt;/span&gt;&lt;br&gt;&lt;/p&gt;&lt;p style=&quot;margin:0px;margin-left:4px;&quot;&gt;CreateTermLibrary(String): void&lt;/p&gt;&lt;p style=&quot;margin:0px;margin-left:4px;&quot;&gt;SaveLibrary(TermLibrary): void&lt;/p&gt;&lt;p style=&quot;margin:0px;margin-left:4px;&quot;&gt;LoadLibrary(String): void&lt;/p&gt;&lt;p style=&quot;margin:0px;margin-left:4px;&quot;&gt;GetTermLibrary(String): TermLibrary&lt;/p&gt;" style="verticalAlign=top;align=left;overflow=fill;fontSize=12;fontFamily=Helvetica;html=1;whiteSpace=wrap;" vertex="1" parent="1">
          <mxGeometry x="77" y="840" width="290" height="140" as="geometry" />
        </mxCell>
        <mxCell id="SpDP-0PLcQuO3Ik-ZMjS-5" value="&lt;p style=&quot;margin:0px;margin-top:4px;text-align:center;&quot;&gt;&lt;i&gt;&amp;lt;&amp;lt;Interface&amp;gt;&amp;gt;&lt;/i&gt;&lt;br&gt;&lt;b&gt;MemoryLibraryManage&lt;/b&gt;&lt;/p&gt;&lt;hr size=&quot;1&quot;&gt;&lt;p style=&quot;margin:0px;margin-left:4px;&quot;&gt;&lt;span style=&quot;background-color: initial;&quot;&gt;MatchItem(Sentence): String&lt;/span&gt;&lt;/p&gt;&lt;p style=&quot;margin:0px;margin-left:4px;&quot;&gt;CreateMemoryLibrary(String): void&lt;/p&gt;&lt;p style=&quot;margin:0px;margin-left:4px;&quot;&gt;SaveLibrary(MemoryLibrary): void&lt;/p&gt;&lt;p style=&quot;margin:0px;margin-left:4px;&quot;&gt;LoadLibrary(String): void&lt;/p&gt;&lt;p style=&quot;margin:0px;margin-left:4px;&quot;&gt;GetMemoryLibrary(String): MemoryLibrary&lt;/p&gt;" style="verticalAlign=top;align=left;overflow=fill;fontSize=12;fontFamily=Helvetica;html=1;whiteSpace=wrap;" vertex="1" parent="1">
          <mxGeometry x="77" y="680" width="290" height="140" as="geometry" />
        </mxCell>
        <mxCell id="SpDP-0PLcQuO3Ik-ZMjS-6" value="&lt;p style=&quot;margin:0px;margin-top:4px;text-align:center;&quot;&gt;&lt;i&gt;&amp;lt;&amp;lt;Interface&amp;gt;&amp;gt;&lt;/i&gt;&lt;br&gt;&lt;b&gt;EditHelp&lt;/b&gt;&lt;/p&gt;&lt;hr size=&quot;1&quot;&gt;&lt;p style=&quot;margin:0px;margin-left:4px;&quot;&gt;SpellCheck(String): String[]&lt;/p&gt;&lt;p style=&quot;margin:0px;margin-left:4px;&quot;&gt;Association(String): String[]&lt;/p&gt;&lt;p style=&quot;margin:0px;margin-left:4px;&quot;&gt;&lt;br&gt;&lt;/p&gt;" style="verticalAlign=top;align=left;overflow=fill;fontSize=12;fontFamily=Helvetica;html=1;whiteSpace=wrap;" vertex="1" parent="1">
          <mxGeometry x="827" y="840" width="230" height="140" as="geometry" />
        </mxCell>
        <mxCell id="SpDP-0PLcQuO3Ik-ZMjS-7" value="&lt;p style=&quot;margin:0px;margin-top:4px;text-align:center;&quot;&gt;&lt;i&gt;&amp;lt;&amp;lt;Interface&amp;gt;&amp;gt;&lt;/i&gt;&lt;br&gt;&lt;b&gt;FileManage&lt;/b&gt;&lt;/p&gt;&lt;hr size=&quot;1&quot;&gt;&lt;p style=&quot;margin:0px;margin-left:4px;&quot;&gt;&lt;span style=&quot;background-color: initial;&quot;&gt;ReadFile(File): void&lt;/span&gt;&lt;br&gt;&lt;/p&gt;&lt;p style=&quot;margin:0px;margin-left:4px;&quot;&gt;SaveFile(TranslationFile): void&lt;/p&gt;&lt;p style=&quot;margin:0px;margin-left:4px;&quot;&gt;DeriveFile(TranslationFile): void&lt;/p&gt;&lt;p style=&quot;margin:0px;margin-left:4px;&quot;&gt;SetUpFile(TranslatioinFile): void&lt;/p&gt;&lt;p style=&quot;margin:0px;margin-left:4px;&quot;&gt;TranslateParagraph(TranslationItem): void&lt;/p&gt;" style="verticalAlign=top;align=left;overflow=fill;fontSize=12;fontFamily=Helvetica;html=1;whiteSpace=wrap;" vertex="1" parent="1">
          <mxGeometry x="1347" y="680" width="245" height="140" as="geometry" />
        </mxCell>
        <mxCell id="SpDP-0PLcQuO3Ik-ZMjS-8" value="&lt;p style=&quot;margin:0px;margin-top:4px;text-align:center;&quot;&gt;&lt;i&gt;&amp;lt;&amp;lt;Interface&amp;gt;&amp;gt;&lt;/i&gt;&lt;br&gt;&lt;b&gt;ProjectManage&lt;/b&gt;&lt;/p&gt;&lt;hr size=&quot;1&quot;&gt;&lt;p style=&quot;margin:0px;margin-left:4px;&quot;&gt;CreateProject(String): void&lt;/p&gt;&lt;p style=&quot;margin:0px;margin-left:4px;&quot;&gt;LoadProject(CAT_Project): void&lt;/p&gt;&lt;p style=&quot;margin:0px;margin-left:4px;&quot;&gt;SaveProject(CAT_Project): void&lt;/p&gt;&lt;p style=&quot;margin:0px;margin-left:4px;&quot;&gt;TranslateFile(TranslationFile): void&lt;/p&gt;" style="verticalAlign=top;align=left;overflow=fill;fontSize=12;fontFamily=Helvetica;html=1;whiteSpace=wrap;" vertex="1" parent="1">
          <mxGeometry x="1097" y="840" width="210" height="140" as="geometry" />
        </mxCell>
        <mxCell id="SpDP-0PLcQuO3Ik-ZMjS-9" value="" style="group" vertex="1" connectable="0" parent="1">
          <mxGeometry x="700" y="220" width="269" height="320" as="geometry" />
        </mxCell>
        <mxCell id="SpDP-0PLcQuO3Ik-ZMjS-10" value="Memory Library System" style="shape=module;align=left;spacingLeft=20;align=center;verticalAlign=top;whiteSpace=wrap;html=1;" vertex="1" parent="SpDP-0PLcQuO3Ik-ZMjS-9">
          <mxGeometry width="269" height="320" as="geometry" />
        </mxCell>
        <mxCell id="SpDP-0PLcQuO3Ik-ZMjS-11" value="«interface»&lt;br&gt;&lt;b&gt;MemoryLibraryManage&lt;/b&gt;" style="html=1;whiteSpace=wrap;" vertex="1" parent="SpDP-0PLcQuO3Ik-ZMjS-9">
          <mxGeometry x="44.5" y="60" width="175.5" height="50" as="geometry" />
        </mxCell>
        <mxCell id="SpDP-0PLcQuO3Ik-ZMjS-12" value="«interface»&lt;br&gt;&lt;b&gt;MemoryLibraryAttribute&lt;/b&gt;" style="html=1;whiteSpace=wrap;" vertex="1" parent="SpDP-0PLcQuO3Ik-ZMjS-9">
          <mxGeometry x="45" y="151" width="175" height="50" as="geometry" />
        </mxCell>
        <mxCell id="SpDP-0PLcQuO3Ik-ZMjS-13" value="" style="group" vertex="1" connectable="0" parent="1">
          <mxGeometry x="1020" y="220" width="269" height="320" as="geometry" />
        </mxCell>
        <mxCell id="SpDP-0PLcQuO3Ik-ZMjS-14" value="" style="group" vertex="1" connectable="0" parent="SpDP-0PLcQuO3Ik-ZMjS-13">
          <mxGeometry width="269" height="320" as="geometry" />
        </mxCell>
        <mxCell id="SpDP-0PLcQuO3Ik-ZMjS-15" value="Term Library System" style="shape=module;align=left;spacingLeft=20;align=center;verticalAlign=top;whiteSpace=wrap;html=1;" vertex="1" parent="SpDP-0PLcQuO3Ik-ZMjS-14">
          <mxGeometry width="269" height="320" as="geometry" />
        </mxCell>
        <mxCell id="SpDP-0PLcQuO3Ik-ZMjS-16" value="«interface»&lt;br&gt;&lt;b&gt;TermLibraryManage&lt;/b&gt;" style="html=1;whiteSpace=wrap;" vertex="1" parent="SpDP-0PLcQuO3Ik-ZMjS-14">
          <mxGeometry x="44.5" y="60" width="175.5" height="50" as="geometry" />
        </mxCell>
        <mxCell id="SpDP-0PLcQuO3Ik-ZMjS-17" value="«interface»&lt;br&gt;&lt;b&gt;TermLibraryAttribute&lt;/b&gt;" style="html=1;whiteSpace=wrap;" vertex="1" parent="SpDP-0PLcQuO3Ik-ZMjS-14">
          <mxGeometry x="44.5" y="161" width="175" height="50" as="geometry" />
        </mxCell>
        <mxCell id="SpDP-0PLcQuO3Ik-ZMjS-18" value="" style="group" vertex="1" connectable="0" parent="1">
          <mxGeometry x="370" y="220" width="270" height="320" as="geometry" />
        </mxCell>
        <mxCell id="SpDP-0PLcQuO3Ik-ZMjS-19" value="Translator System" style="shape=module;align=left;spacingLeft=20;align=center;verticalAlign=top;whiteSpace=wrap;html=1;" vertex="1" parent="SpDP-0PLcQuO3Ik-ZMjS-18">
          <mxGeometry width="270" height="320" as="geometry" />
        </mxCell>
        <mxCell id="SpDP-0PLcQuO3Ik-ZMjS-20" value="«interface»&lt;br&gt;&lt;b&gt;Translate&lt;/b&gt;" style="html=1;whiteSpace=wrap;" vertex="1" parent="SpDP-0PLcQuO3Ik-ZMjS-18">
          <mxGeometry x="30" y="60" width="170" height="50" as="geometry" />
        </mxCell>
        <mxCell id="SpDP-0PLcQuO3Ik-ZMjS-21" value="«interface»&lt;br&gt;&lt;b&gt;EditHelper&lt;/b&gt;" style="html=1;whiteSpace=wrap;" vertex="1" parent="SpDP-0PLcQuO3Ik-ZMjS-18">
          <mxGeometry x="30" y="150" width="170" height="50" as="geometry" />
        </mxCell>
        <mxCell id="SpDP-0PLcQuO3Ik-ZMjS-22" value="" style="group" vertex="1" connectable="0" parent="1">
          <mxGeometry x="1340" y="220" width="270" height="140" as="geometry" />
        </mxCell>
        <mxCell id="SpDP-0PLcQuO3Ik-ZMjS-23" value="ProjectSystem" style="shape=module;align=left;spacingLeft=20;align=center;verticalAlign=top;whiteSpace=wrap;html=1;" vertex="1" parent="SpDP-0PLcQuO3Ik-ZMjS-22">
          <mxGeometry width="270" height="140" as="geometry" />
        </mxCell>
        <mxCell id="SpDP-0PLcQuO3Ik-ZMjS-24" value="«interface»&lt;br&gt;&lt;b&gt;ProjectManager&lt;/b&gt;" style="html=1;whiteSpace=wrap;" vertex="1" parent="SpDP-0PLcQuO3Ik-ZMjS-22">
          <mxGeometry x="30" y="60" width="170" height="50" as="geometry" />
        </mxCell>
        <mxCell id="SpDP-0PLcQuO3Ik-ZMjS-25" value="" style="group" vertex="1" connectable="0" parent="1">
          <mxGeometry x="40" y="220" width="270" height="320" as="geometry" />
        </mxCell>
        <mxCell id="SpDP-0PLcQuO3Ik-ZMjS-26" value="File System" style="shape=module;align=left;spacingLeft=20;align=center;verticalAlign=top;whiteSpace=wrap;html=1;" vertex="1" parent="SpDP-0PLcQuO3Ik-ZMjS-25">
          <mxGeometry width="270" height="320" as="geometry" />
        </mxCell>
        <mxCell id="SpDP-0PLcQuO3Ik-ZMjS-27" value="«interface»&lt;br&gt;&lt;b&gt;FileManager&lt;/b&gt;" style="html=1;whiteSpace=wrap;" vertex="1" parent="SpDP-0PLcQuO3Ik-ZMjS-25">
          <mxGeometry x="30" y="60" width="170" height="50" as="geometry" />
        </mxCell>
        <mxCell id="SpDP-0PLcQuO3Ik-ZMjS-28" value="«interface»&lt;br&gt;&lt;b&gt;ParagraphManager&lt;/b&gt;" style="html=1;whiteSpace=wrap;" vertex="1" parent="SpDP-0PLcQuO3Ik-ZMjS-25">
          <mxGeometry x="30" y="151" width="170" height="50" as="geometry" />
        </mxCell>
        <mxCell id="SpDP-0PLcQuO3Ik-ZMjS-29" value="&lt;p style=&quot;margin:0px;margin-top:4px;text-align:center;&quot;&gt;&lt;i&gt;&amp;lt;&amp;lt;Interface&amp;gt;&amp;gt;&lt;/i&gt;&lt;br&gt;&lt;b&gt;TermLibraryAttribute&lt;/b&gt;&lt;/p&gt;&lt;hr size=&quot;1&quot;&gt;&lt;p style=&quot;margin:0px;margin-left:4px;&quot;&gt;&lt;span style=&quot;background-color: initial;&quot;&gt;RemoveItem(TermItem): void&lt;/span&gt;&lt;br&gt;&lt;/p&gt;&lt;p style=&quot;margin:0px;margin-left:4px;&quot;&gt;AddItem(TermItem): void&lt;/p&gt;&lt;p style=&quot;margin:0px;margin-left:4px;&quot;&gt;EditItem(TermItem): void&lt;/p&gt;&lt;p style=&quot;margin:0px;margin-left:4px;&quot;&gt;SearchItem(String): TermItem[]&lt;br&gt;&lt;/p&gt;&lt;p style=&quot;margin:0px;margin-left:4px;&quot;&gt;MatchItem(TermLibrary,Sentence): String&lt;/p&gt;" style="verticalAlign=top;align=left;overflow=fill;fontSize=12;fontFamily=Helvetica;html=1;whiteSpace=wrap;" vertex="1" parent="1">
          <mxGeometry x="407" y="840" width="380" height="140" as="geometry" />
        </mxCell>
      </root>
    </mxGraphModel>
  </diagram>
  <diagram id="C5RBs43oDa-KdzZeNtuy" name="组件设计">
    <mxGraphModel dx="1932" dy="1831" grid="1" gridSize="10" guides="1" tooltips="1" connect="1" arrows="1" fold="1" page="1" pageScale="1" pageWidth="827" pageHeight="1169" math="0" shadow="0">
      <root>
        <mxCell id="WIyWlLk6GJQsqaUBKTNV-0" />
        <mxCell id="WIyWlLk6GJQsqaUBKTNV-1" parent="WIyWlLk6GJQsqaUBKTNV-0" />
        <mxCell id="-C6FgUDvD7B2DXOm4kBJ-9" value="" style="group" parent="WIyWlLk6GJQsqaUBKTNV-1" vertex="1" connectable="0">
          <mxGeometry x="780" y="-240" width="640" height="500" as="geometry" />
        </mxCell>
        <mxCell id="-C6FgUDvD7B2DXOm4kBJ-5" value="" style="shape=folder;fontStyle=1;spacingTop=10;tabWidth=40;tabHeight=14;tabPosition=left;html=1;whiteSpace=wrap;" parent="-C6FgUDvD7B2DXOm4kBJ-9" vertex="1">
          <mxGeometry y="-10.84" width="640" height="510.84" as="geometry" />
        </mxCell>
        <mxCell id="-C6FgUDvD7B2DXOm4kBJ-7" value="SystemUtil" style="text;align=center;fontStyle=1;verticalAlign=middle;spacingLeft=3;spacingRight=3;strokeColor=none;rotatable=0;points=[[0,0.5],[1,0.5]];portConstraint=eastwest;html=1;" parent="-C6FgUDvD7B2DXOm4kBJ-9" vertex="1">
          <mxGeometry x="291.6455696202532" y="30" width="56.70886075949368" height="30" as="geometry" />
        </mxCell>
        <mxCell id="zeM_nxSK7-3mKOWZnppf-49" value="Sentence" style="swimlane;fontStyle=1;align=center;verticalAlign=top;childLayout=stackLayout;horizontal=1;startSize=26;horizontalStack=0;resizeParent=1;resizeParentMax=0;resizeLast=0;collapsible=1;marginBottom=0;whiteSpace=wrap;html=1;" parent="-C6FgUDvD7B2DXOm4kBJ-9" vertex="1">
          <mxGeometry x="88.61590676158188" y="118.03999999999999" width="167.3846153846154" height="74.43791666666665" as="geometry" />
        </mxCell>
        <mxCell id="zeM_nxSK7-3mKOWZnppf-50" value="language: Laguage" style="text;strokeColor=none;fillColor=none;align=left;verticalAlign=top;spacingLeft=4;spacingRight=4;overflow=hidden;rotatable=0;points=[[0,0.5],[1,0.5]];portConstraint=eastwest;whiteSpace=wrap;html=1;" parent="zeM_nxSK7-3mKOWZnppf-49" vertex="1">
          <mxGeometry y="26" width="167.3846153846154" height="20.989583333333332" as="geometry" />
        </mxCell>
        <mxCell id="zeM_nxSK7-3mKOWZnppf-53" value="text: String" style="text;strokeColor=none;fillColor=none;align=left;verticalAlign=top;spacingLeft=4;spacingRight=4;overflow=hidden;rotatable=0;points=[[0,0.5],[1,0.5]];portConstraint=eastwest;whiteSpace=wrap;html=1;" parent="zeM_nxSK7-3mKOWZnppf-49" vertex="1">
          <mxGeometry y="46.98958333333333" width="167.3846153846154" height="20.99" as="geometry" />
        </mxCell>
        <mxCell id="zeM_nxSK7-3mKOWZnppf-51" value="" style="line;strokeWidth=1;fillColor=none;align=left;verticalAlign=middle;spacingTop=-1;spacingLeft=3;spacingRight=3;rotatable=0;labelPosition=right;points=[];portConstraint=eastwest;strokeColor=inherit;" parent="zeM_nxSK7-3mKOWZnppf-49" vertex="1">
          <mxGeometry y="67.97958333333332" width="167.3846153846154" height="6.458333333333334" as="geometry" />
        </mxCell>
        <mxCell id="-C6FgUDvD7B2DXOm4kBJ-10" value="&lt;p style=&quot;margin:0px;margin-top:4px;text-align:center;&quot;&gt;&lt;i style=&quot;&quot;&gt;&amp;lt;&amp;lt;Enumeration&amp;gt;&amp;gt;&lt;/i&gt;&lt;/p&gt;&lt;p style=&quot;margin:0px;margin-top:4px;text-align:center;&quot;&gt;&lt;b&gt;Language&lt;/b&gt;&lt;/p&gt;&lt;hr size=&quot;1&quot;&gt;&lt;p style=&quot;margin:0px;margin-left:4px;&quot;&gt;name: String&lt;/p&gt;&lt;hr size=&quot;1&quot;&gt;&lt;p style=&quot;margin:0px;margin-left:4px;&quot;&gt;Default(&quot;Defalut&quot;)&lt;/p&gt;&lt;p style=&quot;margin:0px;margin-left:4px;&quot;&gt;Chinese(&quot;Chinese&quot;)&lt;/p&gt;&lt;p style=&quot;margin:0px;margin-left:4px;&quot;&gt;English(&quot;English&quot;)&lt;/p&gt;&lt;p style=&quot;margin:0px;margin-left:4px;&quot;&gt;....&lt;/p&gt;" style="verticalAlign=top;align=left;overflow=fill;fontSize=12;fontFamily=Helvetica;html=1;whiteSpace=wrap;" parent="-C6FgUDvD7B2DXOm4kBJ-9" vertex="1">
          <mxGeometry x="364.3076923076923" y="86" width="177.23076923076923" height="138.51" as="geometry" />
        </mxCell>
        <mxCell id="-C6FgUDvD7B2DXOm4kBJ-11" value="" style="endArrow=diamondThin;endFill=1;endSize=24;html=1;rounded=0;exitX=0;exitY=0.5;exitDx=0;exitDy=0;entryX=1;entryY=0.5;entryDx=0;entryDy=0;" parent="-C6FgUDvD7B2DXOm4kBJ-9" source="-C6FgUDvD7B2DXOm4kBJ-10" target="zeM_nxSK7-3mKOWZnppf-50" edge="1">
          <mxGeometry width="160" relative="1" as="geometry">
            <mxPoint x="104.60867783341475" y="340" as="sourcePoint" />
            <mxPoint x="233.3578197822329" y="340" as="targetPoint" />
          </mxGeometry>
        </mxCell>
        <mxCell id="zeM_nxSK7-3mKOWZnppf-37" value="TranslationItem" style="swimlane;fontStyle=1;align=center;verticalAlign=top;childLayout=stackLayout;horizontal=1;startSize=26;horizontalStack=0;resizeParent=1;resizeParentMax=0;resizeLast=0;collapsible=1;marginBottom=0;whiteSpace=wrap;html=1;" parent="-C6FgUDvD7B2DXOm4kBJ-9" vertex="1">
          <mxGeometry x="364.3053846153846" y="300" width="167.3846153846154" height="86" as="geometry" />
        </mxCell>
        <mxCell id="zeM_nxSK7-3mKOWZnppf-38" value="origin: Sentence" style="text;strokeColor=none;fillColor=none;align=left;verticalAlign=top;spacingLeft=4;spacingRight=4;overflow=hidden;rotatable=0;points=[[0,0.5],[1,0.5]];portConstraint=eastwest;whiteSpace=wrap;html=1;" parent="zeM_nxSK7-3mKOWZnppf-37" vertex="1">
          <mxGeometry y="26" width="167.3846153846154" height="26" as="geometry" />
        </mxCell>
        <mxCell id="zeM_nxSK7-3mKOWZnppf-42" value="translation: Sentence" style="text;strokeColor=none;fillColor=none;align=left;verticalAlign=top;spacingLeft=4;spacingRight=4;overflow=hidden;rotatable=0;points=[[0,0.5],[1,0.5]];portConstraint=eastwest;whiteSpace=wrap;html=1;" parent="zeM_nxSK7-3mKOWZnppf-37" vertex="1">
          <mxGeometry y="52" width="167.3846153846154" height="26" as="geometry" />
        </mxCell>
        <mxCell id="zeM_nxSK7-3mKOWZnppf-39" value="" style="line;strokeWidth=1;fillColor=none;align=left;verticalAlign=middle;spacingTop=-1;spacingLeft=3;spacingRight=3;rotatable=0;labelPosition=right;points=[];portConstraint=eastwest;strokeColor=inherit;" parent="zeM_nxSK7-3mKOWZnppf-37" vertex="1">
          <mxGeometry y="78" width="167.3846153846154" height="8" as="geometry" />
        </mxCell>
        <mxCell id="zeM_nxSK7-3mKOWZnppf-64" value="TermItem" style="swimlane;fontStyle=1;align=center;verticalAlign=top;childLayout=stackLayout;horizontal=1;startSize=26;horizontalStack=0;resizeParent=1;resizeParentMax=0;resizeLast=0;collapsible=1;marginBottom=0;whiteSpace=wrap;html=1;" parent="-C6FgUDvD7B2DXOm4kBJ-9" vertex="1">
          <mxGeometry x="78.00000000000001" y="279" width="208.35" height="166" as="geometry" />
        </mxCell>
        <mxCell id="zeM_nxSK7-3mKOWZnppf-65" value="title: String" style="text;strokeColor=none;fillColor=none;align=left;verticalAlign=top;spacingLeft=4;spacingRight=4;overflow=hidden;rotatable=0;points=[[0,0.5],[1,0.5]];portConstraint=eastwest;whiteSpace=wrap;html=1;" parent="zeM_nxSK7-3mKOWZnppf-64" vertex="1">
          <mxGeometry y="26" width="208.35" height="26" as="geometry" />
        </mxCell>
        <mxCell id="zeM_nxSK7-3mKOWZnppf-68" value="termsList: List&amp;lt;Sentence&amp;gt;" style="text;strokeColor=none;fillColor=none;align=left;verticalAlign=top;spacingLeft=4;spacingRight=4;overflow=hidden;rotatable=0;points=[[0,0.5],[1,0.5]];portConstraint=eastwest;whiteSpace=wrap;html=1;" parent="zeM_nxSK7-3mKOWZnppf-64" vertex="1">
          <mxGeometry y="52" width="208.35" height="26" as="geometry" />
        </mxCell>
        <mxCell id="zeM_nxSK7-3mKOWZnppf-66" value="" style="line;strokeWidth=1;fillColor=none;align=left;verticalAlign=middle;spacingTop=-1;spacingLeft=3;spacingRight=3;rotatable=0;labelPosition=right;points=[];portConstraint=eastwest;strokeColor=inherit;" parent="zeM_nxSK7-3mKOWZnppf-64" vertex="1">
          <mxGeometry y="78" width="208.35" height="8" as="geometry" />
        </mxCell>
        <mxCell id="zeM_nxSK7-3mKOWZnppf-67" value="AddTerm(Sentence): void" style="text;strokeColor=none;fillColor=none;align=left;verticalAlign=top;spacingLeft=4;spacingRight=4;overflow=hidden;rotatable=0;points=[[0,0.5],[1,0.5]];portConstraint=eastwest;whiteSpace=wrap;html=1;" parent="zeM_nxSK7-3mKOWZnppf-64" vertex="1">
          <mxGeometry y="86" width="208.35" height="26" as="geometry" />
        </mxCell>
        <mxCell id="zeM_nxSK7-3mKOWZnppf-73" value="GetTerm(Language): Sentence" style="text;strokeColor=none;fillColor=none;align=left;verticalAlign=top;spacingLeft=4;spacingRight=4;overflow=hidden;rotatable=0;points=[[0,0.5],[1,0.5]];portConstraint=eastwest;whiteSpace=wrap;html=1;" parent="zeM_nxSK7-3mKOWZnppf-64" vertex="1">
          <mxGeometry y="112" width="208.35" height="28" as="geometry" />
        </mxCell>
        <mxCell id="giRkXWNhD0YiaLHwySCm-2" value="RemoveTerm(Language): void" style="text;strokeColor=none;fillColor=none;align=left;verticalAlign=top;spacingLeft=4;spacingRight=4;overflow=hidden;rotatable=0;points=[[0,0.5],[1,0.5]];portConstraint=eastwest;whiteSpace=wrap;html=1;" parent="zeM_nxSK7-3mKOWZnppf-64" vertex="1">
          <mxGeometry y="140" width="208.35" height="26" as="geometry" />
        </mxCell>
        <mxCell id="-C6FgUDvD7B2DXOm4kBJ-25" value="" style="endArrow=diamondThin;endFill=1;endSize=24;html=1;rounded=0;exitX=0.25;exitY=1;exitDx=0;exitDy=0;entryX=0.25;entryY=0;entryDx=0;entryDy=0;" parent="-C6FgUDvD7B2DXOm4kBJ-9" source="zeM_nxSK7-3mKOWZnppf-49" target="zeM_nxSK7-3mKOWZnppf-64" edge="1">
          <mxGeometry width="160" relative="1" as="geometry">
            <mxPoint x="700" y="270" as="sourcePoint" />
            <mxPoint x="860" y="270" as="targetPoint" />
          </mxGeometry>
        </mxCell>
        <mxCell id="-C6FgUDvD7B2DXOm4kBJ-28" value="" style="endArrow=diamondThin;endFill=1;endSize=24;html=1;rounded=0;exitX=0.75;exitY=1;exitDx=0;exitDy=0;entryX=0.5;entryY=0;entryDx=0;entryDy=0;" parent="-C6FgUDvD7B2DXOm4kBJ-9" source="zeM_nxSK7-3mKOWZnppf-49" target="zeM_nxSK7-3mKOWZnppf-37" edge="1">
          <mxGeometry width="160" relative="1" as="geometry">
            <mxPoint x="-100" y="320" as="sourcePoint" />
            <mxPoint x="60" y="320" as="targetPoint" />
            <Array as="points">
              <mxPoint x="214" y="250" />
              <mxPoint x="448" y="250" />
            </Array>
          </mxGeometry>
        </mxCell>
        <mxCell id="-C6FgUDvD7B2DXOm4kBJ-16" value="" style="group" parent="WIyWlLk6GJQsqaUBKTNV-1" vertex="1" connectable="0">
          <mxGeometry x="-75" y="-230" width="640" height="420" as="geometry" />
        </mxCell>
        <mxCell id="-C6FgUDvD7B2DXOm4kBJ-14" value="" style="shape=folder;fontStyle=1;spacingTop=10;tabWidth=40;tabHeight=14;tabPosition=left;html=1;whiteSpace=wrap;" parent="-C6FgUDvD7B2DXOm4kBJ-16" vertex="1">
          <mxGeometry width="640" height="420" as="geometry" />
        </mxCell>
        <mxCell id="-C6FgUDvD7B2DXOm4kBJ-15" value="TranslationSystem" style="text;align=center;fontStyle=1;verticalAlign=middle;spacingLeft=3;spacingRight=3;strokeColor=none;rotatable=0;points=[[0,0.5],[1,0.5]];portConstraint=eastwest;html=1;" parent="-C6FgUDvD7B2DXOm4kBJ-16" vertex="1">
          <mxGeometry x="255" y="30.731707317073173" width="130" height="26.63414634146341" as="geometry" />
        </mxCell>
        <mxCell id="-C6FgUDvD7B2DXOm4kBJ-17" value="Translator" style="swimlane;fontStyle=1;align=center;verticalAlign=top;childLayout=stackLayout;horizontal=1;startSize=26;horizontalStack=0;resizeParent=1;resizeParentMax=0;resizeLast=0;collapsible=1;marginBottom=0;whiteSpace=wrap;html=1;" parent="-C6FgUDvD7B2DXOm4kBJ-16" vertex="1">
          <mxGeometry x="27.24" y="84.0015" width="252.76" height="138.875" as="geometry" />
        </mxCell>
        <mxCell id="-C6FgUDvD7B2DXOm4kBJ-19" value="" style="line;strokeWidth=1;fillColor=none;align=left;verticalAlign=middle;spacingTop=-1;spacingLeft=3;spacingRight=3;rotatable=0;labelPosition=right;points=[];portConstraint=eastwest;strokeColor=inherit;" parent="-C6FgUDvD7B2DXOm4kBJ-17" vertex="1">
          <mxGeometry y="26" width="252.76" height="10.5" as="geometry" />
        </mxCell>
        <mxCell id="-C6FgUDvD7B2DXOm4kBJ-20" value="ManualTranslate(void) String" style="text;strokeColor=none;fillColor=none;align=left;verticalAlign=top;spacingLeft=4;spacingRight=4;overflow=hidden;rotatable=0;points=[[0,0.5],[1,0.5]];portConstraint=eastwest;whiteSpace=wrap;html=1;" parent="-C6FgUDvD7B2DXOm4kBJ-17" vertex="1">
          <mxGeometry y="36.5" width="252.76" height="34.125" as="geometry" />
        </mxCell>
        <mxCell id="-C6FgUDvD7B2DXOm4kBJ-22" value="ComputerAssistedTranslate(void): String" style="text;strokeColor=none;fillColor=none;align=left;verticalAlign=top;spacingLeft=4;spacingRight=4;overflow=hidden;rotatable=0;points=[[0,0.5],[1,0.5]];portConstraint=eastwest;whiteSpace=wrap;html=1;" parent="-C6FgUDvD7B2DXOm4kBJ-17" vertex="1">
          <mxGeometry y="70.625" width="252.76" height="34.125" as="geometry" />
        </mxCell>
        <mxCell id="-C6FgUDvD7B2DXOm4kBJ-23" value="MachineTranslate(void): String" style="text;strokeColor=none;fillColor=none;align=left;verticalAlign=top;spacingLeft=4;spacingRight=4;overflow=hidden;rotatable=0;points=[[0,0.5],[1,0.5]];portConstraint=eastwest;whiteSpace=wrap;html=1;" parent="-C6FgUDvD7B2DXOm4kBJ-17" vertex="1">
          <mxGeometry y="104.75" width="252.76" height="34.125" as="geometry" />
        </mxCell>
        <mxCell id="-C6FgUDvD7B2DXOm4kBJ-21" value="&lt;p style=&quot;margin:0px;margin-top:4px;text-align:center;&quot;&gt;&lt;i&gt;&amp;lt;&amp;lt;Interface&amp;gt;&amp;gt;&lt;/i&gt;&lt;br&gt;&lt;b&gt;Translate&lt;/b&gt;&lt;/p&gt;&lt;hr size=&quot;1&quot;&gt;&lt;p style=&quot;margin:0px;margin-left:4px;&quot;&gt;&lt;span style=&quot;background-color: initial;&quot;&gt;ArtificialTranslate(void): String&lt;/span&gt;&lt;br&gt;&lt;/p&gt;&lt;p style=&quot;margin:0px;margin-left:4px;&quot;&gt;ComputerAssistedTranslate(void): String&lt;/p&gt;&lt;p style=&quot;margin:0px;margin-left:4px;&quot;&gt;MachineTranslate(void): String&lt;/p&gt;&lt;p style=&quot;margin:0px;margin-left:4px;&quot;&gt;&lt;br&gt;&lt;/p&gt;" style="verticalAlign=top;align=left;overflow=fill;fontSize=12;fontFamily=Helvetica;html=1;whiteSpace=wrap;" parent="-C6FgUDvD7B2DXOm4kBJ-16" vertex="1">
          <mxGeometry x="365" y="91.6" width="240" height="160.87199999999999" as="geometry" />
        </mxCell>
        <mxCell id="-C6FgUDvD7B2DXOm4kBJ-24" value="" style="endArrow=block;dashed=1;endFill=0;endSize=12;html=1;rounded=0;exitX=1;exitY=0.5;exitDx=0;exitDy=0;entryX=0;entryY=0.5;entryDx=0;entryDy=0;" parent="-C6FgUDvD7B2DXOm4kBJ-16" target="-C6FgUDvD7B2DXOm4kBJ-21" edge="1">
          <mxGeometry width="160" relative="1" as="geometry">
            <mxPoint x="280" y="171.68899999999985" as="sourcePoint" />
            <mxPoint x="365" y="161.03600000000006" as="targetPoint" />
          </mxGeometry>
        </mxCell>
        <mxCell id="NzcH6q662TKNeG9FKmlv-11" value="&lt;p style=&quot;margin:0px;margin-top:4px;text-align:center;&quot;&gt;&lt;i&gt;&amp;lt;&amp;lt;Interface&amp;gt;&amp;gt;&lt;/i&gt;&lt;br&gt;&lt;b&gt;EditHelp&lt;/b&gt;&lt;/p&gt;&lt;hr size=&quot;1&quot;&gt;&lt;p style=&quot;margin:0px;margin-left:4px;&quot;&gt;SpellCheck(String): String[]&lt;/p&gt;&lt;p style=&quot;margin:0px;margin-left:4px;&quot;&gt;Association(String): String[]&lt;/p&gt;&lt;p style=&quot;margin:0px;margin-left:4px;&quot;&gt;&lt;br&gt;&lt;/p&gt;" style="verticalAlign=top;align=left;overflow=fill;fontSize=12;fontFamily=Helvetica;html=1;whiteSpace=wrap;" parent="-C6FgUDvD7B2DXOm4kBJ-16" vertex="1">
          <mxGeometry x="370" y="272.4" width="230" height="120" as="geometry" />
        </mxCell>
        <mxCell id="NzcH6q662TKNeG9FKmlv-12" value="EditHelper" style="swimlane;fontStyle=1;align=center;verticalAlign=top;childLayout=stackLayout;horizontal=1;startSize=26;horizontalStack=0;resizeParent=1;resizeParentMax=0;resizeLast=0;collapsible=1;marginBottom=0;whiteSpace=wrap;html=1;" parent="-C6FgUDvD7B2DXOm4kBJ-16" vertex="1">
          <mxGeometry x="58.61999999999989" y="282" width="190" height="98" as="geometry" />
        </mxCell>
        <mxCell id="NzcH6q662TKNeG9FKmlv-14" value="" style="line;strokeWidth=1;fillColor=none;align=left;verticalAlign=middle;spacingTop=-1;spacingLeft=3;spacingRight=3;rotatable=0;labelPosition=right;points=[];portConstraint=eastwest;strokeColor=inherit;" parent="NzcH6q662TKNeG9FKmlv-12" vertex="1">
          <mxGeometry y="26" width="190" height="9.6" as="geometry" />
        </mxCell>
        <mxCell id="NzcH6q662TKNeG9FKmlv-15" value="SpellCheck(String): String[]" style="text;strokeColor=none;fillColor=none;align=left;verticalAlign=top;spacingLeft=4;spacingRight=4;overflow=hidden;rotatable=0;points=[[0,0.5],[1,0.5]];portConstraint=eastwest;whiteSpace=wrap;html=1;" parent="NzcH6q662TKNeG9FKmlv-12" vertex="1">
          <mxGeometry y="35.6" width="190" height="31.2" as="geometry" />
        </mxCell>
        <mxCell id="NzcH6q662TKNeG9FKmlv-16" value="Association(String): String[]" style="text;strokeColor=none;fillColor=none;align=left;verticalAlign=top;spacingLeft=4;spacingRight=4;overflow=hidden;rotatable=0;points=[[0,0.5],[1,0.5]];portConstraint=eastwest;whiteSpace=wrap;html=1;" parent="NzcH6q662TKNeG9FKmlv-12" vertex="1">
          <mxGeometry y="66.8" width="190" height="31.2" as="geometry" />
        </mxCell>
        <mxCell id="NzcH6q662TKNeG9FKmlv-17" value="" style="endArrow=block;dashed=1;endFill=0;endSize=12;html=1;rounded=0;exitX=1;exitY=0.5;exitDx=0;exitDy=0;entryX=0;entryY=0.5;entryDx=0;entryDy=0;" parent="-C6FgUDvD7B2DXOm4kBJ-16" source="NzcH6q662TKNeG9FKmlv-15" target="NzcH6q662TKNeG9FKmlv-11" edge="1">
          <mxGeometry width="160" relative="1" as="geometry">
            <mxPoint x="-430" y="360" as="sourcePoint" />
            <mxPoint x="-270" y="360" as="targetPoint" />
          </mxGeometry>
        </mxCell>
        <mxCell id="NzcH6q662TKNeG9FKmlv-37" value="" style="group" parent="WIyWlLk6GJQsqaUBKTNV-1" vertex="1" connectable="0">
          <mxGeometry x="1770" y="546" width="750" height="660" as="geometry" />
        </mxCell>
        <mxCell id="NzcH6q662TKNeG9FKmlv-35" value="" style="shape=folder;fontStyle=1;spacingTop=10;tabWidth=40;tabHeight=14;tabPosition=left;html=1;whiteSpace=wrap;" parent="NzcH6q662TKNeG9FKmlv-37" vertex="1">
          <mxGeometry width="750" height="660" as="geometry" />
        </mxCell>
        <mxCell id="NzcH6q662TKNeG9FKmlv-36" value="FileSystem" style="text;align=center;fontStyle=1;verticalAlign=middle;spacingLeft=3;spacingRight=3;strokeColor=none;rotatable=0;points=[[0,0.5],[1,0.5]];portConstraint=eastwest;html=1;" parent="NzcH6q662TKNeG9FKmlv-37" vertex="1">
          <mxGeometry x="335" y="35" width="80" height="26" as="geometry" />
        </mxCell>
        <mxCell id="zeM_nxSK7-3mKOWZnppf-84" value="TranslationFile" style="swimlane;fontStyle=1;align=center;verticalAlign=top;childLayout=stackLayout;horizontal=1;startSize=26;horizontalStack=0;resizeParent=1;resizeParentMax=0;resizeLast=0;collapsible=1;marginBottom=0;whiteSpace=wrap;html=1;" parent="NzcH6q662TKNeG9FKmlv-37" vertex="1">
          <mxGeometry x="80" y="350" width="260" height="216" as="geometry" />
        </mxCell>
        <mxCell id="zeM_nxSK7-3mKOWZnppf-85" value="name: String" style="text;strokeColor=none;fillColor=none;align=left;verticalAlign=top;spacingLeft=4;spacingRight=4;overflow=hidden;rotatable=0;points=[[0,0.5],[1,0.5]];portConstraint=eastwest;whiteSpace=wrap;html=1;" parent="zeM_nxSK7-3mKOWZnppf-84" vertex="1">
          <mxGeometry y="26" width="260" height="26" as="geometry" />
        </mxCell>
        <mxCell id="zeM_nxSK7-3mKOWZnppf-88" value="save: String" style="text;strokeColor=none;fillColor=none;align=left;verticalAlign=top;spacingLeft=4;spacingRight=4;overflow=hidden;rotatable=0;points=[[0,0.5],[1,0.5]];portConstraint=eastwest;whiteSpace=wrap;html=1;" parent="zeM_nxSK7-3mKOWZnppf-84" vertex="1">
          <mxGeometry y="52" width="260" height="26" as="geometry" />
        </mxCell>
        <mxCell id="zeM_nxSK7-3mKOWZnppf-89" value="originLanguage: Language" style="text;strokeColor=none;fillColor=none;align=left;verticalAlign=top;spacingLeft=4;spacingRight=4;overflow=hidden;rotatable=0;points=[[0,0.5],[1,0.5]];portConstraint=eastwest;whiteSpace=wrap;html=1;" parent="zeM_nxSK7-3mKOWZnppf-84" vertex="1">
          <mxGeometry y="78" width="260" height="26" as="geometry" />
        </mxCell>
        <mxCell id="zeM_nxSK7-3mKOWZnppf-94" value="targetLanguage: Language" style="text;strokeColor=none;fillColor=none;align=left;verticalAlign=top;spacingLeft=4;spacingRight=4;overflow=hidden;rotatable=0;points=[[0,0.5],[1,0.5]];portConstraint=eastwest;whiteSpace=wrap;html=1;" parent="zeM_nxSK7-3mKOWZnppf-84" vertex="1">
          <mxGeometry y="104" width="260" height="26" as="geometry" />
        </mxCell>
        <mxCell id="zeM_nxSK7-3mKOWZnppf-95" value="paragraphsList: List&amp;lt;TranslationItem&amp;gt;" style="text;strokeColor=none;fillColor=none;align=left;verticalAlign=top;spacingLeft=4;spacingRight=4;overflow=hidden;rotatable=0;points=[[0,0.5],[1,0.5]];portConstraint=eastwest;whiteSpace=wrap;html=1;" parent="zeM_nxSK7-3mKOWZnppf-84" vertex="1">
          <mxGeometry y="130" width="260" height="26" as="geometry" />
        </mxCell>
        <mxCell id="zeM_nxSK7-3mKOWZnppf-86" value="" style="line;strokeWidth=1;fillColor=none;align=left;verticalAlign=middle;spacingTop=-1;spacingLeft=3;spacingRight=3;rotatable=0;labelPosition=right;points=[];portConstraint=eastwest;strokeColor=inherit;" parent="zeM_nxSK7-3mKOWZnppf-84" vertex="1">
          <mxGeometry y="156" width="260" height="8" as="geometry" />
        </mxCell>
        <mxCell id="zeM_nxSK7-3mKOWZnppf-92" value="TranslateParagraph(TranslationItem): void" style="text;strokeColor=none;fillColor=none;align=left;verticalAlign=top;spacingLeft=4;spacingRight=4;overflow=hidden;rotatable=0;points=[[0,0.5],[1,0.5]];portConstraint=eastwest;whiteSpace=wrap;html=1;" parent="zeM_nxSK7-3mKOWZnppf-84" vertex="1">
          <mxGeometry y="164" width="260" height="26" as="geometry" />
        </mxCell>
        <mxCell id="zeM_nxSK7-3mKOWZnppf-93" value="SaveFile(): void" style="text;strokeColor=none;fillColor=none;align=left;verticalAlign=top;spacingLeft=4;spacingRight=4;overflow=hidden;rotatable=0;points=[[0,0.5],[1,0.5]];portConstraint=eastwest;whiteSpace=wrap;html=1;" parent="zeM_nxSK7-3mKOWZnppf-84" vertex="1">
          <mxGeometry y="190" width="260" height="26" as="geometry" />
        </mxCell>
        <mxCell id="NzcH6q662TKNeG9FKmlv-18" value="&lt;p style=&quot;margin:0px;margin-top:4px;text-align:center;&quot;&gt;&lt;i&gt;&amp;lt;&amp;lt;Interface&amp;gt;&amp;gt;&lt;/i&gt;&lt;br&gt;&lt;b&gt;ParagraphManage&lt;/b&gt;&lt;/p&gt;&lt;hr size=&quot;1&quot;&gt;&lt;p style=&quot;margin:0px;margin-left:4px;&quot;&gt;&lt;span style=&quot;background-color: initial;&quot;&gt;DivideParagraph(String): Sentence[]&lt;/span&gt;&lt;br&gt;&lt;/p&gt;&lt;p style=&quot;margin:0px;margin-left:4px;&quot;&gt;&lt;span style=&quot;background-color: initial;&quot;&gt;MergeParagraph(TranslationFile): String&lt;/span&gt;&lt;/p&gt;" style="verticalAlign=top;align=left;overflow=fill;fontSize=12;fontFamily=Helvetica;html=1;whiteSpace=wrap;" parent="NzcH6q662TKNeG9FKmlv-37" vertex="1">
          <mxGeometry x="97.5" y="140" width="225" height="140" as="geometry" />
        </mxCell>
        <mxCell id="NzcH6q662TKNeG9FKmlv-19" value="&lt;p style=&quot;margin:0px;margin-top:4px;text-align:center;&quot;&gt;&lt;i&gt;&amp;lt;&amp;lt;Interface&amp;gt;&amp;gt;&lt;/i&gt;&lt;br&gt;&lt;b&gt;FileManage&lt;/b&gt;&lt;/p&gt;&lt;hr size=&quot;1&quot;&gt;&lt;p style=&quot;margin:0px;margin-left:4px;&quot;&gt;&lt;span style=&quot;background-color: initial;&quot;&gt;ReadFile(File): TranslationFile&lt;/span&gt;&lt;br&gt;&lt;/p&gt;&lt;p style=&quot;margin:0px;margin-left:4px;&quot;&gt;SaveFile(TranslationFile): void&lt;/p&gt;&lt;p style=&quot;margin:0px;margin-left:4px;&quot;&gt;DeriveFile(TranslationFile): void&lt;/p&gt;&lt;p style=&quot;margin:0px;margin-left:4px;&quot;&gt;SetUpFile(TranslatioinFile): void&lt;/p&gt;&lt;p style=&quot;margin:0px;margin-left:4px;&quot;&gt;TranslateParagraph(TranslationItem): void&lt;/p&gt;" style="verticalAlign=top;align=left;overflow=fill;fontSize=12;fontFamily=Helvetica;html=1;whiteSpace=wrap;" parent="NzcH6q662TKNeG9FKmlv-37" vertex="1">
          <mxGeometry x="417.5" y="140" width="245" height="140" as="geometry" />
        </mxCell>
        <mxCell id="NzcH6q662TKNeG9FKmlv-22" value="TranslationFileManager" style="swimlane;fontStyle=1;align=center;verticalAlign=top;childLayout=stackLayout;horizontal=1;startSize=26;horizontalStack=0;resizeParent=1;resizeParentMax=0;resizeLast=0;collapsible=1;marginBottom=0;whiteSpace=wrap;html=1;" parent="NzcH6q662TKNeG9FKmlv-37" vertex="1">
          <mxGeometry x="410" y="350" width="260" height="216" as="geometry" />
        </mxCell>
        <mxCell id="NzcH6q662TKNeG9FKmlv-24" value="" style="line;strokeWidth=1;fillColor=none;align=left;verticalAlign=middle;spacingTop=-1;spacingLeft=3;spacingRight=3;rotatable=0;labelPosition=right;points=[];portConstraint=eastwest;strokeColor=inherit;" parent="NzcH6q662TKNeG9FKmlv-22" vertex="1">
          <mxGeometry y="26" width="260" height="8" as="geometry" />
        </mxCell>
        <mxCell id="NzcH6q662TKNeG9FKmlv-25" value="ReadFile(File): TranslationFile" style="text;strokeColor=none;fillColor=none;align=left;verticalAlign=top;spacingLeft=4;spacingRight=4;overflow=hidden;rotatable=0;points=[[0,0.5],[1,0.5]];portConstraint=eastwest;whiteSpace=wrap;html=1;" parent="NzcH6q662TKNeG9FKmlv-22" vertex="1">
          <mxGeometry y="34" width="260" height="26" as="geometry" />
        </mxCell>
        <mxCell id="NzcH6q662TKNeG9FKmlv-26" value="SaveFile(TranslationFile): void" style="text;strokeColor=none;fillColor=none;align=left;verticalAlign=top;spacingLeft=4;spacingRight=4;overflow=hidden;rotatable=0;points=[[0,0.5],[1,0.5]];portConstraint=eastwest;whiteSpace=wrap;html=1;" parent="NzcH6q662TKNeG9FKmlv-22" vertex="1">
          <mxGeometry y="60" width="260" height="26" as="geometry" />
        </mxCell>
        <mxCell id="NzcH6q662TKNeG9FKmlv-27" value="DeriveFile(TranslationFile): void" style="text;strokeColor=none;fillColor=none;align=left;verticalAlign=top;spacingLeft=4;spacingRight=4;overflow=hidden;rotatable=0;points=[[0,0.5],[1,0.5]];portConstraint=eastwest;whiteSpace=wrap;html=1;" parent="NzcH6q662TKNeG9FKmlv-22" vertex="1">
          <mxGeometry y="86" width="260" height="26" as="geometry" />
        </mxCell>
        <mxCell id="NzcH6q662TKNeG9FKmlv-28" value="SetUpFile(TranslatioinFile): void" style="text;strokeColor=none;fillColor=none;align=left;verticalAlign=top;spacingLeft=4;spacingRight=4;overflow=hidden;rotatable=0;points=[[0,0.5],[1,0.5]];portConstraint=eastwest;whiteSpace=wrap;html=1;" parent="NzcH6q662TKNeG9FKmlv-22" vertex="1">
          <mxGeometry y="112" width="260" height="26" as="geometry" />
        </mxCell>
        <mxCell id="NzcH6q662TKNeG9FKmlv-29" value="TranslateParagraph(TranslationItem): void" style="text;strokeColor=none;fillColor=none;align=left;verticalAlign=top;spacingLeft=4;spacingRight=4;overflow=hidden;rotatable=0;points=[[0,0.5],[1,0.5]];portConstraint=eastwest;whiteSpace=wrap;html=1;" parent="NzcH6q662TKNeG9FKmlv-22" vertex="1">
          <mxGeometry y="138" width="260" height="26" as="geometry" />
        </mxCell>
        <mxCell id="NzcH6q662TKNeG9FKmlv-31" value="DivideParagraph(String): Sentence[]" style="text;strokeColor=none;fillColor=none;align=left;verticalAlign=top;spacingLeft=4;spacingRight=4;overflow=hidden;rotatable=0;points=[[0,0.5],[1,0.5]];portConstraint=eastwest;whiteSpace=wrap;html=1;" parent="NzcH6q662TKNeG9FKmlv-22" vertex="1">
          <mxGeometry y="164" width="260" height="26" as="geometry" />
        </mxCell>
        <mxCell id="NzcH6q662TKNeG9FKmlv-32" value="MergeParagraph(TranslationFile): String" style="text;strokeColor=none;fillColor=none;align=left;verticalAlign=top;spacingLeft=4;spacingRight=4;overflow=hidden;rotatable=0;points=[[0,0.5],[1,0.5]];portConstraint=eastwest;whiteSpace=wrap;html=1;" parent="NzcH6q662TKNeG9FKmlv-22" vertex="1">
          <mxGeometry y="190" width="260" height="26" as="geometry" />
        </mxCell>
        <mxCell id="NzcH6q662TKNeG9FKmlv-33" value="" style="endArrow=block;dashed=1;endFill=0;endSize=12;html=1;rounded=0;exitX=0.5;exitY=0;exitDx=0;exitDy=0;entryX=0.5;entryY=1;entryDx=0;entryDy=0;" parent="NzcH6q662TKNeG9FKmlv-37" source="NzcH6q662TKNeG9FKmlv-22" target="NzcH6q662TKNeG9FKmlv-19" edge="1">
          <mxGeometry width="160" relative="1" as="geometry">
            <mxPoint x="760" y="320" as="sourcePoint" />
            <mxPoint x="920" y="320" as="targetPoint" />
          </mxGeometry>
        </mxCell>
        <mxCell id="NzcH6q662TKNeG9FKmlv-34" value="" style="endArrow=block;dashed=1;endFill=0;endSize=12;html=1;rounded=0;exitX=0.25;exitY=0;exitDx=0;exitDy=0;entryX=0.5;entryY=1;entryDx=0;entryDy=0;" parent="NzcH6q662TKNeG9FKmlv-37" source="NzcH6q662TKNeG9FKmlv-22" target="NzcH6q662TKNeG9FKmlv-18" edge="1">
          <mxGeometry width="160" relative="1" as="geometry">
            <mxPoint x="750" y="310" as="sourcePoint" />
            <mxPoint x="910" y="310" as="targetPoint" />
            <Array as="points">
              <mxPoint x="475" y="320" />
              <mxPoint x="210" y="320" />
            </Array>
          </mxGeometry>
        </mxCell>
        <mxCell id="NzcH6q662TKNeG9FKmlv-50" value="" style="group" parent="WIyWlLk6GJQsqaUBKTNV-1" vertex="1" connectable="0">
          <mxGeometry x="1630" y="-330" width="820" height="650" as="geometry" />
        </mxCell>
        <mxCell id="NzcH6q662TKNeG9FKmlv-48" value="" style="shape=folder;fontStyle=1;spacingTop=10;tabWidth=40;tabHeight=14;tabPosition=left;html=1;whiteSpace=wrap;" parent="NzcH6q662TKNeG9FKmlv-50" vertex="1">
          <mxGeometry width="820" height="650" as="geometry" />
        </mxCell>
        <mxCell id="NzcH6q662TKNeG9FKmlv-49" value="ProjectSystem" style="text;align=center;fontStyle=1;verticalAlign=middle;spacingLeft=3;spacingRight=3;strokeColor=none;rotatable=0;points=[[0,0.5],[1,0.5]];portConstraint=eastwest;html=1;" parent="NzcH6q662TKNeG9FKmlv-50" vertex="1">
          <mxGeometry x="360" y="40" width="100" height="26" as="geometry" />
        </mxCell>
        <mxCell id="zeM_nxSK7-3mKOWZnppf-5" value="CAT_Project" style="swimlane;fontStyle=1;align=center;verticalAlign=top;childLayout=stackLayout;horizontal=1;startSize=26;horizontalStack=0;resizeParent=1;resizeParentMax=0;resizeLast=0;collapsible=1;marginBottom=0;whiteSpace=wrap;html=1;" parent="NzcH6q662TKNeG9FKmlv-50" vertex="1">
          <mxGeometry x="57" y="167" width="310" height="372" as="geometry">
            <mxRectangle x="105" y="72" width="110" height="30" as="alternateBounds" />
          </mxGeometry>
        </mxCell>
        <mxCell id="zeM_nxSK7-3mKOWZnppf-32" value="name: String" style="text;strokeColor=none;fillColor=none;align=left;verticalAlign=top;spacingLeft=4;spacingRight=4;overflow=hidden;rotatable=0;points=[[0,0.5],[1,0.5]];portConstraint=eastwest;whiteSpace=wrap;html=1;" parent="zeM_nxSK7-3mKOWZnppf-5" vertex="1">
          <mxGeometry y="26" width="310" height="26" as="geometry" />
        </mxCell>
        <mxCell id="zeM_nxSK7-3mKOWZnppf-41" value="save: String" style="text;strokeColor=none;fillColor=none;align=left;verticalAlign=top;spacingLeft=4;spacingRight=4;overflow=hidden;rotatable=0;points=[[0,0.5],[1,0.5]];portConstraint=eastwest;whiteSpace=wrap;html=1;" parent="zeM_nxSK7-3mKOWZnppf-5" vertex="1">
          <mxGeometry y="52" width="310" height="26" as="geometry" />
        </mxCell>
        <mxCell id="zeM_nxSK7-3mKOWZnppf-61" value="originLanguage: Language" style="text;strokeColor=none;fillColor=none;align=left;verticalAlign=top;spacingLeft=4;spacingRight=4;overflow=hidden;rotatable=0;points=[[0,0.5],[1,0.5]];portConstraint=eastwest;whiteSpace=wrap;html=1;" parent="zeM_nxSK7-3mKOWZnppf-5" vertex="1">
          <mxGeometry y="78" width="310" height="26" as="geometry" />
        </mxCell>
        <mxCell id="zeM_nxSK7-3mKOWZnppf-62" value="targetLanguage: Language" style="text;strokeColor=none;fillColor=none;align=left;verticalAlign=top;spacingLeft=4;spacingRight=4;overflow=hidden;rotatable=0;points=[[0,0.5],[1,0.5]];portConstraint=eastwest;whiteSpace=wrap;html=1;" parent="zeM_nxSK7-3mKOWZnppf-5" vertex="1">
          <mxGeometry y="104" width="310" height="26" as="geometry" />
        </mxCell>
        <mxCell id="zeM_nxSK7-3mKOWZnppf-6" value="memoryLib: MemoryLibrary" style="text;strokeColor=none;fillColor=none;align=left;verticalAlign=top;spacingLeft=4;spacingRight=4;overflow=hidden;rotatable=0;points=[[0,0.5],[1,0.5]];portConstraint=eastwest;whiteSpace=wrap;html=1;" parent="zeM_nxSK7-3mKOWZnppf-5" vertex="1">
          <mxGeometry y="130" width="310" height="26" as="geometry" />
        </mxCell>
        <mxCell id="zeM_nxSK7-3mKOWZnppf-21" value="termLibs: List&amp;lt;TermLibrary&amp;gt;" style="text;strokeColor=none;fillColor=none;align=left;verticalAlign=top;spacingLeft=4;spacingRight=4;overflow=hidden;rotatable=0;points=[[0,0.5],[1,0.5]];portConstraint=eastwest;whiteSpace=wrap;html=1;" parent="zeM_nxSK7-3mKOWZnppf-5" vertex="1">
          <mxGeometry y="156" width="310" height="26" as="geometry" />
        </mxCell>
        <mxCell id="zeM_nxSK7-3mKOWZnppf-103" value="translationFiles: List&amp;lt;TranslationFile&amp;gt;" style="text;strokeColor=none;fillColor=none;align=left;verticalAlign=top;spacingLeft=4;spacingRight=4;overflow=hidden;rotatable=0;points=[[0,0.5],[1,0.5]];portConstraint=eastwest;whiteSpace=wrap;html=1;" parent="zeM_nxSK7-3mKOWZnppf-5" vertex="1">
          <mxGeometry y="182" width="310" height="26" as="geometry" />
        </mxCell>
        <mxCell id="zeM_nxSK7-3mKOWZnppf-7" value="" style="line;strokeWidth=1;fillColor=none;align=left;verticalAlign=middle;spacingTop=-1;spacingLeft=3;spacingRight=3;rotatable=0;labelPosition=right;points=[];portConstraint=eastwest;strokeColor=inherit;" parent="zeM_nxSK7-3mKOWZnppf-5" vertex="1">
          <mxGeometry y="208" width="310" height="8" as="geometry" />
        </mxCell>
        <mxCell id="zeM_nxSK7-3mKOWZnppf-8" value="Save(): void" style="text;strokeColor=none;fillColor=none;align=left;verticalAlign=top;spacingLeft=4;spacingRight=4;overflow=hidden;rotatable=0;points=[[0,0.5],[1,0.5]];portConstraint=eastwest;whiteSpace=wrap;html=1;" parent="zeM_nxSK7-3mKOWZnppf-5" vertex="1">
          <mxGeometry y="216" width="310" height="26" as="geometry" />
        </mxCell>
        <mxCell id="zeM_nxSK7-3mKOWZnppf-105" value="SetMemoryLibrary(MemoryLibrary): void" style="text;strokeColor=none;fillColor=none;align=left;verticalAlign=top;spacingLeft=4;spacingRight=4;overflow=hidden;rotatable=0;points=[[0,0.5],[1,0.5]];portConstraint=eastwest;whiteSpace=wrap;html=1;" parent="zeM_nxSK7-3mKOWZnppf-5" vertex="1">
          <mxGeometry y="242" width="310" height="26" as="geometry" />
        </mxCell>
        <mxCell id="zeM_nxSK7-3mKOWZnppf-106" value="AddTermLibrary(TermLibrary): void" style="text;strokeColor=none;fillColor=none;align=left;verticalAlign=top;spacingLeft=4;spacingRight=4;overflow=hidden;rotatable=0;points=[[0,0.5],[1,0.5]];portConstraint=eastwest;whiteSpace=wrap;html=1;" parent="zeM_nxSK7-3mKOWZnppf-5" vertex="1">
          <mxGeometry y="268" width="310" height="26" as="geometry" />
        </mxCell>
        <mxCell id="zeM_nxSK7-3mKOWZnppf-107" value="RemoveTermLibrary(TermLibrary): void" style="text;strokeColor=none;fillColor=none;align=left;verticalAlign=top;spacingLeft=4;spacingRight=4;overflow=hidden;rotatable=0;points=[[0,0.5],[1,0.5]];portConstraint=eastwest;whiteSpace=wrap;html=1;" parent="zeM_nxSK7-3mKOWZnppf-5" vertex="1">
          <mxGeometry y="294" width="310" height="26" as="geometry" />
        </mxCell>
        <mxCell id="zeM_nxSK7-3mKOWZnppf-108" value="AddTranslationFile(TranslationFile): void" style="text;strokeColor=none;fillColor=none;align=left;verticalAlign=top;spacingLeft=4;spacingRight=4;overflow=hidden;rotatable=0;points=[[0,0.5],[1,0.5]];portConstraint=eastwest;whiteSpace=wrap;html=1;" parent="zeM_nxSK7-3mKOWZnppf-5" vertex="1">
          <mxGeometry y="320" width="310" height="26" as="geometry" />
        </mxCell>
        <mxCell id="zeM_nxSK7-3mKOWZnppf-109" value="RemoveTranslationFile(TranslationFile): void" style="text;strokeColor=none;fillColor=none;align=left;verticalAlign=top;spacingLeft=4;spacingRight=4;overflow=hidden;rotatable=0;points=[[0,0.5],[1,0.5]];portConstraint=eastwest;whiteSpace=wrap;html=1;" parent="zeM_nxSK7-3mKOWZnppf-5" vertex="1">
          <mxGeometry y="346" width="310" height="26" as="geometry" />
        </mxCell>
        <mxCell id="NzcH6q662TKNeG9FKmlv-39" value="ProjectManager" style="swimlane;fontStyle=1;align=center;verticalAlign=top;childLayout=stackLayout;horizontal=1;startSize=26;horizontalStack=0;resizeParent=1;resizeParentMax=0;resizeLast=0;collapsible=1;marginBottom=0;whiteSpace=wrap;html=1;" parent="NzcH6q662TKNeG9FKmlv-50" vertex="1">
          <mxGeometry x="473" y="159" width="290" height="164" as="geometry" />
        </mxCell>
        <mxCell id="NzcH6q662TKNeG9FKmlv-40" value="projectList: List&amp;lt;CAT_Project&amp;gt;" style="text;strokeColor=none;fillColor=none;align=left;verticalAlign=top;spacingLeft=4;spacingRight=4;overflow=hidden;rotatable=0;points=[[0,0.5],[1,0.5]];portConstraint=eastwest;whiteSpace=wrap;html=1;" parent="NzcH6q662TKNeG9FKmlv-39" vertex="1">
          <mxGeometry y="26" width="290" height="26" as="geometry" />
        </mxCell>
        <mxCell id="NzcH6q662TKNeG9FKmlv-41" value="" style="line;strokeWidth=1;fillColor=none;align=left;verticalAlign=middle;spacingTop=-1;spacingLeft=3;spacingRight=3;rotatable=0;labelPosition=right;points=[];portConstraint=eastwest;strokeColor=inherit;" parent="NzcH6q662TKNeG9FKmlv-39" vertex="1">
          <mxGeometry y="52" width="290" height="8" as="geometry" />
        </mxCell>
        <mxCell id="NzcH6q662TKNeG9FKmlv-42" value="CreateProject(String): void" style="text;strokeColor=none;fillColor=none;align=left;verticalAlign=top;spacingLeft=4;spacingRight=4;overflow=hidden;rotatable=0;points=[[0,0.5],[1,0.5]];portConstraint=eastwest;whiteSpace=wrap;html=1;" parent="NzcH6q662TKNeG9FKmlv-39" vertex="1">
          <mxGeometry y="60" width="290" height="26" as="geometry" />
        </mxCell>
        <mxCell id="NzcH6q662TKNeG9FKmlv-43" value="LoadProject(CAT_Project): void" style="text;strokeColor=none;fillColor=none;align=left;verticalAlign=top;spacingLeft=4;spacingRight=4;overflow=hidden;rotatable=0;points=[[0,0.5],[1,0.5]];portConstraint=eastwest;whiteSpace=wrap;html=1;" parent="NzcH6q662TKNeG9FKmlv-39" vertex="1">
          <mxGeometry y="86" width="290" height="26" as="geometry" />
        </mxCell>
        <mxCell id="NzcH6q662TKNeG9FKmlv-44" value="SaveProject(CAT_Project): void" style="text;strokeColor=none;fillColor=none;align=left;verticalAlign=top;spacingLeft=4;spacingRight=4;overflow=hidden;rotatable=0;points=[[0,0.5],[1,0.5]];portConstraint=eastwest;whiteSpace=wrap;html=1;" parent="NzcH6q662TKNeG9FKmlv-39" vertex="1">
          <mxGeometry y="112" width="290" height="26" as="geometry" />
        </mxCell>
        <mxCell id="NzcH6q662TKNeG9FKmlv-45" value="TranslateFile(TranslationFile): void" style="text;strokeColor=none;fillColor=none;align=left;verticalAlign=top;spacingLeft=4;spacingRight=4;overflow=hidden;rotatable=0;points=[[0,0.5],[1,0.5]];portConstraint=eastwest;whiteSpace=wrap;html=1;" parent="NzcH6q662TKNeG9FKmlv-39" vertex="1">
          <mxGeometry y="138" width="290" height="26" as="geometry" />
        </mxCell>
        <mxCell id="NzcH6q662TKNeG9FKmlv-38" value="&lt;p style=&quot;margin:0px;margin-top:4px;text-align:center;&quot;&gt;&lt;i&gt;&amp;lt;&amp;lt;Interface&amp;gt;&amp;gt;&lt;/i&gt;&lt;br&gt;&lt;b&gt;ProjectManage&lt;/b&gt;&lt;/p&gt;&lt;hr size=&quot;1&quot;&gt;&lt;p style=&quot;margin:0px;margin-left:4px;&quot;&gt;CreateProject(String): void&lt;/p&gt;&lt;p style=&quot;margin:0px;margin-left:4px;&quot;&gt;LoadProject(CAT_Project): void&lt;/p&gt;&lt;p style=&quot;margin:0px;margin-left:4px;&quot;&gt;SaveProject(CAT_Project): void&lt;/p&gt;&lt;p style=&quot;margin:0px;margin-left:4px;&quot;&gt;TranslateFile(TranslationFile): void&lt;/p&gt;" style="verticalAlign=top;align=left;overflow=fill;fontSize=12;fontFamily=Helvetica;html=1;whiteSpace=wrap;" parent="NzcH6q662TKNeG9FKmlv-50" vertex="1">
          <mxGeometry x="512" y="417" width="210" height="122" as="geometry" />
        </mxCell>
        <mxCell id="NzcH6q662TKNeG9FKmlv-47" value="" style="endArrow=diamondThin;endFill=0;endSize=24;html=1;rounded=0;exitX=1;exitY=0.5;exitDx=0;exitDy=0;entryX=0;entryY=0.5;entryDx=0;entryDy=0;" parent="NzcH6q662TKNeG9FKmlv-50" source="zeM_nxSK7-3mKOWZnppf-61" target="NzcH6q662TKNeG9FKmlv-43" edge="1">
          <mxGeometry width="160" relative="1" as="geometry">
            <mxPoint x="827" y="397" as="sourcePoint" />
            <mxPoint x="987" y="397" as="targetPoint" />
          </mxGeometry>
        </mxCell>
        <mxCell id="NzcH6q662TKNeG9FKmlv-46" value="" style="endArrow=block;dashed=1;endFill=0;endSize=12;html=1;rounded=0;entryX=0.5;entryY=0;entryDx=0;entryDy=0;exitX=0.495;exitY=1.085;exitDx=0;exitDy=0;exitPerimeter=0;" parent="NzcH6q662TKNeG9FKmlv-50" source="NzcH6q662TKNeG9FKmlv-45" target="NzcH6q662TKNeG9FKmlv-38" edge="1">
          <mxGeometry width="160" relative="1" as="geometry">
            <mxPoint x="637" y="367" as="sourcePoint" />
            <mxPoint x="977" y="407" as="targetPoint" />
          </mxGeometry>
        </mxCell>
        <mxCell id="NzcH6q662TKNeG9FKmlv-51" value="&lt;font style=&quot;font-size: 24px;&quot;&gt;&amp;lt;&amp;lt;import&amp;gt;&amp;gt;&lt;/font&gt;" style="endArrow=open;endSize=12;dashed=1;html=1;rounded=0;exitX=0;exitY=0;exitDx=430;exitDy=14;exitPerimeter=0;entryX=0;entryY=0;entryDx=340;entryDy=14;entryPerimeter=0;" parent="WIyWlLk6GJQsqaUBKTNV-1" source="NzcH6q662TKNeG9FKmlv-48" target="-C6FgUDvD7B2DXOm4kBJ-14" edge="1">
          <mxGeometry x="-0.0537" y="-20" width="160" relative="1" as="geometry">
            <mxPoint x="620" y="-390" as="sourcePoint" />
            <mxPoint x="330" y="-540" as="targetPoint" />
            <Array as="points">
              <mxPoint x="2060" y="-440" />
              <mxPoint x="265" y="-440" />
            </Array>
            <mxPoint as="offset" />
          </mxGeometry>
        </mxCell>
        <mxCell id="NzcH6q662TKNeG9FKmlv-52" value="&lt;font style=&quot;font-size: 24px;&quot;&gt;&amp;lt;&amp;lt;import&amp;gt;&amp;gt;&lt;/font&gt;" style="endArrow=open;endSize=12;dashed=1;html=1;rounded=0;exitX=0.75;exitY=1;exitDx=0;exitDy=0;exitPerimeter=0;entryX=0.633;entryY=0.022;entryDx=0;entryDy=0;entryPerimeter=0;" parent="WIyWlLk6GJQsqaUBKTNV-1" source="NzcH6q662TKNeG9FKmlv-48" target="NzcH6q662TKNeG9FKmlv-35" edge="1">
          <mxGeometry x="-0.4375" y="85" width="160" relative="1" as="geometry">
            <mxPoint x="2150" y="400" as="sourcePoint" />
            <mxPoint x="2245" y="550" as="targetPoint" />
            <Array as="points" />
            <mxPoint as="offset" />
          </mxGeometry>
        </mxCell>
        <mxCell id="NzcH6q662TKNeG9FKmlv-53" value="&lt;font style=&quot;font-size: 24px;&quot;&gt;&amp;lt;&amp;lt;import&amp;gt;&amp;gt;&lt;/font&gt;" style="endArrow=open;endSize=12;dashed=1;html=1;rounded=0;exitX=0.5;exitY=1;exitDx=0;exitDy=0;exitPerimeter=0;entryX=0.745;entryY=0.021;entryDx=0;entryDy=0;entryPerimeter=0;" parent="WIyWlLk6GJQsqaUBKTNV-1" source="NzcH6q662TKNeG9FKmlv-48" target="NzcH6q662TKNeG9FKmlv-6" edge="1">
          <mxGeometry x="-0.3773" y="-20" width="160" relative="1" as="geometry">
            <mxPoint x="2160" y="410" as="sourcePoint" />
            <mxPoint x="1950" y="500" as="targetPoint" />
            <Array as="points">
              <mxPoint x="2040" y="440" />
              <mxPoint x="1440" y="440" />
            </Array>
            <mxPoint as="offset" />
          </mxGeometry>
        </mxCell>
        <mxCell id="NzcH6q662TKNeG9FKmlv-54" value="&lt;font style=&quot;font-size: 24px;&quot;&gt;&amp;lt;&amp;lt;import&amp;gt;&amp;gt;&lt;/font&gt;" style="endArrow=open;endSize=12;dashed=1;html=1;rounded=0;exitX=0.25;exitY=1;exitDx=0;exitDy=0;exitPerimeter=0;entryX=0.253;entryY=0.024;entryDx=0;entryDy=0;entryPerimeter=0;" parent="WIyWlLk6GJQsqaUBKTNV-1" source="NzcH6q662TKNeG9FKmlv-48" target="-C6FgUDvD7B2DXOm4kBJ-31" edge="1">
          <mxGeometry x="-0.7021" y="-20" width="160" relative="1" as="geometry">
            <mxPoint x="2170" y="420" as="sourcePoint" />
            <mxPoint x="2330" y="420" as="targetPoint" />
            <Array as="points">
              <mxPoint x="1835" y="370" />
              <mxPoint x="35" y="370" />
            </Array>
            <mxPoint as="offset" />
          </mxGeometry>
        </mxCell>
        <mxCell id="NzcH6q662TKNeG9FKmlv-57" value="&lt;font style=&quot;font-size: 24px;&quot;&gt;&amp;lt;&amp;lt;import&amp;gt;&amp;gt;&lt;/font&gt;" style="endArrow=open;endSize=12;dashed=1;html=1;rounded=0;exitX=0.403;exitY=0.024;exitDx=0;exitDy=0;exitPerimeter=0;entryX=0.75;entryY=1;entryDx=0;entryDy=0;entryPerimeter=0;" parent="WIyWlLk6GJQsqaUBKTNV-1" source="NzcH6q662TKNeG9FKmlv-35" target="-C6FgUDvD7B2DXOm4kBJ-5" edge="1">
          <mxGeometry x="-0.6519" y="30" width="160" relative="1" as="geometry">
            <mxPoint x="2190" y="440" as="sourcePoint" />
            <mxPoint x="2350" y="440" as="targetPoint" />
            <Array as="points">
              <mxPoint x="2072" y="500" />
              <mxPoint x="1260" y="500" />
            </Array>
            <mxPoint as="offset" />
          </mxGeometry>
        </mxCell>
        <mxCell id="NzcH6q662TKNeG9FKmlv-58" value="&lt;font style=&quot;font-size: 24px;&quot;&gt;&amp;lt;&amp;lt;import&amp;gt;&amp;gt;&lt;/font&gt;" style="endArrow=open;endSize=12;dashed=1;html=1;rounded=0;entryX=0.5;entryY=1;entryDx=0;entryDy=0;entryPerimeter=0;exitX=0.367;exitY=0.022;exitDx=0;exitDy=0;exitPerimeter=0;" parent="WIyWlLk6GJQsqaUBKTNV-1" source="NzcH6q662TKNeG9FKmlv-6" target="-C6FgUDvD7B2DXOm4kBJ-5" edge="1">
          <mxGeometry x="-0.6902" y="70" width="160" relative="1" as="geometry">
            <mxPoint x="1100" y="550" as="sourcePoint" />
            <mxPoint x="2360" y="450" as="targetPoint" />
            <Array as="points" />
            <mxPoint as="offset" />
          </mxGeometry>
        </mxCell>
        <mxCell id="NzcH6q662TKNeG9FKmlv-59" value="&lt;font style=&quot;font-size: 24px;&quot;&gt;&amp;lt;&amp;lt;import&amp;gt;&amp;gt;&lt;/font&gt;" style="endArrow=open;endSize=12;dashed=1;html=1;rounded=0;exitX=0.712;exitY=0.018;exitDx=0;exitDy=0;exitPerimeter=0;entryX=0.25;entryY=1;entryDx=0;entryDy=0;entryPerimeter=0;" parent="WIyWlLk6GJQsqaUBKTNV-1" source="-C6FgUDvD7B2DXOm4kBJ-31" target="-C6FgUDvD7B2DXOm4kBJ-5" edge="1">
          <mxGeometry x="-0.5143" y="-30" width="160" relative="1" as="geometry">
            <mxPoint x="2210" y="460" as="sourcePoint" />
            <mxPoint x="2370" y="460" as="targetPoint" />
            <Array as="points">
              <mxPoint x="425" y="440" />
              <mxPoint x="940" y="440" />
            </Array>
            <mxPoint as="offset" />
          </mxGeometry>
        </mxCell>
        <mxCell id="3WQLVTn9LUs9zkxESnfN-0" value="" style="group" vertex="1" connectable="0" parent="WIyWlLk6GJQsqaUBKTNV-1">
          <mxGeometry x="770" y="541" width="900" height="670" as="geometry" />
        </mxCell>
        <mxCell id="NzcH6q662TKNeG9FKmlv-8" value="" style="group" parent="3WQLVTn9LUs9zkxESnfN-0" vertex="1" connectable="0">
          <mxGeometry width="900" height="670" as="geometry" />
        </mxCell>
        <mxCell id="NzcH6q662TKNeG9FKmlv-6" value="" style="shape=folder;fontStyle=1;spacingTop=10;tabWidth=40;tabHeight=14;tabPosition=left;html=1;whiteSpace=wrap;" parent="NzcH6q662TKNeG9FKmlv-8" vertex="1">
          <mxGeometry width="900" height="670" as="geometry" />
        </mxCell>
        <mxCell id="NzcH6q662TKNeG9FKmlv-7" value="MemoryLibrarySystem" style="text;align=center;fontStyle=1;verticalAlign=middle;spacingLeft=3;spacingRight=3;strokeColor=none;rotatable=0;points=[[0,0.5],[1,0.5]];portConstraint=eastwest;html=1;" parent="NzcH6q662TKNeG9FKmlv-8" vertex="1">
          <mxGeometry x="375" y="32" width="150" height="26" as="geometry" />
        </mxCell>
        <mxCell id="NzcH6q662TKNeG9FKmlv-1" value="MemoryLibraryManager" style="swimlane;fontStyle=1;align=center;verticalAlign=top;childLayout=stackLayout;horizontal=1;startSize=26;horizontalStack=0;resizeParent=1;resizeParentMax=0;resizeLast=0;collapsible=1;marginBottom=0;whiteSpace=wrap;html=1;" parent="NzcH6q662TKNeG9FKmlv-8" vertex="1">
          <mxGeometry x="40" y="434" width="370" height="190" as="geometry" />
        </mxCell>
        <mxCell id="NzcH6q662TKNeG9FKmlv-2" value="memoryLibraryList: List&amp;lt;MemoryLibrary&amp;gt;" style="text;strokeColor=none;fillColor=none;align=left;verticalAlign=top;spacingLeft=4;spacingRight=4;overflow=hidden;rotatable=0;points=[[0,0.5],[1,0.5]];portConstraint=eastwest;whiteSpace=wrap;html=1;" parent="NzcH6q662TKNeG9FKmlv-1" vertex="1">
          <mxGeometry y="26" width="370" height="26" as="geometry" />
        </mxCell>
        <mxCell id="NzcH6q662TKNeG9FKmlv-3" value="" style="line;strokeWidth=1;fillColor=none;align=left;verticalAlign=middle;spacingTop=-1;spacingLeft=3;spacingRight=3;rotatable=0;labelPosition=right;points=[];portConstraint=eastwest;strokeColor=inherit;" parent="NzcH6q662TKNeG9FKmlv-1" vertex="1">
          <mxGeometry y="52" width="370" height="8" as="geometry" />
        </mxCell>
        <mxCell id="NzcH6q662TKNeG9FKmlv-4" value="MatchItem(Sentence): String" style="text;strokeColor=none;fillColor=none;align=left;verticalAlign=top;spacingLeft=4;spacingRight=4;overflow=hidden;rotatable=0;points=[[0,0.5],[1,0.5]];portConstraint=eastwest;whiteSpace=wrap;html=1;" parent="NzcH6q662TKNeG9FKmlv-1" vertex="1">
          <mxGeometry y="60" width="370" height="26" as="geometry" />
        </mxCell>
        <mxCell id="zeM_nxSK7-3mKOWZnppf-57" value="CreateMemoryLibrary(String): void" style="text;strokeColor=none;fillColor=none;align=left;verticalAlign=top;spacingLeft=4;spacingRight=4;overflow=hidden;rotatable=0;points=[[0,0.5],[1,0.5]];portConstraint=eastwest;whiteSpace=wrap;html=1;" parent="NzcH6q662TKNeG9FKmlv-1" vertex="1">
          <mxGeometry y="86" width="370" height="26" as="geometry" />
        </mxCell>
        <mxCell id="qHWje5tGmeJujsNca_SK-2" value="SaveLibrary(MemoryLibrary): void" style="text;strokeColor=none;fillColor=none;align=left;verticalAlign=top;spacingLeft=4;spacingRight=4;overflow=hidden;rotatable=0;points=[[0,0.5],[1,0.5]];portConstraint=eastwest;whiteSpace=wrap;html=1;" parent="NzcH6q662TKNeG9FKmlv-1" vertex="1">
          <mxGeometry y="112" width="370" height="26" as="geometry" />
        </mxCell>
        <mxCell id="zeM_nxSK7-3mKOWZnppf-59" value="&lt;p style=&quot;border-color: var(--border-color); margin: 0px 0px 0px 4px;&quot;&gt;LoadLibrary(String): void&lt;/p&gt;" style="text;strokeColor=none;fillColor=none;align=left;verticalAlign=top;spacingLeft=4;spacingRight=4;overflow=hidden;rotatable=0;points=[[0,0.5],[1,0.5]];portConstraint=eastwest;whiteSpace=wrap;html=1;" parent="NzcH6q662TKNeG9FKmlv-1" vertex="1">
          <mxGeometry y="138" width="370" height="26" as="geometry" />
        </mxCell>
        <mxCell id="zeM_nxSK7-3mKOWZnppf-58" value="GetMemoryLibrary(String): MemoryLibrary" style="text;strokeColor=none;fillColor=none;align=left;verticalAlign=top;spacingLeft=4;spacingRight=4;overflow=hidden;rotatable=0;points=[[0,0.5],[1,0.5]];portConstraint=eastwest;whiteSpace=wrap;html=1;" parent="NzcH6q662TKNeG9FKmlv-1" vertex="1">
          <mxGeometry y="164" width="370" height="26" as="geometry" />
        </mxCell>
        <mxCell id="NzcH6q662TKNeG9FKmlv-10" value="" style="endArrow=block;dashed=1;endFill=0;endSize=12;html=1;rounded=0;exitX=1;exitY=0.5;exitDx=0;exitDy=0;entryX=0;entryY=0.5;entryDx=0;entryDy=0;" parent="NzcH6q662TKNeG9FKmlv-8" source="zeM_nxSK7-3mKOWZnppf-57" target="-C6FgUDvD7B2DXOm4kBJ-46" edge="1">
          <mxGeometry width="160" relative="1" as="geometry">
            <mxPoint x="460" y="656" as="sourcePoint" />
            <mxPoint x="620" y="656" as="targetPoint" />
          </mxGeometry>
        </mxCell>
        <mxCell id="-C6FgUDvD7B2DXOm4kBJ-46" value="&lt;p style=&quot;margin:0px;margin-top:4px;text-align:center;&quot;&gt;&lt;i&gt;&amp;lt;&amp;lt;Interface&amp;gt;&amp;gt;&lt;/i&gt;&lt;br&gt;&lt;b&gt;MemoryLibraryManage&lt;/b&gt;&lt;/p&gt;&lt;hr size=&quot;1&quot;&gt;&lt;p style=&quot;margin:0px;margin-left:4px;&quot;&gt;&lt;span style=&quot;background-color: initial;&quot;&gt;MatchItem(Sentence): String&lt;/span&gt;&lt;/p&gt;&lt;p style=&quot;margin:0px;margin-left:4px;&quot;&gt;CreateMemoryLibrary(String): void&lt;/p&gt;&lt;p style=&quot;margin:0px;margin-left:4px;&quot;&gt;SaveLibrary(MemoryLibrary): void&lt;/p&gt;&lt;p style=&quot;margin:0px;margin-left:4px;&quot;&gt;LoadLibrary(String): void&lt;/p&gt;&lt;p style=&quot;margin:0px;margin-left:4px;&quot;&gt;GetMemoryLibrary(String): MemoryLibrary&lt;/p&gt;" style="verticalAlign=top;align=left;overflow=fill;fontSize=12;fontFamily=Helvetica;html=1;whiteSpace=wrap;" parent="NzcH6q662TKNeG9FKmlv-8" vertex="1">
          <mxGeometry x="525" y="463" width="290" height="140" as="geometry" />
        </mxCell>
        <mxCell id="NzcH6q662TKNeG9FKmlv-9" value="" style="endArrow=block;dashed=1;endFill=0;endSize=12;html=1;rounded=0;exitX=1;exitY=0.5;exitDx=0;exitDy=0;entryX=0;entryY=0.5;entryDx=0;entryDy=0;" parent="3WQLVTn9LUs9zkxESnfN-0" source="KJP5NTa4Woh17mYjRlvN-1" target="-C6FgUDvD7B2DXOm4kBJ-44" edge="1">
          <mxGeometry width="160" relative="1" as="geometry">
            <mxPoint x="1140" y="551" as="sourcePoint" />
            <mxPoint x="1300" y="551" as="targetPoint" />
          </mxGeometry>
        </mxCell>
        <mxCell id="-C6FgUDvD7B2DXOm4kBJ-44" value="&lt;p style=&quot;margin:0px;margin-top:4px;text-align:center;&quot;&gt;&lt;i&gt;&amp;lt;&amp;lt;Interface&amp;gt;&amp;gt;&lt;/i&gt;&lt;br&gt;&lt;b&gt;MemoryLibraryAttribute&lt;/b&gt;&lt;/p&gt;&lt;hr size=&quot;1&quot;&gt;&lt;p style=&quot;margin:0px;margin-left:4px;&quot;&gt;&lt;span style=&quot;background-color: initial;&quot;&gt;RemoveItem(TranslationItem): void&lt;/span&gt;&lt;br&gt;&lt;/p&gt;&lt;p style=&quot;margin:0px;margin-left:4px;&quot;&gt;AddItem(TranslationIten): void&lt;/p&gt;&lt;p style=&quot;margin:0px;margin-left:4px;&quot;&gt;EditItem(TranslationItem): void&lt;/p&gt;&lt;p style=&quot;border-color: var(--border-color); margin: 0px 0px 0px 4px;&quot;&gt;SerchItemByOrigin(MemoryLibrary,String): TranslationItem&lt;/p&gt;&lt;p style=&quot;border-color: var(--border-color); margin: 0px 0px 0px 4px;&quot;&gt;SerchItemByTranslation(MemoryLibrary,String): TranslationItem&lt;/p&gt;&lt;p style=&quot;border-color: var(--border-color); margin: 0px 0px 0px 4px;&quot;&gt;MatchItem(MemoryLibrary,Sentence): String&lt;/p&gt;" style="verticalAlign=top;align=left;overflow=fill;fontSize=12;fontFamily=Helvetica;html=1;whiteSpace=wrap;" parent="3WQLVTn9LUs9zkxESnfN-0" vertex="1">
          <mxGeometry x="480" y="197" width="380" height="140" as="geometry" />
        </mxCell>
        <mxCell id="zeM_nxSK7-3mKOWZnppf-12" value="MemoryLibrary" style="swimlane;fontStyle=1;align=center;verticalAlign=top;childLayout=stackLayout;horizontal=1;startSize=26;horizontalStack=0;resizeParent=1;resizeParentMax=0;resizeLast=0;collapsible=1;marginBottom=0;whiteSpace=wrap;html=1;" parent="3WQLVTn9LUs9zkxESnfN-0" vertex="1">
          <mxGeometry x="40" y="114" width="370" height="270" as="geometry" />
        </mxCell>
        <mxCell id="zeM_nxSK7-3mKOWZnppf-13" value="name: String" style="text;strokeColor=none;fillColor=none;align=left;verticalAlign=top;spacingLeft=4;spacingRight=4;overflow=hidden;rotatable=0;points=[[0,0.5],[1,0.5]];portConstraint=eastwest;whiteSpace=wrap;html=1;" parent="zeM_nxSK7-3mKOWZnppf-12" vertex="1">
          <mxGeometry y="26" width="370" height="26" as="geometry" />
        </mxCell>
        <mxCell id="zeM_nxSK7-3mKOWZnppf-81" value="save: String" style="text;strokeColor=none;fillColor=none;align=left;verticalAlign=top;spacingLeft=4;spacingRight=4;overflow=hidden;rotatable=0;points=[[0,0.5],[1,0.5]];portConstraint=eastwest;whiteSpace=wrap;html=1;" parent="zeM_nxSK7-3mKOWZnppf-12" vertex="1">
          <mxGeometry y="52" width="370" height="26" as="geometry" />
        </mxCell>
        <mxCell id="zeM_nxSK7-3mKOWZnppf-43" value="itemsList: List&amp;lt;TranslationItem&amp;gt;" style="text;strokeColor=none;fillColor=none;align=left;verticalAlign=top;spacingLeft=4;spacingRight=4;overflow=hidden;rotatable=0;points=[[0,0.5],[1,0.5]];portConstraint=eastwest;whiteSpace=wrap;html=1;" parent="zeM_nxSK7-3mKOWZnppf-12" vertex="1">
          <mxGeometry y="78" width="370" height="28" as="geometry" />
        </mxCell>
        <mxCell id="zeM_nxSK7-3mKOWZnppf-14" value="" style="line;strokeWidth=1;fillColor=none;align=left;verticalAlign=middle;spacingTop=-1;spacingLeft=3;spacingRight=3;rotatable=0;labelPosition=right;points=[];portConstraint=eastwest;strokeColor=inherit;" parent="zeM_nxSK7-3mKOWZnppf-12" vertex="1">
          <mxGeometry y="106" width="370" height="8" as="geometry" />
        </mxCell>
        <mxCell id="zeM_nxSK7-3mKOWZnppf-15" value="RemoveItem(TranslationItem): void" style="text;strokeColor=none;fillColor=none;align=left;verticalAlign=top;spacingLeft=4;spacingRight=4;overflow=hidden;rotatable=0;points=[[0,0.5],[1,0.5]];portConstraint=eastwest;whiteSpace=wrap;html=1;" parent="zeM_nxSK7-3mKOWZnppf-12" vertex="1">
          <mxGeometry y="114" width="370" height="26" as="geometry" />
        </mxCell>
        <mxCell id="KJP5NTa4Woh17mYjRlvN-1" value="AddItem(TranslationIten): void" style="text;strokeColor=none;fillColor=none;align=left;verticalAlign=top;spacingLeft=4;spacingRight=4;overflow=hidden;rotatable=0;points=[[0,0.5],[1,0.5]];portConstraint=eastwest;whiteSpace=wrap;html=1;" parent="zeM_nxSK7-3mKOWZnppf-12" vertex="1">
          <mxGeometry y="140" width="370" height="26" as="geometry" />
        </mxCell>
        <mxCell id="KJP5NTa4Woh17mYjRlvN-2" value="EditItem(TranslationItem): void" style="text;strokeColor=none;fillColor=none;align=left;verticalAlign=top;spacingLeft=4;spacingRight=4;overflow=hidden;rotatable=0;points=[[0,0.5],[1,0.5]];portConstraint=eastwest;whiteSpace=wrap;html=1;" parent="zeM_nxSK7-3mKOWZnppf-12" vertex="1">
          <mxGeometry y="166" width="370" height="26" as="geometry" />
        </mxCell>
        <mxCell id="zeM_nxSK7-3mKOWZnppf-56" value="SerchItemByOrigin(MemoryLibrary,String): TranslationItem" style="text;strokeColor=none;fillColor=none;align=left;verticalAlign=top;spacingLeft=4;spacingRight=4;overflow=hidden;rotatable=0;points=[[0,0.5],[1,0.5]];portConstraint=eastwest;whiteSpace=wrap;html=1;" parent="zeM_nxSK7-3mKOWZnppf-12" vertex="1">
          <mxGeometry y="192" width="370" height="26" as="geometry" />
        </mxCell>
        <mxCell id="zeM_nxSK7-3mKOWZnppf-60" value="SerchItemByTranslation(MemoryLibrary,String): TranslationItem" style="text;strokeColor=none;fillColor=none;align=left;verticalAlign=top;spacingLeft=4;spacingRight=4;overflow=hidden;rotatable=0;points=[[0,0.5],[1,0.5]];portConstraint=eastwest;whiteSpace=wrap;html=1;" parent="zeM_nxSK7-3mKOWZnppf-12" vertex="1">
          <mxGeometry y="218" width="370" height="26" as="geometry" />
        </mxCell>
        <mxCell id="NzcH6q662TKNeG9FKmlv-5" value="MatchItem(MemoryLibrary,Sentence): String" style="text;strokeColor=none;fillColor=none;align=left;verticalAlign=top;spacingLeft=4;spacingRight=4;overflow=hidden;rotatable=0;points=[[0,0.5],[1,0.5]];portConstraint=eastwest;whiteSpace=wrap;html=1;" parent="zeM_nxSK7-3mKOWZnppf-12" vertex="1">
          <mxGeometry y="244" width="370" height="26" as="geometry" />
        </mxCell>
        <mxCell id="3WQLVTn9LUs9zkxESnfN-1" value="" style="group" vertex="1" connectable="0" parent="WIyWlLk6GJQsqaUBKTNV-1">
          <mxGeometry x="-180" y="552" width="850" height="659" as="geometry" />
        </mxCell>
        <mxCell id="3WQLVTn9LUs9zkxESnfN-2" value="" style="group" vertex="1" connectable="0" parent="3WQLVTn9LUs9zkxESnfN-1">
          <mxGeometry width="850" height="659" as="geometry" />
        </mxCell>
        <mxCell id="-C6FgUDvD7B2DXOm4kBJ-33" value="" style="group" parent="3WQLVTn9LUs9zkxESnfN-2" vertex="1" connectable="0">
          <mxGeometry width="850" height="659" as="geometry" />
        </mxCell>
        <mxCell id="-C6FgUDvD7B2DXOm4kBJ-31" value="" style="shape=folder;fontStyle=1;spacingTop=10;tabWidth=40;tabHeight=14;tabPosition=left;html=1;whiteSpace=wrap;" parent="-C6FgUDvD7B2DXOm4kBJ-33" vertex="1">
          <mxGeometry width="850" height="659" as="geometry" />
        </mxCell>
        <mxCell id="-C6FgUDvD7B2DXOm4kBJ-32" value="TermLibrarySystem" style="text;align=center;fontStyle=1;verticalAlign=middle;spacingLeft=3;spacingRight=3;strokeColor=none;rotatable=0;points=[[0,0.5],[1,0.5]];portConstraint=eastwest;html=1;" parent="-C6FgUDvD7B2DXOm4kBJ-33" vertex="1">
          <mxGeometry x="341.11842105263156" y="49.735849056603776" width="167.76315789473682" height="32.32830188679245" as="geometry" />
        </mxCell>
        <mxCell id="-C6FgUDvD7B2DXOm4kBJ-34" value="TermLibraryManager" style="swimlane;fontStyle=1;align=center;verticalAlign=top;childLayout=stackLayout;horizontal=1;startSize=26;horizontalStack=0;resizeParent=1;resizeParentMax=0;resizeLast=0;collapsible=1;marginBottom=0;whiteSpace=wrap;html=1;" parent="-C6FgUDvD7B2DXOm4kBJ-33" vertex="1">
          <mxGeometry x="130" y="429" width="250" height="190" as="geometry" />
        </mxCell>
        <mxCell id="-C6FgUDvD7B2DXOm4kBJ-35" value="termLibraryList: List&amp;lt;TermLIbrary&amp;gt;" style="text;strokeColor=none;fillColor=none;align=left;verticalAlign=top;spacingLeft=4;spacingRight=4;overflow=hidden;rotatable=0;points=[[0,0.5],[1,0.5]];portConstraint=eastwest;whiteSpace=wrap;html=1;" parent="-C6FgUDvD7B2DXOm4kBJ-34" vertex="1">
          <mxGeometry y="26" width="250" height="26" as="geometry" />
        </mxCell>
        <mxCell id="-C6FgUDvD7B2DXOm4kBJ-36" value="" style="line;strokeWidth=1;fillColor=none;align=left;verticalAlign=middle;spacingTop=-1;spacingLeft=3;spacingRight=3;rotatable=0;labelPosition=right;points=[];portConstraint=eastwest;strokeColor=inherit;" parent="-C6FgUDvD7B2DXOm4kBJ-34" vertex="1">
          <mxGeometry y="52" width="250" height="8" as="geometry" />
        </mxCell>
        <mxCell id="-C6FgUDvD7B2DXOm4kBJ-37" value="MatchTerm(TermLibrary,Sentence): String" style="text;strokeColor=none;fillColor=none;align=left;verticalAlign=top;spacingLeft=4;spacingRight=4;overflow=hidden;rotatable=0;points=[[0,0.5],[1,0.5]];portConstraint=eastwest;whiteSpace=wrap;html=1;" parent="-C6FgUDvD7B2DXOm4kBJ-34" vertex="1">
          <mxGeometry y="60" width="250" height="26" as="geometry" />
        </mxCell>
        <mxCell id="-C6FgUDvD7B2DXOm4kBJ-50" value="CreateTermLibrary(String): void" style="text;strokeColor=none;fillColor=none;align=left;verticalAlign=top;spacingLeft=4;spacingRight=4;overflow=hidden;rotatable=0;points=[[0,0.5],[1,0.5]];portConstraint=eastwest;whiteSpace=wrap;html=1;" parent="-C6FgUDvD7B2DXOm4kBJ-34" vertex="1">
          <mxGeometry y="86" width="250" height="26" as="geometry" />
        </mxCell>
        <mxCell id="-C6FgUDvD7B2DXOm4kBJ-51" value="SaveLibrary(TermLibrary): void" style="text;strokeColor=none;fillColor=none;align=left;verticalAlign=top;spacingLeft=4;spacingRight=4;overflow=hidden;rotatable=0;points=[[0,0.5],[1,0.5]];portConstraint=eastwest;whiteSpace=wrap;html=1;" parent="-C6FgUDvD7B2DXOm4kBJ-34" vertex="1">
          <mxGeometry y="112" width="250" height="26" as="geometry" />
        </mxCell>
        <mxCell id="-C6FgUDvD7B2DXOm4kBJ-42" value="LoadLibrary(String): void" style="text;strokeColor=none;fillColor=none;align=left;verticalAlign=top;spacingLeft=4;spacingRight=4;overflow=hidden;rotatable=0;points=[[0,0.5],[1,0.5]];portConstraint=eastwest;whiteSpace=wrap;html=1;" parent="-C6FgUDvD7B2DXOm4kBJ-34" vertex="1">
          <mxGeometry y="138" width="250" height="26" as="geometry" />
        </mxCell>
        <mxCell id="-C6FgUDvD7B2DXOm4kBJ-49" value="GetTermLibrary(String): TermLibrary" style="text;strokeColor=none;fillColor=none;align=left;verticalAlign=top;spacingLeft=4;spacingRight=4;overflow=hidden;rotatable=0;points=[[0,0.5],[1,0.5]];portConstraint=eastwest;whiteSpace=wrap;html=1;" parent="-C6FgUDvD7B2DXOm4kBJ-34" vertex="1">
          <mxGeometry y="164" width="250" height="26" as="geometry" />
        </mxCell>
        <mxCell id="-C6FgUDvD7B2DXOm4kBJ-53" value="" style="endArrow=block;dashed=1;endFill=0;endSize=12;html=1;rounded=0;exitX=1;exitY=0.5;exitDx=0;exitDy=0;entryX=0;entryY=0.5;entryDx=0;entryDy=0;" parent="-C6FgUDvD7B2DXOm4kBJ-33" source="-C6FgUDvD7B2DXOm4kBJ-50" target="-C6FgUDvD7B2DXOm4kBJ-45" edge="1">
          <mxGeometry width="160" relative="1" as="geometry">
            <mxPoint x="800" y="429" as="sourcePoint" />
            <mxPoint x="960" y="429" as="targetPoint" />
          </mxGeometry>
        </mxCell>
        <mxCell id="-C6FgUDvD7B2DXOm4kBJ-45" value="&lt;p style=&quot;margin:0px;margin-top:4px;text-align:center;&quot;&gt;&lt;i&gt;&amp;lt;&amp;lt;Interface&amp;gt;&amp;gt;&lt;/i&gt;&lt;br&gt;&lt;b&gt;TermLibraryManage&lt;/b&gt;&lt;/p&gt;&lt;hr size=&quot;1&quot;&gt;&lt;p style=&quot;margin:0px;margin-left:4px;&quot;&gt;&lt;span style=&quot;background-color: initial;&quot;&gt;MatchTerm(TermLibrary,Sentence): String&lt;/span&gt;&lt;br&gt;&lt;/p&gt;&lt;p style=&quot;margin:0px;margin-left:4px;&quot;&gt;CreateTermLibrary(String): void&lt;/p&gt;&lt;p style=&quot;margin:0px;margin-left:4px;&quot;&gt;SaveLibrary(TermLibrary): void&lt;/p&gt;&lt;p style=&quot;margin:0px;margin-left:4px;&quot;&gt;LoadLibrary(String): void&lt;/p&gt;&lt;p style=&quot;margin:0px;margin-left:4px;&quot;&gt;GetTermLibrary(String): TermLibrary&lt;/p&gt;" style="verticalAlign=top;align=left;overflow=fill;fontSize=12;fontFamily=Helvetica;html=1;whiteSpace=wrap;" parent="-C6FgUDvD7B2DXOm4kBJ-33" vertex="1">
          <mxGeometry x="480" y="458" width="240" height="140" as="geometry" />
        </mxCell>
        <mxCell id="zeM_nxSK7-3mKOWZnppf-26" value="TermLibrary" style="swimlane;fontStyle=1;align=center;verticalAlign=top;childLayout=stackLayout;horizontal=1;startSize=26;horizontalStack=0;resizeParent=1;resizeParentMax=0;resizeLast=0;collapsible=1;marginBottom=0;whiteSpace=wrap;html=1;" parent="3WQLVTn9LUs9zkxESnfN-2" vertex="1">
          <mxGeometry x="130" y="123" width="250" height="242" as="geometry" />
        </mxCell>
        <mxCell id="zeM_nxSK7-3mKOWZnppf-27" value="name: String" style="text;strokeColor=none;fillColor=none;align=left;verticalAlign=top;spacingLeft=4;spacingRight=4;overflow=hidden;rotatable=0;points=[[0,0.5],[1,0.5]];portConstraint=eastwest;whiteSpace=wrap;html=1;" parent="zeM_nxSK7-3mKOWZnppf-26" vertex="1">
          <mxGeometry y="26" width="250" height="26" as="geometry" />
        </mxCell>
        <mxCell id="zeM_nxSK7-3mKOWZnppf-82" value="save: String" style="text;strokeColor=none;fillColor=none;align=left;verticalAlign=top;spacingLeft=4;spacingRight=4;overflow=hidden;rotatable=0;points=[[0,0.5],[1,0.5]];portConstraint=eastwest;whiteSpace=wrap;html=1;" parent="zeM_nxSK7-3mKOWZnppf-26" vertex="1">
          <mxGeometry y="52" width="250" height="26" as="geometry" />
        </mxCell>
        <mxCell id="zeM_nxSK7-3mKOWZnppf-63" value="itemsList: List&amp;lt;TermItem&amp;gt;" style="text;strokeColor=none;fillColor=none;align=left;verticalAlign=top;spacingLeft=4;spacingRight=4;overflow=hidden;rotatable=0;points=[[0,0.5],[1,0.5]];portConstraint=eastwest;whiteSpace=wrap;html=1;" parent="zeM_nxSK7-3mKOWZnppf-26" vertex="1">
          <mxGeometry y="78" width="250" height="26" as="geometry" />
        </mxCell>
        <mxCell id="zeM_nxSK7-3mKOWZnppf-28" value="" style="line;strokeWidth=1;fillColor=none;align=left;verticalAlign=middle;spacingTop=-1;spacingLeft=3;spacingRight=3;rotatable=0;labelPosition=right;points=[];portConstraint=eastwest;strokeColor=inherit;" parent="zeM_nxSK7-3mKOWZnppf-26" vertex="1">
          <mxGeometry y="104" width="250" height="8" as="geometry" />
        </mxCell>
        <mxCell id="KJP5NTa4Woh17mYjRlvN-3" value="RemoveItem(TermItem): void" style="text;strokeColor=none;fillColor=none;align=left;verticalAlign=top;spacingLeft=4;spacingRight=4;overflow=hidden;rotatable=0;points=[[0,0.5],[1,0.5]];portConstraint=eastwest;whiteSpace=wrap;html=1;" parent="zeM_nxSK7-3mKOWZnppf-26" vertex="1">
          <mxGeometry y="112" width="250" height="26" as="geometry" />
        </mxCell>
        <mxCell id="KJP5NTa4Woh17mYjRlvN-4" value="AddItem(TermItem): void" style="text;strokeColor=none;fillColor=none;align=left;verticalAlign=top;spacingLeft=4;spacingRight=4;overflow=hidden;rotatable=0;points=[[0,0.5],[1,0.5]];portConstraint=eastwest;whiteSpace=wrap;html=1;" parent="zeM_nxSK7-3mKOWZnppf-26" vertex="1">
          <mxGeometry y="138" width="250" height="26" as="geometry" />
        </mxCell>
        <mxCell id="zeM_nxSK7-3mKOWZnppf-29" value="EditItem(TermItem): void" style="text;strokeColor=none;fillColor=none;align=left;verticalAlign=top;spacingLeft=4;spacingRight=4;overflow=hidden;rotatable=0;points=[[0,0.5],[1,0.5]];portConstraint=eastwest;whiteSpace=wrap;html=1;" parent="zeM_nxSK7-3mKOWZnppf-26" vertex="1">
          <mxGeometry y="164" width="250" height="26" as="geometry" />
        </mxCell>
        <mxCell id="zeM_nxSK7-3mKOWZnppf-75" value="SearchItem(String): TermItem[]" style="text;strokeColor=none;fillColor=none;align=left;verticalAlign=top;spacingLeft=4;spacingRight=4;overflow=hidden;rotatable=0;points=[[0,0.5],[1,0.5]];portConstraint=eastwest;whiteSpace=wrap;html=1;" parent="zeM_nxSK7-3mKOWZnppf-26" vertex="1">
          <mxGeometry y="190" width="250" height="26" as="geometry" />
        </mxCell>
        <mxCell id="-C6FgUDvD7B2DXOm4kBJ-48" value="MatchTerm(Sentence): String" style="text;strokeColor=none;fillColor=none;align=left;verticalAlign=top;spacingLeft=4;spacingRight=4;overflow=hidden;rotatable=0;points=[[0,0.5],[1,0.5]];portConstraint=eastwest;whiteSpace=wrap;html=1;" parent="zeM_nxSK7-3mKOWZnppf-26" vertex="1">
          <mxGeometry y="216" width="250" height="26" as="geometry" />
        </mxCell>
        <mxCell id="-C6FgUDvD7B2DXOm4kBJ-47" value="&lt;p style=&quot;margin:0px;margin-top:4px;text-align:center;&quot;&gt;&lt;i&gt;&amp;lt;&amp;lt;Interface&amp;gt;&amp;gt;&lt;/i&gt;&lt;br&gt;&lt;b&gt;TermLibraryAttribute&lt;/b&gt;&lt;/p&gt;&lt;hr size=&quot;1&quot;&gt;&lt;p style=&quot;margin:0px;margin-left:4px;&quot;&gt;&lt;span style=&quot;background-color: initial;&quot;&gt;RemoveItem(TermItem): void&lt;/span&gt;&lt;br&gt;&lt;/p&gt;&lt;p style=&quot;margin:0px;margin-left:4px;&quot;&gt;AddItem(TermItem): void&lt;/p&gt;&lt;p style=&quot;margin:0px;margin-left:4px;&quot;&gt;EditItem(TermItem): void&lt;/p&gt;&lt;p style=&quot;margin:0px;margin-left:4px;&quot;&gt;SearchItem(String): TermItem[]&lt;br&gt;&lt;/p&gt;&lt;p style=&quot;margin:0px;margin-left:4px;&quot;&gt;MatchTerm(Sentence): String&lt;/p&gt;" style="verticalAlign=top;align=left;overflow=fill;fontSize=12;fontFamily=Helvetica;html=1;whiteSpace=wrap;" parent="3WQLVTn9LUs9zkxESnfN-2" vertex="1">
          <mxGeometry x="480" y="178" width="240" height="140" as="geometry" />
        </mxCell>
        <mxCell id="-C6FgUDvD7B2DXOm4kBJ-52" value="" style="endArrow=block;dashed=1;endFill=0;endSize=12;html=1;rounded=0;exitX=1;exitY=0.5;exitDx=0;exitDy=0;entryX=0;entryY=0.5;entryDx=0;entryDy=0;" parent="3WQLVTn9LUs9zkxESnfN-2" source="KJP5NTa4Woh17mYjRlvN-3" target="-C6FgUDvD7B2DXOm4kBJ-47" edge="1">
          <mxGeometry width="160" relative="1" as="geometry">
            <mxPoint x="560" y="905" as="sourcePoint" />
            <mxPoint x="720" y="905" as="targetPoint" />
          </mxGeometry>
        </mxCell>
      </root>
    </mxGraphModel>
  </diagram>
  <diagram id="Qu2iiMOgVj11WtvB4Jk5" name="流程图">
    <mxGraphModel dx="3500" dy="2097" grid="1" gridSize="10" guides="1" tooltips="1" connect="1" arrows="1" fold="1" page="1" pageScale="1" pageWidth="827" pageHeight="1169" math="0" shadow="0">
      <root>
        <mxCell id="0" />
        <mxCell id="1" parent="0" />
        <mxCell id="luG1cFGhX8F-LsEmLXU5-1" value="Pool" style="swimlane;html=1;childLayout=stackLayout;startSize=20;rounded=0;shadow=0;comic=0;labelBackgroundColor=none;strokeWidth=1;fontFamily=Verdana;fontSize=12;align=center;" parent="1" vertex="1">
          <mxGeometry x="50" width="1500" height="2440" as="geometry">
            <mxRectangle x="40" y="20" width="70" height="30" as="alternateBounds" />
          </mxGeometry>
        </mxCell>
        <mxCell id="luG1cFGhX8F-LsEmLXU5-2" value="Project System" style="swimlane;html=1;startSize=20;" parent="luG1cFGhX8F-LsEmLXU5-1" vertex="1">
          <mxGeometry y="20" width="250" height="2420" as="geometry">
            <mxRectangle y="20" width="40" height="970" as="alternateBounds" />
          </mxGeometry>
        </mxCell>
        <mxCell id="luG1cFGhX8F-LsEmLXU5-3" value="" style="ellipse;html=1;shape=startState;fillColor=#000000;strokeColor=#ff0000;" parent="luG1cFGhX8F-LsEmLXU5-2" vertex="1">
          <mxGeometry x="110" y="60" width="30" height="30" as="geometry" />
        </mxCell>
        <mxCell id="luG1cFGhX8F-LsEmLXU5-4" value="" style="edgeStyle=orthogonalEdgeStyle;html=1;verticalAlign=bottom;endArrow=open;endSize=8;strokeColor=#ff0000;rounded=0;" parent="luG1cFGhX8F-LsEmLXU5-2" source="luG1cFGhX8F-LsEmLXU5-3" edge="1">
          <mxGeometry relative="1" as="geometry">
            <mxPoint x="125" y="140" as="targetPoint" />
          </mxGeometry>
        </mxCell>
        <mxCell id="luG1cFGhX8F-LsEmLXU5-5" value="CreateProject" style="rounded=1;whiteSpace=wrap;html=1;arcSize=40;fontColor=#000000;fillColor=#ffffc0;strokeColor=#ff0000;" parent="luG1cFGhX8F-LsEmLXU5-2" vertex="1">
          <mxGeometry x="65" y="140" width="120" height="40" as="geometry" />
        </mxCell>
        <mxCell id="luG1cFGhX8F-LsEmLXU5-6" value="" style="shape=line;html=1;strokeWidth=6;strokeColor=#ff0000;" parent="luG1cFGhX8F-LsEmLXU5-2" vertex="1">
          <mxGeometry x="25" y="210" width="200" height="10" as="geometry" />
        </mxCell>
        <mxCell id="luG1cFGhX8F-LsEmLXU5-7" value="" style="edgeStyle=orthogonalEdgeStyle;html=1;verticalAlign=bottom;endArrow=open;endSize=8;strokeColor=#ff0000;rounded=0;entryX=0.501;entryY=0.619;entryDx=0;entryDy=0;entryPerimeter=0;" parent="luG1cFGhX8F-LsEmLXU5-2" source="luG1cFGhX8F-LsEmLXU5-5" target="luG1cFGhX8F-LsEmLXU5-6" edge="1">
          <mxGeometry relative="1" as="geometry">
            <mxPoint x="125" y="270" as="targetPoint" />
            <Array as="points" />
          </mxGeometry>
        </mxCell>
        <mxCell id="luG1cFGhX8F-LsEmLXU5-8" value="" style="shape=line;html=1;strokeWidth=6;strokeColor=#ff0000;" parent="luG1cFGhX8F-LsEmLXU5-2" vertex="1">
          <mxGeometry x="40" y="540" width="200" height="10" as="geometry" />
        </mxCell>
        <mxCell id="luG1cFGhX8F-LsEmLXU5-9" value="" style="edgeStyle=orthogonalEdgeStyle;html=1;verticalAlign=bottom;endArrow=open;endSize=8;strokeColor=#ff0000;rounded=0;entryX=0.5;entryY=0;entryDx=0;entryDy=0;" parent="luG1cFGhX8F-LsEmLXU5-2" source="luG1cFGhX8F-LsEmLXU5-8" target="luG1cFGhX8F-LsEmLXU5-10" edge="1">
          <mxGeometry relative="1" as="geometry">
            <mxPoint x="140" y="620" as="targetPoint" />
          </mxGeometry>
        </mxCell>
        <mxCell id="luG1cFGhX8F-LsEmLXU5-10" value="TranslateFile" style="rounded=1;whiteSpace=wrap;html=1;arcSize=40;fontColor=#000000;fillColor=#ffffc0;strokeColor=#ff0000;" parent="luG1cFGhX8F-LsEmLXU5-2" vertex="1">
          <mxGeometry x="80" y="570" width="120" height="40" as="geometry" />
        </mxCell>
        <mxCell id="luG1cFGhX8F-LsEmLXU5-11" value="SaveProject" style="rounded=1;whiteSpace=wrap;html=1;arcSize=40;fontColor=#000000;fillColor=#ffffc0;strokeColor=#ff0000;" parent="luG1cFGhX8F-LsEmLXU5-2" vertex="1">
          <mxGeometry x="60" y="1930" width="120" height="40" as="geometry" />
        </mxCell>
        <mxCell id="luG1cFGhX8F-LsEmLXU5-12" value="" style="shape=line;html=1;strokeWidth=6;strokeColor=#ff0000;" parent="luG1cFGhX8F-LsEmLXU5-2" vertex="1">
          <mxGeometry x="20" y="1991" width="200" height="10" as="geometry" />
        </mxCell>
        <mxCell id="luG1cFGhX8F-LsEmLXU5-13" value="" style="edgeStyle=orthogonalEdgeStyle;html=1;verticalAlign=bottom;endArrow=open;endSize=8;strokeColor=#ff0000;rounded=0;exitX=0.5;exitY=1;exitDx=0;exitDy=0;entryX=0.501;entryY=0.512;entryDx=0;entryDy=0;entryPerimeter=0;" parent="luG1cFGhX8F-LsEmLXU5-2" source="luG1cFGhX8F-LsEmLXU5-11" target="luG1cFGhX8F-LsEmLXU5-12" edge="1">
          <mxGeometry relative="1" as="geometry">
            <mxPoint x="120" y="2016" as="targetPoint" />
            <Array as="points" />
            <mxPoint x="120" y="1970" as="sourcePoint" />
          </mxGeometry>
        </mxCell>
        <mxCell id="luG1cFGhX8F-LsEmLXU5-14" value="File System" style="swimlane;html=1;startSize=20;" parent="luG1cFGhX8F-LsEmLXU5-1" vertex="1">
          <mxGeometry x="250" y="20" width="250" height="2420" as="geometry">
            <mxRectangle x="250" y="20" width="40" height="970" as="alternateBounds" />
          </mxGeometry>
        </mxCell>
        <mxCell id="luG1cFGhX8F-LsEmLXU5-15" value="ReadFile" style="rounded=1;whiteSpace=wrap;html=1;arcSize=40;fontColor=#000000;fillColor=#ffffc0;strokeColor=#ff0000;" parent="luG1cFGhX8F-LsEmLXU5-14" vertex="1">
          <mxGeometry x="75" y="300" width="120" height="40" as="geometry" />
        </mxCell>
        <mxCell id="luG1cFGhX8F-LsEmLXU5-16" value="DivideParagraph" style="rounded=1;whiteSpace=wrap;html=1;arcSize=40;fontColor=#000000;fillColor=#ffffc0;strokeColor=#ff0000;" parent="luG1cFGhX8F-LsEmLXU5-14" vertex="1">
          <mxGeometry x="75" y="390" width="120" height="40" as="geometry" />
        </mxCell>
        <mxCell id="luG1cFGhX8F-LsEmLXU5-17" value="" style="edgeStyle=orthogonalEdgeStyle;html=1;verticalAlign=bottom;endArrow=open;endSize=8;strokeColor=#ff0000;rounded=0;exitX=0.5;exitY=1;exitDx=0;exitDy=0;entryX=0.5;entryY=0;entryDx=0;entryDy=0;" parent="luG1cFGhX8F-LsEmLXU5-14" source="luG1cFGhX8F-LsEmLXU5-15" target="luG1cFGhX8F-LsEmLXU5-16" edge="1">
          <mxGeometry relative="1" as="geometry">
            <mxPoint x="135" y="420" as="targetPoint" />
            <mxPoint x="135" y="420" as="sourcePoint" />
            <Array as="points">
              <mxPoint x="135" y="350" />
              <mxPoint x="135" y="350" />
            </Array>
          </mxGeometry>
        </mxCell>
        <mxCell id="luG1cFGhX8F-LsEmLXU5-18" value="TranslateParagraph" style="rounded=1;whiteSpace=wrap;html=1;arcSize=40;fontColor=#000000;fillColor=#ffffc0;strokeColor=#ff0000;" parent="luG1cFGhX8F-LsEmLXU5-14" vertex="1">
          <mxGeometry x="60" y="650" width="120" height="40" as="geometry" />
        </mxCell>
        <mxCell id="luG1cFGhX8F-LsEmLXU5-19" value="" style="shape=line;html=1;strokeWidth=6;strokeColor=#ff0000;" parent="luG1cFGhX8F-LsEmLXU5-14" vertex="1">
          <mxGeometry x="20" y="720" width="200" height="10" as="geometry" />
        </mxCell>
        <mxCell id="luG1cFGhX8F-LsEmLXU5-20" value="" style="edgeStyle=orthogonalEdgeStyle;html=1;verticalAlign=bottom;endArrow=open;endSize=8;strokeColor=#ff0000;rounded=0;entryX=0.497;entryY=0.525;entryDx=0;entryDy=0;entryPerimeter=0;" parent="luG1cFGhX8F-LsEmLXU5-14" source="luG1cFGhX8F-LsEmLXU5-18" target="luG1cFGhX8F-LsEmLXU5-19" edge="1">
          <mxGeometry relative="1" as="geometry">
            <mxPoint x="-110" y="740" as="targetPoint" />
          </mxGeometry>
        </mxCell>
        <mxCell id="luG1cFGhX8F-LsEmLXU5-21" value="" style="shape=line;html=1;strokeWidth=6;strokeColor=#ff0000;" parent="luG1cFGhX8F-LsEmLXU5-14" vertex="1">
          <mxGeometry x="35" y="1670" width="200" height="10" as="geometry" />
        </mxCell>
        <mxCell id="luG1cFGhX8F-LsEmLXU5-22" value="" style="edgeStyle=orthogonalEdgeStyle;html=1;verticalAlign=bottom;endArrow=open;endSize=8;strokeColor=#ff0000;rounded=0;entryX=0.5;entryY=0;entryDx=0;entryDy=0;" parent="luG1cFGhX8F-LsEmLXU5-14" source="luG1cFGhX8F-LsEmLXU5-21" target="luG1cFGhX8F-LsEmLXU5-23" edge="1">
          <mxGeometry relative="1" as="geometry">
            <mxPoint x="135" y="1750" as="targetPoint" />
          </mxGeometry>
        </mxCell>
        <mxCell id="luG1cFGhX8F-LsEmLXU5-23" value="Done" style="rhombus;whiteSpace=wrap;html=1;fontColor=#000000;fillColor=#ffffc0;strokeColor=#ff0000;" parent="luG1cFGhX8F-LsEmLXU5-14" vertex="1">
          <mxGeometry x="95" y="1750" width="80" height="40" as="geometry" />
        </mxCell>
        <mxCell id="luG1cFGhX8F-LsEmLXU5-24" value="no" style="edgeStyle=orthogonalEdgeStyle;html=1;align=left;verticalAlign=bottom;endArrow=open;endSize=8;strokeColor=#ff0000;rounded=0;exitX=0;exitY=0.5;exitDx=0;exitDy=0;entryX=0;entryY=0.5;entryDx=0;entryDy=0;" parent="luG1cFGhX8F-LsEmLXU5-14" source="luG1cFGhX8F-LsEmLXU5-23" target="luG1cFGhX8F-LsEmLXU5-18" edge="1">
          <mxGeometry x="-1" relative="1" as="geometry">
            <mxPoint x="40" y="860" as="targetPoint" />
            <Array as="points">
              <mxPoint x="10" y="1770" />
              <mxPoint x="10" y="670" />
            </Array>
          </mxGeometry>
        </mxCell>
        <mxCell id="luG1cFGhX8F-LsEmLXU5-25" value="yes" style="edgeStyle=orthogonalEdgeStyle;html=1;align=left;verticalAlign=top;endArrow=open;endSize=8;strokeColor=#ff0000;rounded=0;entryX=0.5;entryY=0;entryDx=0;entryDy=0;" parent="luG1cFGhX8F-LsEmLXU5-14" source="luG1cFGhX8F-LsEmLXU5-23" target="luG1cFGhX8F-LsEmLXU5-26" edge="1">
          <mxGeometry x="-1" relative="1" as="geometry">
            <mxPoint x="135" y="1830" as="targetPoint" />
          </mxGeometry>
        </mxCell>
        <mxCell id="luG1cFGhX8F-LsEmLXU5-26" value="SaveFile" style="rounded=1;whiteSpace=wrap;html=1;arcSize=40;fontColor=#000000;fillColor=#ffffc0;strokeColor=#ff0000;" parent="luG1cFGhX8F-LsEmLXU5-14" vertex="1">
          <mxGeometry x="75" y="1840" width="120" height="40" as="geometry" />
        </mxCell>
        <mxCell id="luG1cFGhX8F-LsEmLXU5-27" value="DeriveFile" style="rounded=1;whiteSpace=wrap;html=1;arcSize=40;fontColor=#000000;fillColor=#ffffc0;strokeColor=#ff0000;" parent="luG1cFGhX8F-LsEmLXU5-14" vertex="1">
          <mxGeometry x="75" y="2171" width="120" height="40" as="geometry" />
        </mxCell>
        <mxCell id="luG1cFGhX8F-LsEmLXU5-28" value="" style="edgeStyle=orthogonalEdgeStyle;html=1;verticalAlign=bottom;endArrow=open;endSize=8;strokeColor=#ff0000;rounded=0;entryX=0.5;entryY=0;entryDx=0;entryDy=0;" parent="luG1cFGhX8F-LsEmLXU5-14" source="luG1cFGhX8F-LsEmLXU5-27" target="luG1cFGhX8F-LsEmLXU5-29" edge="1">
          <mxGeometry relative="1" as="geometry">
            <mxPoint x="135" y="2234" as="targetPoint" />
          </mxGeometry>
        </mxCell>
        <mxCell id="luG1cFGhX8F-LsEmLXU5-29" value="MergeParagraph" style="rounded=1;whiteSpace=wrap;html=1;arcSize=40;fontColor=#000000;fillColor=#ffffc0;strokeColor=#ff0000;" parent="luG1cFGhX8F-LsEmLXU5-14" vertex="1">
          <mxGeometry x="75" y="2261" width="120" height="40" as="geometry" />
        </mxCell>
        <mxCell id="luG1cFGhX8F-LsEmLXU5-30" value="" style="edgeStyle=orthogonalEdgeStyle;html=1;verticalAlign=bottom;endArrow=open;endSize=8;strokeColor=#ff0000;rounded=0;entryX=0.5;entryY=0;entryDx=0;entryDy=0;" parent="luG1cFGhX8F-LsEmLXU5-14" source="luG1cFGhX8F-LsEmLXU5-29" target="luG1cFGhX8F-LsEmLXU5-31" edge="1">
          <mxGeometry relative="1" as="geometry">
            <mxPoint x="135" y="2334" as="targetPoint" />
          </mxGeometry>
        </mxCell>
        <mxCell id="luG1cFGhX8F-LsEmLXU5-31" value="" style="ellipse;html=1;shape=endState;fillColor=#000000;strokeColor=#ff0000;" parent="luG1cFGhX8F-LsEmLXU5-14" vertex="1">
          <mxGeometry x="120" y="2341" width="30" height="30" as="geometry" />
        </mxCell>
        <mxCell id="luG1cFGhX8F-LsEmLXU5-32" value="" style="shape=line;html=1;strokeWidth=6;strokeColor=#ff0000;" parent="luG1cFGhX8F-LsEmLXU5-14" vertex="1">
          <mxGeometry x="35" y="2139" width="200" height="10" as="geometry" />
        </mxCell>
        <mxCell id="luG1cFGhX8F-LsEmLXU5-33" value="" style="edgeStyle=orthogonalEdgeStyle;html=1;verticalAlign=bottom;endArrow=open;endSize=8;strokeColor=#ff0000;rounded=0;entryX=0.5;entryY=0;entryDx=0;entryDy=0;exitX=0.501;exitY=0.452;exitDx=0;exitDy=0;exitPerimeter=0;" parent="luG1cFGhX8F-LsEmLXU5-14" source="luG1cFGhX8F-LsEmLXU5-32" target="luG1cFGhX8F-LsEmLXU5-27" edge="1">
          <mxGeometry relative="1" as="geometry">
            <mxPoint x="135" y="2141" as="targetPoint" />
          </mxGeometry>
        </mxCell>
        <mxCell id="luG1cFGhX8F-LsEmLXU5-34" value="Memory Library System" style="swimlane;html=1;startSize=20;" parent="luG1cFGhX8F-LsEmLXU5-1" vertex="1">
          <mxGeometry x="500" y="20" width="250" height="2420" as="geometry">
            <mxRectangle y="20" width="40" height="970" as="alternateBounds" />
          </mxGeometry>
        </mxCell>
        <mxCell id="luG1cFGhX8F-LsEmLXU5-35" value="CreateMemoryLibrary" style="rounded=1;whiteSpace=wrap;html=1;arcSize=40;fontColor=#000000;fillColor=#ffffc0;strokeColor=#ff0000;" parent="luG1cFGhX8F-LsEmLXU5-34" vertex="1">
          <mxGeometry x="52.5" y="360" width="145" height="40" as="geometry" />
        </mxCell>
        <mxCell id="luG1cFGhX8F-LsEmLXU5-36" value="MatchItem" style="rounded=1;whiteSpace=wrap;html=1;arcSize=40;fontColor=#000000;fillColor=#ffffc0;strokeColor=#ff0000;" parent="luG1cFGhX8F-LsEmLXU5-34" vertex="1">
          <mxGeometry x="65" y="941" width="120" height="40" as="geometry" />
        </mxCell>
        <mxCell id="luG1cFGhX8F-LsEmLXU5-37" value="AddItem" style="rounded=1;whiteSpace=wrap;html=1;arcSize=40;fontColor=#000000;fillColor=#ffffc0;strokeColor=#ff0000;" parent="luG1cFGhX8F-LsEmLXU5-34" vertex="1">
          <mxGeometry x="65" y="1560" width="120" height="40" as="geometry" />
        </mxCell>
        <mxCell id="luG1cFGhX8F-LsEmLXU5-38" value="SaveLibrary" style="rounded=1;whiteSpace=wrap;html=1;arcSize=40;fontColor=#000000;fillColor=#ffffc0;strokeColor=#ff0000;" parent="luG1cFGhX8F-LsEmLXU5-34" vertex="1">
          <mxGeometry x="65" y="2055" width="120" height="40" as="geometry" />
        </mxCell>
        <mxCell id="luG1cFGhX8F-LsEmLXU5-39" value="Term Library System" style="swimlane;html=1;startSize=20;" parent="luG1cFGhX8F-LsEmLXU5-1" vertex="1">
          <mxGeometry x="750" y="20" width="250" height="2420" as="geometry">
            <mxRectangle y="20" width="40" height="970" as="alternateBounds" />
          </mxGeometry>
        </mxCell>
        <mxCell id="luG1cFGhX8F-LsEmLXU5-40" value="CreateTermLibrary" style="rounded=1;whiteSpace=wrap;html=1;arcSize=40;fontColor=#000000;fillColor=#ffffc0;strokeColor=#ff0000;" parent="luG1cFGhX8F-LsEmLXU5-39" vertex="1">
          <mxGeometry x="50" y="360" width="145" height="40" as="geometry" />
        </mxCell>
        <mxCell id="luG1cFGhX8F-LsEmLXU5-41" value="" style="edgeStyle=orthogonalEdgeStyle;html=1;verticalAlign=bottom;endArrow=open;endSize=8;strokeColor=#ff0000;rounded=0;entryX=0.845;entryY=0.555;entryDx=0;entryDy=0;entryPerimeter=0;" parent="luG1cFGhX8F-LsEmLXU5-39" target="luG1cFGhX8F-LsEmLXU5-8" edge="1">
          <mxGeometry relative="1" as="geometry">
            <mxPoint x="122.21000000000004" y="460" as="targetPoint" />
            <mxPoint x="122.21000000000004" y="400" as="sourcePoint" />
            <Array as="points">
              <mxPoint x="122" y="500" />
              <mxPoint x="-541" y="500" />
            </Array>
          </mxGeometry>
        </mxCell>
        <mxCell id="luG1cFGhX8F-LsEmLXU5-42" value="MatchTerm" style="rounded=1;whiteSpace=wrap;html=1;arcSize=40;fontColor=#000000;fillColor=#ffffc0;strokeColor=#ff0000;" parent="luG1cFGhX8F-LsEmLXU5-39" vertex="1">
          <mxGeometry x="75" y="841" width="120" height="40" as="geometry" />
        </mxCell>
        <mxCell id="luG1cFGhX8F-LsEmLXU5-43" value="AddItem" style="rounded=1;whiteSpace=wrap;html=1;arcSize=40;fontColor=#000000;fillColor=#ffffc0;strokeColor=#ff0000;" parent="luG1cFGhX8F-LsEmLXU5-39" vertex="1">
          <mxGeometry x="63" y="1560" width="120" height="40" as="geometry" />
        </mxCell>
        <mxCell id="luG1cFGhX8F-LsEmLXU5-44" value="SaveLibrary" style="rounded=1;whiteSpace=wrap;html=1;arcSize=40;fontColor=#000000;fillColor=#ffffc0;strokeColor=#ff0000;" parent="luG1cFGhX8F-LsEmLXU5-39" vertex="1">
          <mxGeometry x="63" y="2055" width="120" height="40" as="geometry" />
        </mxCell>
        <mxCell id="luG1cFGhX8F-LsEmLXU5-45" value="" style="edgeStyle=orthogonalEdgeStyle;html=1;verticalAlign=bottom;endArrow=open;endSize=8;strokeColor=#ff0000;rounded=0;entryX=0.5;entryY=0;entryDx=0;entryDy=0;exitX=0.779;exitY=0.589;exitDx=0;exitDy=0;exitPerimeter=0;" parent="luG1cFGhX8F-LsEmLXU5-1" source="luG1cFGhX8F-LsEmLXU5-6" target="luG1cFGhX8F-LsEmLXU5-15" edge="1">
          <mxGeometry relative="1" as="geometry">
            <mxPoint x="220" y="340" as="targetPoint" />
            <Array as="points">
              <mxPoint x="50" y="236" />
              <mxPoint x="50" y="290" />
              <mxPoint x="385" y="290" />
            </Array>
            <mxPoint x="180" y="290" as="sourcePoint" />
          </mxGeometry>
        </mxCell>
        <mxCell id="luG1cFGhX8F-LsEmLXU5-46" value="" style="edgeStyle=orthogonalEdgeStyle;html=1;verticalAlign=bottom;endArrow=open;endSize=8;strokeColor=#ff0000;rounded=0;exitX=0.5;exitY=0.678;exitDx=0;exitDy=0;exitPerimeter=0;" parent="luG1cFGhX8F-LsEmLXU5-1" source="luG1cFGhX8F-LsEmLXU5-6" target="luG1cFGhX8F-LsEmLXU5-35" edge="1">
          <mxGeometry relative="1" as="geometry">
            <mxPoint x="630" y="380" as="targetPoint" />
            <Array as="points">
              <mxPoint x="125" y="270" />
              <mxPoint x="630" y="270" />
            </Array>
            <mxPoint x="80" y="260" as="sourcePoint" />
          </mxGeometry>
        </mxCell>
        <mxCell id="luG1cFGhX8F-LsEmLXU5-47" value="" style="edgeStyle=orthogonalEdgeStyle;html=1;verticalAlign=bottom;endArrow=open;endSize=8;strokeColor=#ff0000;rounded=0;exitX=0.875;exitY=0.421;exitDx=0;exitDy=0;exitPerimeter=0;entryX=0.5;entryY=0;entryDx=0;entryDy=0;" parent="luG1cFGhX8F-LsEmLXU5-1" source="luG1cFGhX8F-LsEmLXU5-6" target="luG1cFGhX8F-LsEmLXU5-40" edge="1">
          <mxGeometry relative="1" as="geometry">
            <mxPoint x="705" y="373" as="targetPoint" />
            <Array as="points">
              <mxPoint x="200" y="250" />
              <mxPoint x="873" y="250" />
              <mxPoint x="873" y="380" />
            </Array>
            <mxPoint x="200" y="240" as="sourcePoint" />
          </mxGeometry>
        </mxCell>
        <mxCell id="luG1cFGhX8F-LsEmLXU5-48" value="" style="edgeStyle=orthogonalEdgeStyle;html=1;verticalAlign=bottom;endArrow=open;endSize=8;strokeColor=#ff0000;rounded=0;entryX=0.494;entryY=0.555;entryDx=0;entryDy=0;entryPerimeter=0;" parent="luG1cFGhX8F-LsEmLXU5-1" source="luG1cFGhX8F-LsEmLXU5-35" target="luG1cFGhX8F-LsEmLXU5-8" edge="1">
          <mxGeometry relative="1" as="geometry">
            <mxPoint x="625" y="480" as="targetPoint" />
            <Array as="points">
              <mxPoint x="625" y="500" />
              <mxPoint x="139" y="500" />
            </Array>
          </mxGeometry>
        </mxCell>
        <mxCell id="luG1cFGhX8F-LsEmLXU5-49" value="" style="edgeStyle=orthogonalEdgeStyle;html=1;verticalAlign=bottom;endArrow=open;endSize=8;strokeColor=#ff0000;rounded=0;entryX=0.5;entryY=0;entryDx=0;entryDy=0;" parent="luG1cFGhX8F-LsEmLXU5-1" source="luG1cFGhX8F-LsEmLXU5-42" target="luG1cFGhX8F-LsEmLXU5-36" edge="1">
          <mxGeometry relative="1" as="geometry">
            <mxPoint x="885" y="1046" as="targetPoint" />
            <Array as="points">
              <mxPoint x="885" y="926" />
              <mxPoint x="625" y="926" />
            </Array>
          </mxGeometry>
        </mxCell>
        <mxCell id="luG1cFGhX8F-LsEmLXU5-50" value="" style="edgeStyle=orthogonalEdgeStyle;html=1;verticalAlign=bottom;endArrow=open;endSize=8;strokeColor=#ff0000;rounded=0;entryX=0.25;entryY=0.5;entryDx=0;entryDy=0;entryPerimeter=0;" parent="luG1cFGhX8F-LsEmLXU5-1" source="luG1cFGhX8F-LsEmLXU5-36" target="luG1cFGhX8F-LsEmLXU5-62" edge="1">
          <mxGeometry relative="1" as="geometry">
            <mxPoint x="1077" y="1046" as="targetPoint" />
            <Array as="points">
              <mxPoint x="625" y="1026" />
              <mxPoint x="1110" y="1026" />
            </Array>
          </mxGeometry>
        </mxCell>
        <mxCell id="luG1cFGhX8F-LsEmLXU5-51" value="" style="edgeStyle=orthogonalEdgeStyle;html=1;verticalAlign=bottom;endArrow=open;endSize=8;strokeColor=#ff0000;rounded=0;entryX=0.5;entryY=0;entryDx=0;entryDy=0;exitX=0.162;exitY=0.698;exitDx=0;exitDy=0;exitPerimeter=0;" parent="luG1cFGhX8F-LsEmLXU5-1" source="luG1cFGhX8F-LsEmLXU5-19" target="luG1cFGhX8F-LsEmLXU5-42" edge="1">
          <mxGeometry relative="1" as="geometry">
            <mxPoint x="70" y="820" as="targetPoint" />
            <Array as="points">
              <mxPoint x="302" y="745" />
              <mxPoint x="302" y="830" />
              <mxPoint x="885" y="830" />
            </Array>
          </mxGeometry>
        </mxCell>
        <mxCell id="luG1cFGhX8F-LsEmLXU5-52" value="" style="edgeStyle=orthogonalEdgeStyle;html=1;verticalAlign=bottom;endArrow=open;endSize=8;strokeColor=#ff0000;rounded=0;exitX=0.25;exitY=0.5;exitDx=0;exitDy=0;exitPerimeter=0;entryX=0.5;entryY=0;entryDx=0;entryDy=0;" parent="luG1cFGhX8F-LsEmLXU5-1" source="luG1cFGhX8F-LsEmLXU5-75" target="luG1cFGhX8F-LsEmLXU5-37" edge="1">
          <mxGeometry relative="1" as="geometry">
            <mxPoint x="1260" y="1550" as="targetPoint" />
            <Array as="points">
              <mxPoint x="1210" y="1520" />
              <mxPoint x="625" y="1520" />
            </Array>
          </mxGeometry>
        </mxCell>
        <mxCell id="luG1cFGhX8F-LsEmLXU5-53" value="" style="edgeStyle=orthogonalEdgeStyle;html=1;verticalAlign=bottom;endArrow=open;endSize=8;strokeColor=#ff0000;rounded=0;exitX=0.75;exitY=0.5;exitDx=0;exitDy=0;exitPerimeter=0;entryX=0.5;entryY=0;entryDx=0;entryDy=0;" parent="luG1cFGhX8F-LsEmLXU5-1" source="luG1cFGhX8F-LsEmLXU5-75" target="luG1cFGhX8F-LsEmLXU5-43" edge="1">
          <mxGeometry relative="1" as="geometry">
            <mxPoint x="1270" y="1560" as="targetPoint" />
            <mxPoint x="1270" y="1490" as="sourcePoint" />
            <Array as="points">
              <mxPoint x="1310" y="1550" />
              <mxPoint x="873" y="1550" />
            </Array>
          </mxGeometry>
        </mxCell>
        <mxCell id="luG1cFGhX8F-LsEmLXU5-54" value="" style="edgeStyle=orthogonalEdgeStyle;html=1;verticalAlign=bottom;endArrow=open;endSize=8;strokeColor=#ff0000;rounded=0;entryX=0.144;entryY=0.693;entryDx=0;entryDy=0;entryPerimeter=0;" parent="luG1cFGhX8F-LsEmLXU5-1" source="luG1cFGhX8F-LsEmLXU5-16" target="luG1cFGhX8F-LsEmLXU5-8" edge="1">
          <mxGeometry relative="1" as="geometry">
            <mxPoint x="125" y="420" as="targetPoint" />
            <Array as="points">
              <mxPoint x="385" y="480" />
              <mxPoint x="69" y="480" />
            </Array>
          </mxGeometry>
        </mxCell>
        <mxCell id="luG1cFGhX8F-LsEmLXU5-55" value="" style="edgeStyle=orthogonalEdgeStyle;html=1;verticalAlign=bottom;endArrow=open;endSize=8;strokeColor=#ff0000;rounded=0;entryX=0.5;entryY=0;entryDx=0;entryDy=0;" parent="luG1cFGhX8F-LsEmLXU5-1" source="luG1cFGhX8F-LsEmLXU5-10" target="luG1cFGhX8F-LsEmLXU5-18" edge="1">
          <mxGeometry relative="1" as="geometry">
            <mxPoint x="140" y="670" as="targetPoint" />
            <Array as="points">
              <mxPoint x="140" y="650" />
              <mxPoint x="370" y="650" />
            </Array>
          </mxGeometry>
        </mxCell>
        <mxCell id="luG1cFGhX8F-LsEmLXU5-56" value="" style="edgeStyle=orthogonalEdgeStyle;html=1;verticalAlign=bottom;endArrow=open;endSize=8;strokeColor=#ff0000;rounded=0;entryX=0.494;entryY=0.612;entryDx=0;entryDy=0;entryPerimeter=0;exitX=0.797;exitY=0.464;exitDx=0;exitDy=0;exitPerimeter=0;" parent="luG1cFGhX8F-LsEmLXU5-1" source="luG1cFGhX8F-LsEmLXU5-19" target="luG1cFGhX8F-LsEmLXU5-66" edge="1">
          <mxGeometry relative="1" as="geometry">
            <mxPoint x="190" y="820" as="targetPoint" />
            <mxPoint x="190" y="750" as="sourcePoint" />
            <Array as="points">
              <mxPoint x="429" y="780" />
              <mxPoint x="1349" y="780" />
            </Array>
          </mxGeometry>
        </mxCell>
        <mxCell id="luG1cFGhX8F-LsEmLXU5-57" value="" style="edgeStyle=orthogonalEdgeStyle;html=1;verticalAlign=bottom;endArrow=open;endSize=8;strokeColor=#ff0000;rounded=0;entryX=0.25;entryY=0.5;entryDx=0;entryDy=0;entryPerimeter=0;" parent="luG1cFGhX8F-LsEmLXU5-1" source="luG1cFGhX8F-LsEmLXU5-37" target="luG1cFGhX8F-LsEmLXU5-21" edge="1">
          <mxGeometry relative="1" as="geometry">
            <mxPoint x="625" y="1680" as="targetPoint" />
            <Array as="points">
              <mxPoint x="625" y="1640" />
              <mxPoint x="335" y="1640" />
            </Array>
          </mxGeometry>
        </mxCell>
        <mxCell id="luG1cFGhX8F-LsEmLXU5-58" value="" style="edgeStyle=orthogonalEdgeStyle;html=1;verticalAlign=bottom;endArrow=open;endSize=8;strokeColor=#ff0000;rounded=0;entryX=0.75;entryY=0.5;entryDx=0;entryDy=0;entryPerimeter=0;" parent="luG1cFGhX8F-LsEmLXU5-1" source="luG1cFGhX8F-LsEmLXU5-43" target="luG1cFGhX8F-LsEmLXU5-21" edge="1">
          <mxGeometry relative="1" as="geometry">
            <mxPoint x="873" y="1680" as="targetPoint" />
            <Array as="points">
              <mxPoint x="873" y="1670" />
              <mxPoint x="435" y="1670" />
            </Array>
          </mxGeometry>
        </mxCell>
        <mxCell id="luG1cFGhX8F-LsEmLXU5-80" value="" style="edgeStyle=orthogonalEdgeStyle;html=1;verticalAlign=bottom;endArrow=open;endSize=8;strokeColor=#ff0000;rounded=0;entryX=0.5;entryY=0;entryDx=0;entryDy=0;" parent="luG1cFGhX8F-LsEmLXU5-1" source="luG1cFGhX8F-LsEmLXU5-26" target="luG1cFGhX8F-LsEmLXU5-11" edge="1">
          <mxGeometry relative="1" as="geometry">
            <mxPoint x="385" y="1950" as="targetPoint" />
            <Array as="points">
              <mxPoint x="385" y="1920" />
              <mxPoint x="120" y="1920" />
            </Array>
          </mxGeometry>
        </mxCell>
        <mxCell id="luG1cFGhX8F-LsEmLXU5-81" value="" style="edgeStyle=orthogonalEdgeStyle;html=1;verticalAlign=bottom;endArrow=open;endSize=8;strokeColor=#ff0000;rounded=0;exitX=0.75;exitY=0.5;exitDx=0;exitDy=0;exitPerimeter=0;entryX=0.5;entryY=0;entryDx=0;entryDy=0;" parent="luG1cFGhX8F-LsEmLXU5-1" source="luG1cFGhX8F-LsEmLXU5-12" target="luG1cFGhX8F-LsEmLXU5-44" edge="1">
          <mxGeometry relative="1" as="geometry">
            <mxPoint x="170" y="2160" as="targetPoint" />
            <mxPoint x="170" y="2031" as="sourcePoint" />
            <Array as="points">
              <mxPoint x="170" y="2031" />
              <mxPoint x="873" y="2031" />
            </Array>
          </mxGeometry>
        </mxCell>
        <mxCell id="luG1cFGhX8F-LsEmLXU5-82" value="" style="edgeStyle=orthogonalEdgeStyle;html=1;verticalAlign=bottom;endArrow=open;endSize=8;strokeColor=#ff0000;rounded=0;exitX=0.25;exitY=0.5;exitDx=0;exitDy=0;exitPerimeter=0;entryX=0.5;entryY=0;entryDx=0;entryDy=0;" parent="luG1cFGhX8F-LsEmLXU5-1" source="luG1cFGhX8F-LsEmLXU5-12" target="luG1cFGhX8F-LsEmLXU5-38" edge="1">
          <mxGeometry relative="1" as="geometry">
            <mxPoint x="120" y="2150" as="targetPoint" />
            <Array as="points">
              <mxPoint x="70" y="2051" />
              <mxPoint x="625" y="2051" />
            </Array>
          </mxGeometry>
        </mxCell>
        <mxCell id="luG1cFGhX8F-LsEmLXU5-83" value="" style="edgeStyle=orthogonalEdgeStyle;html=1;verticalAlign=bottom;endArrow=open;endSize=8;strokeColor=#ff0000;rounded=0;entryX=0.25;entryY=0.5;entryDx=0;entryDy=0;entryPerimeter=0;" parent="luG1cFGhX8F-LsEmLXU5-1" source="luG1cFGhX8F-LsEmLXU5-38" target="luG1cFGhX8F-LsEmLXU5-32" edge="1">
          <mxGeometry relative="1" as="geometry">
            <mxPoint x="625" y="2181" as="targetPoint" />
            <Array as="points">
              <mxPoint x="625" y="2131" />
              <mxPoint x="335" y="2131" />
            </Array>
          </mxGeometry>
        </mxCell>
        <mxCell id="luG1cFGhX8F-LsEmLXU5-84" value="" style="edgeStyle=orthogonalEdgeStyle;html=1;verticalAlign=bottom;endArrow=open;endSize=8;strokeColor=#ff0000;rounded=0;entryX=0.75;entryY=0.5;entryDx=0;entryDy=0;entryPerimeter=0;" parent="luG1cFGhX8F-LsEmLXU5-1" source="luG1cFGhX8F-LsEmLXU5-44" target="luG1cFGhX8F-LsEmLXU5-32" edge="1">
          <mxGeometry relative="1" as="geometry">
            <mxPoint x="873" y="2181" as="targetPoint" />
            <Array as="points">
              <mxPoint x="873" y="2141" />
              <mxPoint x="435" y="2141" />
            </Array>
          </mxGeometry>
        </mxCell>
        <mxCell id="luG1cFGhX8F-LsEmLXU5-59" value="dx" style="swimlane;html=1;startSize=20;" parent="luG1cFGhX8F-LsEmLXU5-1" vertex="1">
          <mxGeometry x="1000" y="20" width="500" height="2420" as="geometry">
            <mxRectangle y="20" width="40" height="970" as="alternateBounds" />
          </mxGeometry>
        </mxCell>
        <mxCell id="luG1cFGhX8F-LsEmLXU5-60" value="ComputerAssistedTranslate" style="rounded=1;whiteSpace=wrap;html=1;arcSize=40;fontColor=#000000;fillColor=#ffffc0;strokeColor=#ff0000;" parent="luG1cFGhX8F-LsEmLXU5-59" vertex="1">
          <mxGeometry x="30" y="1066" width="260" height="40" as="geometry" />
        </mxCell>
        <mxCell id="luG1cFGhX8F-LsEmLXU5-61" value="" style="edgeStyle=orthogonalEdgeStyle;html=1;verticalAlign=bottom;endArrow=open;endSize=8;strokeColor=#ff0000;rounded=0;entryX=0.25;entryY=0.5;entryDx=0;entryDy=0;entryPerimeter=0;" parent="luG1cFGhX8F-LsEmLXU5-59" source="luG1cFGhX8F-LsEmLXU5-60" target="luG1cFGhX8F-LsEmLXU5-73" edge="1">
          <mxGeometry relative="1" as="geometry">
            <mxPoint x="160" y="1166" as="targetPoint" />
            <Array as="points">
              <mxPoint x="160" y="1220" />
              <mxPoint x="210" y="1220" />
            </Array>
          </mxGeometry>
        </mxCell>
        <mxCell id="luG1cFGhX8F-LsEmLXU5-62" value="" style="shape=line;html=1;strokeWidth=6;strokeColor=#ff0000;" parent="luG1cFGhX8F-LsEmLXU5-59" vertex="1">
          <mxGeometry x="60" y="1026" width="200" height="10" as="geometry" />
        </mxCell>
        <mxCell id="luG1cFGhX8F-LsEmLXU5-63" value="" style="edgeStyle=orthogonalEdgeStyle;html=1;verticalAlign=bottom;endArrow=open;endSize=8;strokeColor=#ff0000;rounded=0;entryX=0.5;entryY=0;entryDx=0;entryDy=0;" parent="luG1cFGhX8F-LsEmLXU5-59" source="luG1cFGhX8F-LsEmLXU5-62" target="luG1cFGhX8F-LsEmLXU5-60" edge="1">
          <mxGeometry relative="1" as="geometry">
            <mxPoint x="170" y="1106" as="targetPoint" />
          </mxGeometry>
        </mxCell>
        <mxCell id="luG1cFGhX8F-LsEmLXU5-64" value="" style="edgeStyle=orthogonalEdgeStyle;html=1;verticalAlign=bottom;endArrow=open;endSize=8;strokeColor=#ff0000;rounded=0;movable=1;resizable=1;rotatable=1;deletable=1;editable=1;locked=0;connectable=1;entryX=0.5;entryY=0;entryDx=0;entryDy=0;" parent="luG1cFGhX8F-LsEmLXU5-59" source="luG1cFGhX8F-LsEmLXU5-66" target="luG1cFGhX8F-LsEmLXU5-76" edge="1">
          <mxGeometry relative="1" as="geometry">
            <mxPoint x="350" y="910" as="targetPoint" />
          </mxGeometry>
        </mxCell>
        <mxCell id="luG1cFGhX8F-LsEmLXU5-65" value="" style="group" parent="luG1cFGhX8F-LsEmLXU5-59" vertex="1" connectable="0">
          <mxGeometry x="250" y="810" width="200" height="80" as="geometry" />
        </mxCell>
        <mxCell id="luG1cFGhX8F-LsEmLXU5-66" value="" style="shape=line;html=1;strokeWidth=6;strokeColor=#ff0000;movable=1;resizable=1;rotatable=1;deletable=1;editable=1;locked=0;connectable=1;" parent="luG1cFGhX8F-LsEmLXU5-65" vertex="1">
          <mxGeometry width="200" height="10" as="geometry" />
        </mxCell>
        <mxCell id="luG1cFGhX8F-LsEmLXU5-67" value="" style="edgeStyle=orthogonalEdgeStyle;html=1;verticalAlign=bottom;endArrow=open;endSize=8;strokeColor=#ff0000;rounded=0;movable=1;resizable=1;rotatable=1;deletable=1;editable=1;locked=0;connectable=1;entryX=0.5;entryY=0;entryDx=0;entryDy=0;" parent="luG1cFGhX8F-LsEmLXU5-65" target="luG1cFGhX8F-LsEmLXU5-71" edge="1">
          <mxGeometry relative="1" as="geometry">
            <mxPoint x="160" y="80" as="targetPoint" />
            <mxPoint x="160" y="10" as="sourcePoint" />
          </mxGeometry>
        </mxCell>
        <mxCell id="luG1cFGhX8F-LsEmLXU5-68" value="" style="edgeStyle=orthogonalEdgeStyle;html=1;verticalAlign=bottom;endArrow=open;endSize=8;strokeColor=#ff0000;rounded=0;movable=1;resizable=1;rotatable=1;deletable=1;editable=1;locked=0;connectable=1;entryX=0.75;entryY=0.5;entryDx=0;entryDy=0;entryPerimeter=0;" parent="luG1cFGhX8F-LsEmLXU5-65" target="luG1cFGhX8F-LsEmLXU5-62" edge="1">
          <mxGeometry relative="1" as="geometry">
            <mxPoint x="40" y="80" as="targetPoint" />
            <mxPoint x="40" y="10" as="sourcePoint" />
            <Array as="points">
              <mxPoint x="40" y="50" />
              <mxPoint x="-40" y="50" />
            </Array>
          </mxGeometry>
        </mxCell>
        <mxCell id="luG1cFGhX8F-LsEmLXU5-69" value="ManualTranslate" style="rounded=1;whiteSpace=wrap;html=1;arcSize=40;fontColor=#000000;fillColor=#ffffc0;strokeColor=#ff0000;" parent="luG1cFGhX8F-LsEmLXU5-59" vertex="1">
          <mxGeometry x="200" y="1170" width="120" height="40" as="geometry" />
        </mxCell>
        <mxCell id="luG1cFGhX8F-LsEmLXU5-70" value="" style="edgeStyle=orthogonalEdgeStyle;html=1;verticalAlign=bottom;endArrow=open;endSize=8;strokeColor=#ff0000;rounded=0;entryX=0.501;entryY=0.478;entryDx=0;entryDy=0;entryPerimeter=0;" parent="luG1cFGhX8F-LsEmLXU5-59" source="luG1cFGhX8F-LsEmLXU5-69" target="luG1cFGhX8F-LsEmLXU5-73" edge="1">
          <mxGeometry relative="1" as="geometry">
            <mxPoint x="260" y="1241" as="targetPoint" />
          </mxGeometry>
        </mxCell>
        <mxCell id="luG1cFGhX8F-LsEmLXU5-71" value="MachineTranslate" style="rounded=1;whiteSpace=wrap;html=1;arcSize=40;fontColor=#000000;fillColor=#ffffc0;strokeColor=#ff0000;" parent="luG1cFGhX8F-LsEmLXU5-59" vertex="1">
          <mxGeometry x="350" y="1170" width="120" height="40" as="geometry" />
        </mxCell>
        <mxCell id="luG1cFGhX8F-LsEmLXU5-72" value="" style="edgeStyle=orthogonalEdgeStyle;html=1;verticalAlign=bottom;endArrow=open;endSize=8;strokeColor=#ff0000;rounded=0;entryX=0.75;entryY=0.5;entryDx=0;entryDy=0;entryPerimeter=0;" parent="luG1cFGhX8F-LsEmLXU5-59" source="luG1cFGhX8F-LsEmLXU5-71" target="luG1cFGhX8F-LsEmLXU5-73" edge="1">
          <mxGeometry relative="1" as="geometry">
            <mxPoint x="410" y="1360" as="targetPoint" />
            <Array as="points">
              <mxPoint x="410" y="1220" />
              <mxPoint x="310" y="1220" />
            </Array>
          </mxGeometry>
        </mxCell>
        <mxCell id="luG1cFGhX8F-LsEmLXU5-73" value="" style="shape=line;html=1;strokeWidth=6;strokeColor=#ff0000;" parent="luG1cFGhX8F-LsEmLXU5-59" vertex="1">
          <mxGeometry x="160" y="1241" width="200" height="10" as="geometry" />
        </mxCell>
        <mxCell id="luG1cFGhX8F-LsEmLXU5-74" value="" style="edgeStyle=orthogonalEdgeStyle;html=1;verticalAlign=bottom;endArrow=open;endSize=8;strokeColor=#ff0000;rounded=0;exitX=0.502;exitY=0.492;exitDx=0;exitDy=0;exitPerimeter=0;entryX=0.5;entryY=0;entryDx=0;entryDy=0;" parent="luG1cFGhX8F-LsEmLXU5-59" source="luG1cFGhX8F-LsEmLXU5-73" target="luG1cFGhX8F-LsEmLXU5-78" edge="1">
          <mxGeometry relative="1" as="geometry">
            <mxPoint x="260" y="1290" as="targetPoint" />
          </mxGeometry>
        </mxCell>
        <mxCell id="luG1cFGhX8F-LsEmLXU5-75" value="" style="shape=line;html=1;strokeWidth=6;strokeColor=#ff0000;" parent="luG1cFGhX8F-LsEmLXU5-59" vertex="1">
          <mxGeometry x="160" y="1450" width="200" height="10" as="geometry" />
        </mxCell>
        <mxCell id="luG1cFGhX8F-LsEmLXU5-76" value="Association" style="rounded=1;whiteSpace=wrap;html=1;arcSize=40;fontColor=#000000;fillColor=#ffffc0;strokeColor=#ff0000;" parent="luG1cFGhX8F-LsEmLXU5-59" vertex="1">
          <mxGeometry x="270" y="950" width="120" height="40" as="geometry" />
        </mxCell>
        <mxCell id="luG1cFGhX8F-LsEmLXU5-77" value="" style="edgeStyle=orthogonalEdgeStyle;html=1;verticalAlign=bottom;endArrow=open;endSize=8;strokeColor=#ff0000;rounded=0;entryX=0.5;entryY=0;entryDx=0;entryDy=0;" parent="luG1cFGhX8F-LsEmLXU5-59" source="luG1cFGhX8F-LsEmLXU5-76" target="luG1cFGhX8F-LsEmLXU5-69" edge="1">
          <mxGeometry relative="1" as="geometry">
            <mxPoint x="320" y="1360" as="targetPoint" />
            <Array as="points">
              <mxPoint x="330" y="1140" />
              <mxPoint x="260" y="1140" />
            </Array>
          </mxGeometry>
        </mxCell>
        <mxCell id="luG1cFGhX8F-LsEmLXU5-78" value="SpellCheck" style="rounded=1;whiteSpace=wrap;html=1;arcSize=40;fontColor=#000000;fillColor=#ffffc0;strokeColor=#ff0000;" parent="luG1cFGhX8F-LsEmLXU5-59" vertex="1">
          <mxGeometry x="200" y="1340" width="120" height="40" as="geometry" />
        </mxCell>
        <mxCell id="luG1cFGhX8F-LsEmLXU5-79" value="" style="edgeStyle=orthogonalEdgeStyle;html=1;verticalAlign=bottom;endArrow=open;endSize=8;strokeColor=#ff0000;rounded=0;entryX=0.5;entryY=0.487;entryDx=0;entryDy=0;entryPerimeter=0;" parent="luG1cFGhX8F-LsEmLXU5-59" source="luG1cFGhX8F-LsEmLXU5-78" target="luG1cFGhX8F-LsEmLXU5-75" edge="1">
          <mxGeometry relative="1" as="geometry">
            <mxPoint x="60" y="1391" as="targetPoint" />
          </mxGeometry>
        </mxCell>
      </root>
    </mxGraphModel>
  </diagram>
  <diagram id="VsKk-6Bvj8Y7P4RIA1wZ" name="顺序图-创建新项目">
    <mxGraphModel dx="1500" dy="899" grid="1" gridSize="10" guides="1" tooltips="1" connect="1" arrows="1" fold="1" page="1" pageScale="1" pageWidth="827" pageHeight="1169" math="0" shadow="0">
      <root>
        <mxCell id="0" />
        <mxCell id="1" parent="0" />
        <mxCell id="w8EhDBQ0TJp4ZN7ND_j2-3" value="ProjectManager" style="shape=umlLifeline;perimeter=lifelinePerimeter;whiteSpace=wrap;html=1;container=1;dropTarget=0;collapsible=0;recursiveResize=0;outlineConnect=0;portConstraint=eastwest;newEdgeStyle={&quot;edgeStyle&quot;:&quot;elbowEdgeStyle&quot;,&quot;elbow&quot;:&quot;vertical&quot;,&quot;curved&quot;:0,&quot;rounded&quot;:0};" parent="1" vertex="1">
          <mxGeometry x="160" y="250" width="100" height="710" as="geometry" />
        </mxCell>
        <mxCell id="3mkCR_RYSsW5jckujmnh-5" value="" style="html=1;points=[];perimeter=orthogonalPerimeter;outlineConnect=0;targetShapes=umlLifeline;portConstraint=eastwest;newEdgeStyle={&quot;edgeStyle&quot;:&quot;elbowEdgeStyle&quot;,&quot;elbow&quot;:&quot;vertical&quot;,&quot;curved&quot;:0,&quot;rounded&quot;:0};" vertex="1" parent="w8EhDBQ0TJp4ZN7ND_j2-3">
          <mxGeometry x="45" y="50" width="10" height="620" as="geometry" />
        </mxCell>
        <mxCell id="lamPMZHJjeez7xlbcCuO-1" value="TranslationFile&lt;br&gt;Manager" style="shape=umlLifeline;perimeter=lifelinePerimeter;whiteSpace=wrap;html=1;container=1;dropTarget=0;collapsible=0;recursiveResize=0;outlineConnect=0;portConstraint=eastwest;newEdgeStyle={&quot;edgeStyle&quot;:&quot;elbowEdgeStyle&quot;,&quot;elbow&quot;:&quot;vertical&quot;,&quot;curved&quot;:0,&quot;rounded&quot;:0};" parent="1" vertex="1">
          <mxGeometry x="420" y="250" width="100" height="710" as="geometry" />
        </mxCell>
        <mxCell id="qhZpX4jfchFe0htKUBws-1" value="" style="html=1;points=[];perimeter=orthogonalPerimeter;outlineConnect=0;targetShapes=umlLifeline;portConstraint=eastwest;newEdgeStyle={&quot;edgeStyle&quot;:&quot;elbowEdgeStyle&quot;,&quot;elbow&quot;:&quot;vertical&quot;,&quot;curved&quot;:0,&quot;rounded&quot;:0};" vertex="1" parent="lamPMZHJjeez7xlbcCuO-1">
          <mxGeometry x="45" y="140" width="10" height="190" as="geometry" />
        </mxCell>
        <mxCell id="KU_1LFJumljdbu1bN_fo-1" value="MemoryLibrary&lt;br&gt;Manager" style="shape=umlLifeline;perimeter=lifelinePerimeter;whiteSpace=wrap;html=1;container=1;dropTarget=0;collapsible=0;recursiveResize=0;outlineConnect=0;portConstraint=eastwest;newEdgeStyle={&quot;edgeStyle&quot;:&quot;elbowEdgeStyle&quot;,&quot;elbow&quot;:&quot;vertical&quot;,&quot;curved&quot;:0,&quot;rounded&quot;:0};" vertex="1" parent="1">
          <mxGeometry x="680" y="250" width="100" height="710" as="geometry" />
        </mxCell>
        <mxCell id="kp-XYuP9qNQf1SdezNrK-1" value="" style="html=1;points=[];perimeter=orthogonalPerimeter;outlineConnect=0;targetShapes=umlLifeline;portConstraint=eastwest;newEdgeStyle={&quot;edgeStyle&quot;:&quot;elbowEdgeStyle&quot;,&quot;elbow&quot;:&quot;vertical&quot;,&quot;curved&quot;:0,&quot;rounded&quot;:0};" vertex="1" parent="KU_1LFJumljdbu1bN_fo-1">
          <mxGeometry x="45" y="370" width="10" height="100" as="geometry" />
        </mxCell>
        <mxCell id="KU_1LFJumljdbu1bN_fo-2" value="TermLibrary Manager" style="shape=umlLifeline;perimeter=lifelinePerimeter;whiteSpace=wrap;html=1;container=1;dropTarget=0;collapsible=0;recursiveResize=0;outlineConnect=0;portConstraint=eastwest;newEdgeStyle={&quot;edgeStyle&quot;:&quot;elbowEdgeStyle&quot;,&quot;elbow&quot;:&quot;vertical&quot;,&quot;curved&quot;:0,&quot;rounded&quot;:0};" vertex="1" parent="1">
          <mxGeometry x="960" y="250" width="100" height="710" as="geometry" />
        </mxCell>
        <mxCell id="62ltud7K2pr_QI4mXoo5-1" value="" style="html=1;points=[];perimeter=orthogonalPerimeter;outlineConnect=0;targetShapes=umlLifeline;portConstraint=eastwest;newEdgeStyle={&quot;edgeStyle&quot;:&quot;elbowEdgeStyle&quot;,&quot;elbow&quot;:&quot;vertical&quot;,&quot;curved&quot;:0,&quot;rounded&quot;:0};" vertex="1" parent="KU_1LFJumljdbu1bN_fo-2">
          <mxGeometry x="45" y="510" width="10" height="110" as="geometry" />
        </mxCell>
        <mxCell id="KU_1LFJumljdbu1bN_fo-3" value="CAT_Project" style="shape=umlLifeline;perimeter=lifelinePerimeter;whiteSpace=wrap;html=1;container=1;dropTarget=0;collapsible=0;recursiveResize=0;outlineConnect=0;portConstraint=eastwest;newEdgeStyle={&quot;edgeStyle&quot;:&quot;elbowEdgeStyle&quot;,&quot;elbow&quot;:&quot;vertical&quot;,&quot;curved&quot;:0,&quot;rounded&quot;:0};" vertex="1" parent="1">
          <mxGeometry x="290" y="250" width="100" height="710" as="geometry" />
        </mxCell>
        <mxCell id="1IP-bUeD-nVaALzlTIAs-1" value="" style="html=1;points=[];perimeter=orthogonalPerimeter;outlineConnect=0;targetShapes=umlLifeline;portConstraint=eastwest;newEdgeStyle={&quot;edgeStyle&quot;:&quot;elbowEdgeStyle&quot;,&quot;elbow&quot;:&quot;vertical&quot;,&quot;curved&quot;:0,&quot;rounded&quot;:0};" vertex="1" parent="KU_1LFJumljdbu1bN_fo-3">
          <mxGeometry x="45" y="100" width="10" height="570" as="geometry" />
        </mxCell>
        <mxCell id="KU_1LFJumljdbu1bN_fo-4" value="TranslationFile" style="shape=umlLifeline;perimeter=lifelinePerimeter;whiteSpace=wrap;html=1;container=1;dropTarget=0;collapsible=0;recursiveResize=0;outlineConnect=0;portConstraint=eastwest;newEdgeStyle={&quot;edgeStyle&quot;:&quot;elbowEdgeStyle&quot;,&quot;elbow&quot;:&quot;vertical&quot;,&quot;curved&quot;:0,&quot;rounded&quot;:0};" vertex="1" parent="1">
          <mxGeometry x="550" y="250" width="100" height="710" as="geometry" />
        </mxCell>
        <mxCell id="qhZpX4jfchFe0htKUBws-4" value="" style="html=1;points=[];perimeter=orthogonalPerimeter;outlineConnect=0;targetShapes=umlLifeline;portConstraint=eastwest;newEdgeStyle={&quot;edgeStyle&quot;:&quot;elbowEdgeStyle&quot;,&quot;elbow&quot;:&quot;vertical&quot;,&quot;curved&quot;:0,&quot;rounded&quot;:0};" vertex="1" parent="KU_1LFJumljdbu1bN_fo-4">
          <mxGeometry x="45" y="170" width="10" height="120" as="geometry" />
        </mxCell>
        <mxCell id="KU_1LFJumljdbu1bN_fo-5" value="MemoryLibrary" style="shape=umlLifeline;perimeter=lifelinePerimeter;whiteSpace=wrap;html=1;container=1;dropTarget=0;collapsible=0;recursiveResize=0;outlineConnect=0;portConstraint=eastwest;newEdgeStyle={&quot;edgeStyle&quot;:&quot;elbowEdgeStyle&quot;,&quot;elbow&quot;:&quot;vertical&quot;,&quot;curved&quot;:0,&quot;rounded&quot;:0};" vertex="1" parent="1">
          <mxGeometry x="820" y="250" width="100" height="710" as="geometry" />
        </mxCell>
        <mxCell id="Bm3TjA7RYJZ7n4dioqhI-1" value="" style="html=1;points=[];perimeter=orthogonalPerimeter;outlineConnect=0;targetShapes=umlLifeline;portConstraint=eastwest;newEdgeStyle={&quot;edgeStyle&quot;:&quot;elbowEdgeStyle&quot;,&quot;elbow&quot;:&quot;vertical&quot;,&quot;curved&quot;:0,&quot;rounded&quot;:0};" vertex="1" parent="KU_1LFJumljdbu1bN_fo-5">
          <mxGeometry x="45" y="400" width="10" height="40" as="geometry" />
        </mxCell>
        <mxCell id="KU_1LFJumljdbu1bN_fo-6" value="TermLibrary" style="shape=umlLifeline;perimeter=lifelinePerimeter;whiteSpace=wrap;html=1;container=1;dropTarget=0;collapsible=0;recursiveResize=0;outlineConnect=0;portConstraint=eastwest;newEdgeStyle={&quot;edgeStyle&quot;:&quot;elbowEdgeStyle&quot;,&quot;elbow&quot;:&quot;vertical&quot;,&quot;curved&quot;:0,&quot;rounded&quot;:0};" vertex="1" parent="1">
          <mxGeometry x="1100" y="250" width="100" height="710" as="geometry" />
        </mxCell>
        <mxCell id="62ltud7K2pr_QI4mXoo5-4" value="" style="html=1;points=[];perimeter=orthogonalPerimeter;outlineConnect=0;targetShapes=umlLifeline;portConstraint=eastwest;newEdgeStyle={&quot;edgeStyle&quot;:&quot;elbowEdgeStyle&quot;,&quot;elbow&quot;:&quot;vertical&quot;,&quot;curved&quot;:0,&quot;rounded&quot;:0};" vertex="1" parent="KU_1LFJumljdbu1bN_fo-6">
          <mxGeometry x="45" y="540" width="10" height="40" as="geometry" />
        </mxCell>
        <mxCell id="1IP-bUeD-nVaALzlTIAs-2" value="CreateProject()" style="html=1;verticalAlign=bottom;endArrow=block;edgeStyle=elbowEdgeStyle;elbow=vertical;curved=0;rounded=0;" edge="1" target="1IP-bUeD-nVaALzlTIAs-1" parent="1" source="3mkCR_RYSsW5jckujmnh-5">
          <mxGeometry relative="1" as="geometry">
            <mxPoint x="220" y="350" as="sourcePoint" />
            <Array as="points">
              <mxPoint x="270" y="350" />
            </Array>
          </mxGeometry>
        </mxCell>
        <mxCell id="qhZpX4jfchFe0htKUBws-2" value="ReadFile()" style="html=1;verticalAlign=bottom;endArrow=block;edgeStyle=elbowEdgeStyle;elbow=vertical;curved=0;rounded=0;" edge="1" target="qhZpX4jfchFe0htKUBws-1" parent="1" source="1IP-bUeD-nVaALzlTIAs-1">
          <mxGeometry relative="1" as="geometry">
            <mxPoint x="395" y="380" as="sourcePoint" />
            <Array as="points">
              <mxPoint x="420" y="390" />
            </Array>
          </mxGeometry>
        </mxCell>
        <mxCell id="qhZpX4jfchFe0htKUBws-5" value="TranslaitonFile()" style="html=1;verticalAlign=bottom;endArrow=block;edgeStyle=elbowEdgeStyle;elbow=vertical;curved=0;rounded=0;" edge="1" target="qhZpX4jfchFe0htKUBws-4" parent="1" source="qhZpX4jfchFe0htKUBws-1">
          <mxGeometry relative="1" as="geometry">
            <mxPoint x="525" y="420" as="sourcePoint" />
            <Array as="points">
              <mxPoint x="525" y="420" />
            </Array>
          </mxGeometry>
        </mxCell>
        <mxCell id="qhZpX4jfchFe0htKUBws-6" value="TranslationFile" style="html=1;verticalAlign=bottom;endArrow=open;dashed=1;endSize=8;edgeStyle=elbowEdgeStyle;elbow=vertical;curved=0;rounded=0;" edge="1" source="qhZpX4jfchFe0htKUBws-4" parent="1" target="qhZpX4jfchFe0htKUBws-1">
          <mxGeometry relative="1" as="geometry">
            <mxPoint x="525" y="495" as="targetPoint" />
            <Array as="points">
              <mxPoint x="500" y="460" />
              <mxPoint x="525" y="495" />
            </Array>
          </mxGeometry>
        </mxCell>
        <mxCell id="qhZpX4jfchFe0htKUBws-9" value="TranslaitonFile" style="html=1;verticalAlign=bottom;endArrow=open;dashed=1;endSize=8;edgeStyle=elbowEdgeStyle;elbow=vertical;curved=0;rounded=0;" edge="1" parent="1" source="qhZpX4jfchFe0htKUBws-1" target="1IP-bUeD-nVaALzlTIAs-1">
          <mxGeometry relative="1" as="geometry">
            <mxPoint x="450" y="550" as="sourcePoint" />
            <mxPoint x="370" y="550" as="targetPoint" />
            <Array as="points">
              <mxPoint x="440" y="580" />
              <mxPoint x="370" y="550" />
            </Array>
          </mxGeometry>
        </mxCell>
        <mxCell id="O26Ji0Y420aDhIhL1sYs-1" value="DivideParagraph()" style="html=1;verticalAlign=bottom;endArrow=block;edgeStyle=elbowEdgeStyle;elbow=vertical;curved=0;rounded=0;" edge="1" parent="1" source="qhZpX4jfchFe0htKUBws-4" target="qhZpX4jfchFe0htKUBws-1">
          <mxGeometry width="80" relative="1" as="geometry">
            <mxPoint x="510" y="570" as="sourcePoint" />
            <mxPoint x="590" y="570" as="targetPoint" />
            <Array as="points">
              <mxPoint x="550" y="500" />
            </Array>
          </mxGeometry>
        </mxCell>
        <mxCell id="O26Ji0Y420aDhIhL1sYs-2" value="Sentence[]" style="html=1;verticalAlign=bottom;endArrow=open;dashed=1;endSize=8;edgeStyle=elbowEdgeStyle;elbow=vertical;curved=0;rounded=0;" edge="1" parent="1" source="qhZpX4jfchFe0htKUBws-1" target="qhZpX4jfchFe0htKUBws-4">
          <mxGeometry relative="1" as="geometry">
            <mxPoint x="710" y="550" as="sourcePoint" />
            <mxPoint x="630" y="550" as="targetPoint" />
            <Array as="points">
              <mxPoint x="550" y="540" />
            </Array>
          </mxGeometry>
        </mxCell>
        <mxCell id="kp-XYuP9qNQf1SdezNrK-2" value="CreateMemoryLibrary()" style="html=1;verticalAlign=bottom;endArrow=block;edgeStyle=elbowEdgeStyle;elbow=vertical;curved=0;rounded=0;" edge="1" target="kp-XYuP9qNQf1SdezNrK-1" parent="1" source="1IP-bUeD-nVaALzlTIAs-1">
          <mxGeometry relative="1" as="geometry">
            <mxPoint x="655" y="620" as="sourcePoint" />
            <Array as="points">
              <mxPoint x="570" y="620" />
            </Array>
          </mxGeometry>
        </mxCell>
        <mxCell id="kp-XYuP9qNQf1SdezNrK-3" value="MemoryLibrary" style="html=1;verticalAlign=bottom;endArrow=open;dashed=1;endSize=8;edgeStyle=elbowEdgeStyle;elbow=vertical;curved=0;rounded=0;" edge="1" source="kp-XYuP9qNQf1SdezNrK-1" parent="1" target="1IP-bUeD-nVaALzlTIAs-1">
          <mxGeometry x="0.0023" relative="1" as="geometry">
            <mxPoint x="655" y="695" as="targetPoint" />
            <Array as="points">
              <mxPoint x="680" y="720" />
              <mxPoint x="560" y="730" />
              <mxPoint x="680" y="750" />
              <mxPoint x="420" y="740" />
            </Array>
            <mxPoint as="offset" />
          </mxGeometry>
        </mxCell>
        <mxCell id="Bm3TjA7RYJZ7n4dioqhI-2" value="MemoryLibrary()" style="html=1;verticalAlign=bottom;endArrow=block;edgeStyle=elbowEdgeStyle;elbow=vertical;curved=0;rounded=0;" edge="1" target="Bm3TjA7RYJZ7n4dioqhI-1" parent="1" source="kp-XYuP9qNQf1SdezNrK-1">
          <mxGeometry relative="1" as="geometry">
            <mxPoint x="795" y="645" as="sourcePoint" />
            <Array as="points">
              <mxPoint x="790" y="650" />
            </Array>
          </mxGeometry>
        </mxCell>
        <mxCell id="Bm3TjA7RYJZ7n4dioqhI-3" value="MemoryLibrary" style="html=1;verticalAlign=bottom;endArrow=open;dashed=1;endSize=8;edgeStyle=elbowEdgeStyle;elbow=vertical;curved=0;rounded=0;" edge="1" source="Bm3TjA7RYJZ7n4dioqhI-1" parent="1" target="kp-XYuP9qNQf1SdezNrK-1">
          <mxGeometry relative="1" as="geometry">
            <mxPoint x="795" y="720" as="targetPoint" />
            <Array as="points">
              <mxPoint x="770" y="690" />
              <mxPoint x="800" y="720" />
            </Array>
          </mxGeometry>
        </mxCell>
        <mxCell id="62ltud7K2pr_QI4mXoo5-2" value="CreateTermLibrary()" style="html=1;verticalAlign=bottom;endArrow=block;edgeStyle=elbowEdgeStyle;elbow=vertical;curved=0;rounded=0;" edge="1" target="62ltud7K2pr_QI4mXoo5-1" parent="1" source="1IP-bUeD-nVaALzlTIAs-1">
          <mxGeometry relative="1" as="geometry">
            <mxPoint x="935" y="760" as="sourcePoint" />
            <Array as="points">
              <mxPoint x="830" y="760" />
            </Array>
          </mxGeometry>
        </mxCell>
        <mxCell id="62ltud7K2pr_QI4mXoo5-3" value="TermLibrary" style="html=1;verticalAlign=bottom;endArrow=open;dashed=1;endSize=8;edgeStyle=elbowEdgeStyle;elbow=vertical;curved=0;rounded=0;" edge="1" source="62ltud7K2pr_QI4mXoo5-1" parent="1" target="1IP-bUeD-nVaALzlTIAs-1">
          <mxGeometry relative="1" as="geometry">
            <mxPoint x="935" y="835" as="targetPoint" />
            <Array as="points">
              <mxPoint x="950" y="870" />
              <mxPoint x="920" y="790" />
            </Array>
          </mxGeometry>
        </mxCell>
        <mxCell id="62ltud7K2pr_QI4mXoo5-5" value="TremLibrary()" style="html=1;verticalAlign=bottom;endArrow=block;edgeStyle=elbowEdgeStyle;elbow=vertical;curved=0;rounded=0;" edge="1" target="62ltud7K2pr_QI4mXoo5-4" parent="1" source="62ltud7K2pr_QI4mXoo5-1">
          <mxGeometry relative="1" as="geometry">
            <mxPoint x="1075" y="790" as="sourcePoint" />
            <Array as="points">
              <mxPoint x="1070" y="790" />
            </Array>
          </mxGeometry>
        </mxCell>
        <mxCell id="62ltud7K2pr_QI4mXoo5-6" value="TermLibrary" style="html=1;verticalAlign=bottom;endArrow=open;dashed=1;endSize=8;edgeStyle=elbowEdgeStyle;elbow=vertical;curved=0;rounded=0;" edge="1" source="62ltud7K2pr_QI4mXoo5-4" parent="1" target="62ltud7K2pr_QI4mXoo5-1">
          <mxGeometry relative="1" as="geometry">
            <mxPoint x="1075" y="865" as="targetPoint" />
            <Array as="points">
              <mxPoint x="1110" y="830" />
            </Array>
          </mxGeometry>
        </mxCell>
        <mxCell id="62ltud7K2pr_QI4mXoo5-7" value="CAT_Project" style="html=1;verticalAlign=bottom;endArrow=open;dashed=1;endSize=8;edgeStyle=elbowEdgeStyle;elbow=vertical;curved=0;rounded=0;" edge="1" parent="1" source="1IP-bUeD-nVaALzlTIAs-1" target="3mkCR_RYSsW5jckujmnh-5">
          <mxGeometry relative="1" as="geometry">
            <mxPoint x="340" y="1050" as="sourcePoint" />
            <mxPoint x="260" y="1050" as="targetPoint" />
            <Array as="points">
              <mxPoint x="290" y="920" />
            </Array>
          </mxGeometry>
        </mxCell>
      </root>
    </mxGraphModel>
  </diagram>
  <diagram id="k5EAE-IyKmSpOpjjUPrZ" name="流程图-翻译文件">
    <mxGraphModel dx="1615" dy="968" grid="1" gridSize="10" guides="1" tooltips="1" connect="1" arrows="1" fold="1" page="1" pageScale="1" pageWidth="827" pageHeight="1169" math="0" shadow="0">
      <root>
        <mxCell id="0" />
        <mxCell id="1" parent="0" />
        <mxCell id="VgeGlqFBENNZ7os_Mt-I-1" value="CAT_Project" style="shape=umlLifeline;perimeter=lifelinePerimeter;whiteSpace=wrap;html=1;container=1;dropTarget=0;collapsible=0;recursiveResize=0;outlineConnect=0;portConstraint=eastwest;newEdgeStyle={&quot;edgeStyle&quot;:&quot;elbowEdgeStyle&quot;,&quot;elbow&quot;:&quot;vertical&quot;,&quot;curved&quot;:0,&quot;rounded&quot;:0};" vertex="1" parent="1">
          <mxGeometry x="80" y="80" width="100" height="1200" as="geometry" />
        </mxCell>
        <mxCell id="LnknCYnBBujgNZKn9NqM-1" value="" style="html=1;points=[];perimeter=orthogonalPerimeter;outlineConnect=0;targetShapes=umlLifeline;portConstraint=eastwest;newEdgeStyle={&quot;edgeStyle&quot;:&quot;elbowEdgeStyle&quot;,&quot;elbow&quot;:&quot;vertical&quot;,&quot;curved&quot;:0,&quot;rounded&quot;:0};" vertex="1" parent="VgeGlqFBENNZ7os_Mt-I-1">
          <mxGeometry x="45" y="60" width="10" height="1090" as="geometry" />
        </mxCell>
        <mxCell id="tF_9ionTqYpQhl3TLhOA-1" value="" style="html=1;points=[];perimeter=orthogonalPerimeter;outlineConnect=0;targetShapes=umlLifeline;portConstraint=eastwest;newEdgeStyle={&quot;edgeStyle&quot;:&quot;elbowEdgeStyle&quot;,&quot;elbow&quot;:&quot;vertical&quot;,&quot;curved&quot;:0,&quot;rounded&quot;:0};" vertex="1" parent="VgeGlqFBENNZ7os_Mt-I-1">
          <mxGeometry x="50" y="1080" width="10" height="40" as="geometry" />
        </mxCell>
        <mxCell id="tF_9ionTqYpQhl3TLhOA-2" value="SaveProject()" style="html=1;align=left;spacingLeft=2;endArrow=block;rounded=0;edgeStyle=orthogonalEdgeStyle;curved=0;rounded=0;" edge="1" target="tF_9ionTqYpQhl3TLhOA-1" parent="VgeGlqFBENNZ7os_Mt-I-1">
          <mxGeometry relative="1" as="geometry">
            <mxPoint x="55" y="1060" as="sourcePoint" />
            <Array as="points">
              <mxPoint x="85" y="1090" />
            </Array>
          </mxGeometry>
        </mxCell>
        <mxCell id="ozWhnC1v66mQ8d3Gy1-P-1" value="TranslationFile&lt;br&gt;Manager" style="shape=umlLifeline;perimeter=lifelinePerimeter;whiteSpace=wrap;html=1;container=1;dropTarget=0;collapsible=0;recursiveResize=0;outlineConnect=0;portConstraint=eastwest;newEdgeStyle={&quot;edgeStyle&quot;:&quot;elbowEdgeStyle&quot;,&quot;elbow&quot;:&quot;vertical&quot;,&quot;curved&quot;:0,&quot;rounded&quot;:0};" vertex="1" parent="1">
          <mxGeometry x="220" y="80" width="100" height="1200" as="geometry" />
        </mxCell>
        <mxCell id="QLkS0Xqpc89n-KZRpVx0-1" value="" style="html=1;points=[];perimeter=orthogonalPerimeter;outlineConnect=0;targetShapes=umlLifeline;portConstraint=eastwest;newEdgeStyle={&quot;edgeStyle&quot;:&quot;elbowEdgeStyle&quot;,&quot;elbow&quot;:&quot;vertical&quot;,&quot;curved&quot;:0,&quot;rounded&quot;:0};" vertex="1" parent="ozWhnC1v66mQ8d3Gy1-P-1">
          <mxGeometry x="45" y="90" width="10" height="770" as="geometry" />
        </mxCell>
        <mxCell id="ozWhnC1v66mQ8d3Gy1-P-2" value="MemoryLibrary&lt;br&gt;Manager" style="shape=umlLifeline;perimeter=lifelinePerimeter;whiteSpace=wrap;html=1;container=1;dropTarget=0;collapsible=0;recursiveResize=0;outlineConnect=0;portConstraint=eastwest;newEdgeStyle={&quot;edgeStyle&quot;:&quot;elbowEdgeStyle&quot;,&quot;elbow&quot;:&quot;vertical&quot;,&quot;curved&quot;:0,&quot;rounded&quot;:0};" vertex="1" parent="1">
          <mxGeometry x="639" y="80" width="100" height="1200" as="geometry" />
        </mxCell>
        <mxCell id="jRL4w0JEzV1NAJsAN5yX-1" value="" style="html=1;points=[];perimeter=orthogonalPerimeter;outlineConnect=0;targetShapes=umlLifeline;portConstraint=eastwest;newEdgeStyle={&quot;edgeStyle&quot;:&quot;elbowEdgeStyle&quot;,&quot;elbow&quot;:&quot;vertical&quot;,&quot;curved&quot;:0,&quot;rounded&quot;:0};" vertex="1" parent="ozWhnC1v66mQ8d3Gy1-P-2">
          <mxGeometry x="45" y="220" width="10" height="30" as="geometry" />
        </mxCell>
        <mxCell id="ZHqj_R1u3usJHergDjlY-1" value="" style="html=1;points=[];perimeter=orthogonalPerimeter;outlineConnect=0;targetShapes=umlLifeline;portConstraint=eastwest;newEdgeStyle={&quot;edgeStyle&quot;:&quot;elbowEdgeStyle&quot;,&quot;elbow&quot;:&quot;vertical&quot;,&quot;curved&quot;:0,&quot;rounded&quot;:0};" vertex="1" parent="ozWhnC1v66mQ8d3Gy1-P-2">
          <mxGeometry x="45" y="901" width="10" height="40" as="geometry" />
        </mxCell>
        <mxCell id="qlUmjTK1EQsYfUMq4e_O-2" value="AddItem()" style="html=1;verticalAlign=bottom;endArrow=block;edgeStyle=elbowEdgeStyle;elbow=vertical;curved=0;rounded=0;" edge="1" parent="ozWhnC1v66mQ8d3Gy1-P-2" target="qlUmjTK1EQsYfUMq4e_O-1">
          <mxGeometry x="-0.7632" relative="1" as="geometry">
            <mxPoint x="-504" y="980" as="sourcePoint" />
            <Array as="points">
              <mxPoint x="-319" y="980" />
            </Array>
            <mxPoint as="offset" />
          </mxGeometry>
        </mxCell>
        <mxCell id="qlUmjTK1EQsYfUMq4e_O-3" value="return" style="html=1;verticalAlign=bottom;endArrow=open;dashed=1;endSize=8;edgeStyle=elbowEdgeStyle;elbow=vertical;curved=0;rounded=0;" edge="1" parent="ozWhnC1v66mQ8d3Gy1-P-2" source="qlUmjTK1EQsYfUMq4e_O-1">
          <mxGeometry x="0.7632" relative="1" as="geometry">
            <mxPoint x="-504" y="1020" as="targetPoint" />
            <Array as="points">
              <mxPoint x="-149" y="1020" />
            </Array>
            <mxPoint as="offset" />
          </mxGeometry>
        </mxCell>
        <mxCell id="LnknCYnBBujgNZKn9NqM-2" value="Translator" style="shape=umlLifeline;perimeter=lifelinePerimeter;whiteSpace=wrap;html=1;container=1;dropTarget=0;collapsible=0;recursiveResize=0;outlineConnect=0;portConstraint=eastwest;newEdgeStyle={&quot;edgeStyle&quot;:&quot;elbowEdgeStyle&quot;,&quot;elbow&quot;:&quot;vertical&quot;,&quot;curved&quot;:0,&quot;rounded&quot;:0};" vertex="1" parent="1">
          <mxGeometry x="499" y="80" width="100" height="1200" as="geometry" />
        </mxCell>
        <mxCell id="QLkS0Xqpc89n-KZRpVx0-2" value="TranslateFile()" style="html=1;verticalAlign=bottom;endArrow=block;edgeStyle=elbowEdgeStyle;elbow=vertical;curved=0;rounded=0;" edge="1" target="QLkS0Xqpc89n-KZRpVx0-1" parent="1" source="LnknCYnBBujgNZKn9NqM-1">
          <mxGeometry relative="1" as="geometry">
            <mxPoint x="195" y="170" as="sourcePoint" />
            <Array as="points">
              <mxPoint x="170" y="170" />
            </Array>
          </mxGeometry>
        </mxCell>
        <mxCell id="SKff6eeyyELOY8i9Jy7v-1" value="TermLibrary&lt;br&gt;Manager" style="shape=umlLifeline;perimeter=lifelinePerimeter;whiteSpace=wrap;html=1;container=1;dropTarget=0;collapsible=0;recursiveResize=0;outlineConnect=0;portConstraint=eastwest;newEdgeStyle={&quot;edgeStyle&quot;:&quot;elbowEdgeStyle&quot;,&quot;elbow&quot;:&quot;vertical&quot;,&quot;curved&quot;:0,&quot;rounded&quot;:0};" vertex="1" parent="1">
          <mxGeometry x="779" y="80" width="100" height="1200" as="geometry" />
        </mxCell>
        <mxCell id="g7maT8xQ4kBCYiyjRN7e-1" value="" style="html=1;points=[];perimeter=orthogonalPerimeter;outlineConnect=0;targetShapes=umlLifeline;portConstraint=eastwest;newEdgeStyle={&quot;edgeStyle&quot;:&quot;elbowEdgeStyle&quot;,&quot;elbow&quot;:&quot;vertical&quot;,&quot;curved&quot;:0,&quot;rounded&quot;:0};" vertex="1" parent="SKff6eeyyELOY8i9Jy7v-1">
          <mxGeometry x="45" y="160" width="10" height="30" as="geometry" />
        </mxCell>
        <mxCell id="qlUmjTK1EQsYfUMq4e_O-1" value="" style="html=1;points=[];perimeter=orthogonalPerimeter;outlineConnect=0;targetShapes=umlLifeline;portConstraint=eastwest;newEdgeStyle={&quot;edgeStyle&quot;:&quot;elbowEdgeStyle&quot;,&quot;elbow&quot;:&quot;vertical&quot;,&quot;curved&quot;:0,&quot;rounded&quot;:0};" vertex="1" parent="SKff6eeyyELOY8i9Jy7v-1">
          <mxGeometry x="45" y="980" width="10" height="40" as="geometry" />
        </mxCell>
        <mxCell id="BYvF6CeGirrd8oCo7XOj-1" value="EditHelper" style="shape=umlLifeline;perimeter=lifelinePerimeter;whiteSpace=wrap;html=1;container=1;dropTarget=0;collapsible=0;recursiveResize=0;outlineConnect=0;portConstraint=eastwest;newEdgeStyle={&quot;edgeStyle&quot;:&quot;elbowEdgeStyle&quot;,&quot;elbow&quot;:&quot;vertical&quot;,&quot;curved&quot;:0,&quot;rounded&quot;:0};" vertex="1" parent="1">
          <mxGeometry x="919" y="80" width="100" height="1200" as="geometry" />
        </mxCell>
        <mxCell id="OxZGfkn5XGeti3o3H2DM-1" value="" style="html=1;points=[];perimeter=orthogonalPerimeter;outlineConnect=0;targetShapes=umlLifeline;portConstraint=eastwest;newEdgeStyle={&quot;edgeStyle&quot;:&quot;elbowEdgeStyle&quot;,&quot;elbow&quot;:&quot;vertical&quot;,&quot;curved&quot;:0,&quot;rounded&quot;:0};" vertex="1" parent="BYvF6CeGirrd8oCo7XOj-1">
          <mxGeometry x="45" y="722" width="10" height="48" as="geometry" />
        </mxCell>
        <mxCell id="Xja5eGKT_MnVNnrP7Ny--2" value="TranslateParagraph()" style="html=1;verticalAlign=bottom;endArrow=block;edgeStyle=elbowEdgeStyle;elbow=vertical;curved=0;rounded=0;" edge="1" target="Xja5eGKT_MnVNnrP7Ny--1" parent="1" source="QLkS0Xqpc89n-KZRpVx0-1">
          <mxGeometry relative="1" as="geometry">
            <mxPoint x="334" y="210" as="sourcePoint" />
            <Array as="points">
              <mxPoint x="310" y="210" />
            </Array>
          </mxGeometry>
        </mxCell>
        <mxCell id="jRL4w0JEzV1NAJsAN5yX-2" value="MatchItem()" style="html=1;verticalAlign=bottom;endArrow=block;edgeStyle=elbowEdgeStyle;elbow=vertical;curved=0;rounded=0;" edge="1" target="jRL4w0JEzV1NAJsAN5yX-1" parent="1" source="Xja5eGKT_MnVNnrP7Ny--1">
          <mxGeometry x="0.0033" relative="1" as="geometry">
            <mxPoint x="475" y="240" as="sourcePoint" />
            <Array as="points">
              <mxPoint x="460" y="300" />
              <mxPoint x="490" y="380" />
              <mxPoint x="440" y="240" />
            </Array>
            <mxPoint as="offset" />
          </mxGeometry>
        </mxCell>
        <mxCell id="jRL4w0JEzV1NAJsAN5yX-3" value="String" style="html=1;verticalAlign=bottom;endArrow=open;dashed=1;endSize=8;edgeStyle=elbowEdgeStyle;elbow=vertical;curved=0;rounded=0;" edge="1" source="jRL4w0JEzV1NAJsAN5yX-1" parent="1" target="Xja5eGKT_MnVNnrP7Ny--1">
          <mxGeometry relative="1" as="geometry">
            <mxPoint x="475" y="315" as="targetPoint" />
            <Array as="points">
              <mxPoint x="470" y="330" />
              <mxPoint x="480" y="420" />
              <mxPoint x="450" y="280" />
            </Array>
          </mxGeometry>
        </mxCell>
        <mxCell id="g7maT8xQ4kBCYiyjRN7e-2" value="MatchItem()" style="html=1;verticalAlign=bottom;endArrow=block;edgeStyle=elbowEdgeStyle;elbow=vertical;curved=0;rounded=0;" edge="1" target="g7maT8xQ4kBCYiyjRN7e-1" parent="1" source="Xja5eGKT_MnVNnrP7Ny--1">
          <mxGeometry x="-0.5129" relative="1" as="geometry">
            <mxPoint x="615" y="310" as="sourcePoint" />
            <Array as="points">
              <mxPoint x="640" y="240" />
              <mxPoint x="480" y="310" />
            </Array>
            <mxPoint as="offset" />
          </mxGeometry>
        </mxCell>
        <mxCell id="g7maT8xQ4kBCYiyjRN7e-3" value="String" style="html=1;verticalAlign=bottom;endArrow=open;dashed=1;endSize=8;edgeStyle=elbowEdgeStyle;elbow=vertical;curved=0;rounded=0;" edge="1" source="g7maT8xQ4kBCYiyjRN7e-1" parent="1" target="Xja5eGKT_MnVNnrP7Ny--1">
          <mxGeometry x="0.5129" relative="1" as="geometry">
            <mxPoint x="615" y="385" as="targetPoint" />
            <Array as="points">
              <mxPoint x="620" y="270" />
              <mxPoint x="470" y="340" />
              <mxPoint x="480" y="380" />
            </Array>
            <mxPoint as="offset" />
          </mxGeometry>
        </mxCell>
        <mxCell id="icGnLdnyoWnE_ITVM1_C-1" value="Paragraph" style="shape=umlLifeline;perimeter=lifelinePerimeter;whiteSpace=wrap;html=1;container=1;dropTarget=0;collapsible=0;recursiveResize=0;outlineConnect=0;portConstraint=eastwest;newEdgeStyle={&quot;edgeStyle&quot;:&quot;elbowEdgeStyle&quot;,&quot;elbow&quot;:&quot;vertical&quot;,&quot;curved&quot;:0,&quot;rounded&quot;:0};" vertex="1" parent="1">
          <mxGeometry x="360" y="80" width="100" height="1200" as="geometry" />
        </mxCell>
        <mxCell id="Xja5eGKT_MnVNnrP7Ny--1" value="" style="html=1;points=[];perimeter=orthogonalPerimeter;outlineConnect=0;targetShapes=umlLifeline;portConstraint=eastwest;newEdgeStyle={&quot;edgeStyle&quot;:&quot;elbowEdgeStyle&quot;,&quot;elbow&quot;:&quot;vertical&quot;,&quot;curved&quot;:0,&quot;rounded&quot;:0};" vertex="1" parent="icGnLdnyoWnE_ITVM1_C-1">
          <mxGeometry x="45" y="130" width="10" height="690" as="geometry" />
        </mxCell>
        <mxCell id="icGnLdnyoWnE_ITVM1_C-3" value="" style="html=1;points=[];perimeter=orthogonalPerimeter;outlineConnect=0;targetShapes=umlLifeline;portConstraint=eastwest;newEdgeStyle={&quot;edgeStyle&quot;:&quot;elbowEdgeStyle&quot;,&quot;elbow&quot;:&quot;vertical&quot;,&quot;curved&quot;:0,&quot;rounded&quot;:0};" vertex="1" parent="1">
          <mxGeometry x="544" y="390" width="10" height="140" as="geometry" />
        </mxCell>
        <mxCell id="icGnLdnyoWnE_ITVM1_C-4" value="ArtificialTranslate()" style="html=1;verticalAlign=bottom;endArrow=block;edgeStyle=elbowEdgeStyle;elbow=vertical;curved=0;rounded=0;" edge="1" target="icGnLdnyoWnE_ITVM1_C-3" parent="1" source="Xja5eGKT_MnVNnrP7Ny--1">
          <mxGeometry relative="1" as="geometry">
            <mxPoint x="474" y="390" as="sourcePoint" />
            <Array as="points">
              <mxPoint x="460" y="390" />
            </Array>
          </mxGeometry>
        </mxCell>
        <mxCell id="icGnLdnyoWnE_ITVM1_C-5" value="String" style="html=1;verticalAlign=bottom;endArrow=open;dashed=1;endSize=8;edgeStyle=elbowEdgeStyle;elbow=vertical;curved=0;rounded=0;" edge="1" source="icGnLdnyoWnE_ITVM1_C-3" parent="1" target="Xja5eGKT_MnVNnrP7Ny--1">
          <mxGeometry relative="1" as="geometry">
            <mxPoint x="474" y="465" as="targetPoint" />
            <Array as="points">
              <mxPoint x="510" y="530" />
              <mxPoint x="500" y="430" />
            </Array>
          </mxGeometry>
        </mxCell>
        <mxCell id="icGnLdnyoWnE_ITVM1_C-7" value="" style="group" vertex="1" connectable="0" parent="1">
          <mxGeometry x="50" y="360" width="990" height="190" as="geometry" />
        </mxCell>
        <mxCell id="NWJt09w-qPMZ66O3oy01-1" value="Alt" style="shape=umlFrame;whiteSpace=wrap;html=1;pointerEvents=0;" vertex="1" parent="icGnLdnyoWnE_ITVM1_C-7">
          <mxGeometry width="990.0000000000001" height="190" as="geometry" />
        </mxCell>
        <mxCell id="icGnLdnyoWnE_ITVM1_C-2" value="AT" style="text;html=1;align=center;verticalAlign=middle;resizable=0;points=[];autosize=1;strokeColor=none;fillColor=none;" vertex="1" parent="icGnLdnyoWnE_ITVM1_C-7">
          <mxGeometry y="30.003333333333337" width="40" height="30" as="geometry" />
        </mxCell>
        <mxCell id="nYcIGE15Bbj6HplEodYy-1" value="" style="html=1;points=[];perimeter=orthogonalPerimeter;outlineConnect=0;targetShapes=umlLifeline;portConstraint=eastwest;newEdgeStyle={&quot;edgeStyle&quot;:&quot;elbowEdgeStyle&quot;,&quot;elbow&quot;:&quot;vertical&quot;,&quot;curved&quot;:0,&quot;rounded&quot;:0};" vertex="1" parent="icGnLdnyoWnE_ITVM1_C-7">
          <mxGeometry x="914" y="70" width="10" height="60" as="geometry" />
        </mxCell>
        <mxCell id="8jaxC_zmvGDIkm626uZ_-1" value="" style="html=1;points=[];perimeter=orthogonalPerimeter;outlineConnect=0;targetShapes=umlLifeline;portConstraint=eastwest;newEdgeStyle={&quot;edgeStyle&quot;:&quot;elbowEdgeStyle&quot;,&quot;elbow&quot;:&quot;vertical&quot;,&quot;curved&quot;:0,&quot;rounded&quot;:0};" vertex="1" parent="1">
          <mxGeometry x="544" y="593" width="10" height="40" as="geometry" />
        </mxCell>
        <mxCell id="8jaxC_zmvGDIkm626uZ_-2" value="ComputerAssisted&lt;br&gt;Translate()" style="html=1;verticalAlign=bottom;endArrow=block;edgeStyle=elbowEdgeStyle;elbow=vertical;curved=0;rounded=0;" edge="1" target="8jaxC_zmvGDIkm626uZ_-1" parent="1">
          <mxGeometry relative="1" as="geometry">
            <mxPoint x="415" y="593" as="sourcePoint" />
            <Array as="points">
              <mxPoint x="510" y="593" />
              <mxPoint x="460" y="583" />
            </Array>
          </mxGeometry>
        </mxCell>
        <mxCell id="8jaxC_zmvGDIkm626uZ_-3" value="String" style="html=1;verticalAlign=bottom;endArrow=open;dashed=1;endSize=8;edgeStyle=elbowEdgeStyle;elbow=vertical;curved=0;rounded=0;" edge="1" source="8jaxC_zmvGDIkm626uZ_-1" parent="1">
          <mxGeometry relative="1" as="geometry">
            <mxPoint x="415" y="633" as="targetPoint" />
            <Array as="points">
              <mxPoint x="510" y="633" />
              <mxPoint x="500" y="623" />
            </Array>
          </mxGeometry>
        </mxCell>
        <mxCell id="8jaxC_zmvGDIkm626uZ_-6" value="" style="group" vertex="1" connectable="0" parent="1">
          <mxGeometry x="45" y="562" width="995" height="90" as="geometry" />
        </mxCell>
        <mxCell id="icGnLdnyoWnE_ITVM1_C-6" value="Alt" style="shape=umlFrame;whiteSpace=wrap;html=1;pointerEvents=0;" vertex="1" parent="8jaxC_zmvGDIkm626uZ_-6">
          <mxGeometry x="5.751445086705202" width="989.2485549132948" height="90" as="geometry" />
        </mxCell>
        <mxCell id="icGnLdnyoWnE_ITVM1_C-8" value="CAT" style="text;html=1;align=center;verticalAlign=middle;resizable=0;points=[];autosize=1;strokeColor=none;fillColor=none;" vertex="1" parent="8jaxC_zmvGDIkm626uZ_-6">
          <mxGeometry y="30" width="50" height="30" as="geometry" />
        </mxCell>
        <mxCell id="8jaxC_zmvGDIkm626uZ_-7" value="" style="group" vertex="1" connectable="0" parent="1">
          <mxGeometry x="50" y="663" width="990" height="90" as="geometry" />
        </mxCell>
        <mxCell id="8jaxC_zmvGDIkm626uZ_-4" value="Alt" style="shape=umlFrame;whiteSpace=wrap;html=1;pointerEvents=0;" vertex="1" parent="8jaxC_zmvGDIkm626uZ_-7">
          <mxGeometry width="990" height="90" as="geometry" />
        </mxCell>
        <mxCell id="8jaxC_zmvGDIkm626uZ_-5" value="MT" style="text;html=1;align=center;verticalAlign=middle;resizable=0;points=[];autosize=1;strokeColor=none;fillColor=none;" vertex="1" parent="8jaxC_zmvGDIkm626uZ_-7">
          <mxGeometry x="5.7558139534883725" y="24.545454545454547" width="40" height="30" as="geometry" />
        </mxCell>
        <mxCell id="8jaxC_zmvGDIkm626uZ_-9" value="MachineTranslate()" style="html=1;verticalAlign=bottom;endArrow=block;edgeStyle=elbowEdgeStyle;elbow=vertical;curved=0;rounded=0;" edge="1" target="8jaxC_zmvGDIkm626uZ_-8" parent="1">
          <mxGeometry relative="1" as="geometry">
            <mxPoint x="415" y="693" as="sourcePoint" />
            <Array as="points">
              <mxPoint x="450" y="693" />
            </Array>
          </mxGeometry>
        </mxCell>
        <mxCell id="8jaxC_zmvGDIkm626uZ_-10" value="String" style="html=1;verticalAlign=bottom;endArrow=open;dashed=1;endSize=8;edgeStyle=elbowEdgeStyle;elbow=vertical;curved=0;rounded=0;" edge="1" source="8jaxC_zmvGDIkm626uZ_-8" parent="1">
          <mxGeometry relative="1" as="geometry">
            <mxPoint x="415" y="733" as="targetPoint" />
            <Array as="points">
              <mxPoint x="480" y="733" />
            </Array>
          </mxGeometry>
        </mxCell>
        <mxCell id="8jaxC_zmvGDIkm626uZ_-8" value="" style="html=1;points=[];perimeter=orthogonalPerimeter;outlineConnect=0;targetShapes=umlLifeline;portConstraint=eastwest;newEdgeStyle={&quot;edgeStyle&quot;:&quot;elbowEdgeStyle&quot;,&quot;elbow&quot;:&quot;vertical&quot;,&quot;curved&quot;:0,&quot;rounded&quot;:0};" vertex="1" parent="1">
          <mxGeometry x="544" y="693" width="10" height="40" as="geometry" />
        </mxCell>
        <mxCell id="OxZGfkn5XGeti3o3H2DM-2" value="SpellCheck()" style="html=1;verticalAlign=bottom;endArrow=block;edgeStyle=elbowEdgeStyle;elbow=vertical;curved=0;rounded=0;" edge="1" target="OxZGfkn5XGeti3o3H2DM-1" parent="1">
          <mxGeometry x="-0.7632" relative="1" as="geometry">
            <mxPoint x="415" y="802" as="sourcePoint" />
            <Array as="points">
              <mxPoint x="460" y="802" />
            </Array>
            <mxPoint as="offset" />
          </mxGeometry>
        </mxCell>
        <mxCell id="nYcIGE15Bbj6HplEodYy-2" value="Association()" style="html=1;verticalAlign=bottom;endArrow=block;edgeStyle=elbowEdgeStyle;elbow=vertical;curved=0;rounded=0;" edge="1" target="nYcIGE15Bbj6HplEodYy-1" parent="1" source="icGnLdnyoWnE_ITVM1_C-3">
          <mxGeometry relative="1" as="geometry">
            <mxPoint x="894" y="430" as="sourcePoint" />
            <Array as="points">
              <mxPoint x="620" y="430" />
            </Array>
          </mxGeometry>
        </mxCell>
        <mxCell id="nYcIGE15Bbj6HplEodYy-3" value="String[]" style="html=1;verticalAlign=bottom;endArrow=open;dashed=1;endSize=8;edgeStyle=elbowEdgeStyle;elbow=vertical;curved=0;rounded=0;" edge="1" source="nYcIGE15Bbj6HplEodYy-1" parent="1" target="icGnLdnyoWnE_ITVM1_C-3">
          <mxGeometry relative="1" as="geometry">
            <mxPoint x="894" y="505" as="targetPoint" />
            <Array as="points">
              <mxPoint x="900" y="490" />
            </Array>
          </mxGeometry>
        </mxCell>
        <mxCell id="nYcIGE15Bbj6HplEodYy-4" value="String[]" style="html=1;verticalAlign=bottom;endArrow=open;dashed=1;endSize=8;edgeStyle=elbowEdgeStyle;elbow=vertical;curved=0;rounded=0;" edge="1" parent="1" target="Xja5eGKT_MnVNnrP7Ny--1">
          <mxGeometry x="0.7615" relative="1" as="geometry">
            <mxPoint x="960" y="850" as="sourcePoint" />
            <mxPoint x="760" y="860" as="targetPoint" />
            <mxPoint as="offset" />
          </mxGeometry>
        </mxCell>
        <mxCell id="C2BEPNR57cS4R7hGWVHX-1" value="return" style="html=1;verticalAlign=bottom;endArrow=open;dashed=1;endSize=8;edgeStyle=elbowEdgeStyle;elbow=vertical;curved=0;rounded=0;" edge="1" parent="1" source="Xja5eGKT_MnVNnrP7Ny--1" target="QLkS0Xqpc89n-KZRpVx0-1">
          <mxGeometry relative="1" as="geometry">
            <mxPoint x="400" y="900" as="sourcePoint" />
            <mxPoint x="320" y="900" as="targetPoint" />
            <Array as="points">
              <mxPoint x="340" y="900" />
            </Array>
          </mxGeometry>
        </mxCell>
        <mxCell id="ZHqj_R1u3usJHergDjlY-2" value="AddItem()" style="html=1;verticalAlign=bottom;endArrow=block;edgeStyle=elbowEdgeStyle;elbow=vertical;curved=0;rounded=0;" edge="1" target="ZHqj_R1u3usJHergDjlY-1" parent="1">
          <mxGeometry x="-0.7632" relative="1" as="geometry">
            <mxPoint x="135" y="981" as="sourcePoint" />
            <Array as="points">
              <mxPoint x="320" y="981" />
            </Array>
            <mxPoint as="offset" />
          </mxGeometry>
        </mxCell>
        <mxCell id="ZHqj_R1u3usJHergDjlY-3" value="return" style="html=1;verticalAlign=bottom;endArrow=open;dashed=1;endSize=8;edgeStyle=elbowEdgeStyle;elbow=vertical;curved=0;rounded=0;" edge="1" source="ZHqj_R1u3usJHergDjlY-1" parent="1">
          <mxGeometry x="0.7632" relative="1" as="geometry">
            <mxPoint x="135" y="1021" as="targetPoint" />
            <Array as="points">
              <mxPoint x="490" y="1021" />
            </Array>
            <mxPoint as="offset" />
          </mxGeometry>
        </mxCell>
        <mxCell id="ALqYDVzC9wXG7JdheRCT-1" value="return" style="html=1;verticalAlign=bottom;endArrow=open;dashed=1;endSize=8;edgeStyle=elbowEdgeStyle;elbow=vertical;curved=0;rounded=0;" edge="1" parent="1" source="QLkS0Xqpc89n-KZRpVx0-1" target="LnknCYnBBujgNZKn9NqM-1">
          <mxGeometry relative="1" as="geometry">
            <mxPoint x="240" y="970" as="sourcePoint" />
            <mxPoint x="160" y="970" as="targetPoint" />
            <Array as="points">
              <mxPoint x="220" y="940" />
            </Array>
          </mxGeometry>
        </mxCell>
        <mxCell id="tF_9ionTqYpQhl3TLhOA-3" value="loop" style="shape=umlFrame;whiteSpace=wrap;html=1;pointerEvents=0;" vertex="1" parent="1">
          <mxGeometry x="20" y="190" width="1100" height="930" as="geometry" />
        </mxCell>
        <mxCell id="tF_9ionTqYpQhl3TLhOA-4" value="Haven&#39;t&lt;br&gt;Finish" style="text;html=1;align=center;verticalAlign=middle;resizable=0;points=[];autosize=1;strokeColor=none;fillColor=none;" vertex="1" parent="1">
          <mxGeometry x="20" y="220" width="60" height="40" as="geometry" />
        </mxCell>
      </root>
    </mxGraphModel>
  </diagram>
  <diagram id="KVYk0DboL9Y41tPCexWl" name="顺序图-导出翻译文件">
    <mxGraphModel dx="1050" dy="629" grid="1" gridSize="10" guides="1" tooltips="1" connect="1" arrows="1" fold="1" page="1" pageScale="1" pageWidth="827" pageHeight="1169" math="0" shadow="0">
      <root>
        <mxCell id="0" />
        <mxCell id="1" parent="0" />
        <mxCell id="vQ-TkLqFuLc5xBhNHxJK-1" value="ProjectManager" style="shape=umlLifeline;perimeter=lifelinePerimeter;whiteSpace=wrap;html=1;container=1;dropTarget=0;collapsible=0;recursiveResize=0;outlineConnect=0;portConstraint=eastwest;newEdgeStyle={&quot;edgeStyle&quot;:&quot;elbowEdgeStyle&quot;,&quot;elbow&quot;:&quot;vertical&quot;,&quot;curved&quot;:0,&quot;rounded&quot;:0};" vertex="1" parent="1">
          <mxGeometry x="80" y="120" width="100" height="240" as="geometry" />
        </mxCell>
        <mxCell id="dO7BPfIN0M_LaYq4D5ad-1" value="" style="html=1;points=[];perimeter=orthogonalPerimeter;outlineConnect=0;targetShapes=umlLifeline;portConstraint=eastwest;newEdgeStyle={&quot;edgeStyle&quot;:&quot;elbowEdgeStyle&quot;,&quot;elbow&quot;:&quot;vertical&quot;,&quot;curved&quot;:0,&quot;rounded&quot;:0};" vertex="1" parent="vQ-TkLqFuLc5xBhNHxJK-1">
          <mxGeometry x="45" y="60" width="10" height="160" as="geometry" />
        </mxCell>
        <mxCell id="KYAHn_cSgKG6whsV_NPd-1" value="TranslationFile" style="shape=umlLifeline;perimeter=lifelinePerimeter;whiteSpace=wrap;html=1;container=1;dropTarget=0;collapsible=0;recursiveResize=0;outlineConnect=0;portConstraint=eastwest;newEdgeStyle={&quot;edgeStyle&quot;:&quot;elbowEdgeStyle&quot;,&quot;elbow&quot;:&quot;vertical&quot;,&quot;curved&quot;:0,&quot;rounded&quot;:0};" vertex="1" parent="1">
          <mxGeometry x="360" y="120" width="100" height="240" as="geometry" />
        </mxCell>
        <mxCell id="ah1ugPLMpwbXmZ2ufPVo-1" value="" style="html=1;points=[];perimeter=orthogonalPerimeter;outlineConnect=0;targetShapes=umlLifeline;portConstraint=eastwest;newEdgeStyle={&quot;edgeStyle&quot;:&quot;elbowEdgeStyle&quot;,&quot;elbow&quot;:&quot;vertical&quot;,&quot;curved&quot;:0,&quot;rounded&quot;:0};" vertex="1" parent="KYAHn_cSgKG6whsV_NPd-1">
          <mxGeometry x="44" y="120" width="10" height="40" as="geometry" />
        </mxCell>
        <mxCell id="KYAHn_cSgKG6whsV_NPd-2" value="TranslationFile&lt;br&gt;Manager" style="shape=umlLifeline;perimeter=lifelinePerimeter;whiteSpace=wrap;html=1;container=1;dropTarget=0;collapsible=0;recursiveResize=0;outlineConnect=0;portConstraint=eastwest;newEdgeStyle={&quot;edgeStyle&quot;:&quot;elbowEdgeStyle&quot;,&quot;elbow&quot;:&quot;vertical&quot;,&quot;curved&quot;:0,&quot;rounded&quot;:0};" vertex="1" parent="1">
          <mxGeometry x="220" y="120" width="100" height="240" as="geometry" />
        </mxCell>
        <mxCell id="dO7BPfIN0M_LaYq4D5ad-5" value="" style="html=1;points=[];perimeter=orthogonalPerimeter;outlineConnect=0;targetShapes=umlLifeline;portConstraint=eastwest;newEdgeStyle={&quot;edgeStyle&quot;:&quot;elbowEdgeStyle&quot;,&quot;elbow&quot;:&quot;vertical&quot;,&quot;curved&quot;:0,&quot;rounded&quot;:0};" vertex="1" parent="KYAHn_cSgKG6whsV_NPd-2">
          <mxGeometry x="45" y="90" width="10" height="100" as="geometry" />
        </mxCell>
        <mxCell id="dO7BPfIN0M_LaYq4D5ad-6" value="DeriveFile()" style="html=1;verticalAlign=bottom;endArrow=block;edgeStyle=elbowEdgeStyle;elbow=vertical;curved=0;rounded=0;" edge="1" target="dO7BPfIN0M_LaYq4D5ad-5" parent="1" source="dO7BPfIN0M_LaYq4D5ad-1">
          <mxGeometry relative="1" as="geometry">
            <mxPoint x="195" y="210" as="sourcePoint" />
            <Array as="points">
              <mxPoint x="160" y="210" />
            </Array>
          </mxGeometry>
        </mxCell>
        <mxCell id="ah1ugPLMpwbXmZ2ufPVo-2" value="MergeParagraph()" style="html=1;verticalAlign=bottom;endArrow=block;edgeStyle=elbowEdgeStyle;elbow=vertical;curved=0;rounded=0;" edge="1" target="ah1ugPLMpwbXmZ2ufPVo-1" parent="1" source="dO7BPfIN0M_LaYq4D5ad-5">
          <mxGeometry relative="1" as="geometry">
            <mxPoint x="334" y="240" as="sourcePoint" />
            <Array as="points">
              <mxPoint x="300" y="240" />
            </Array>
          </mxGeometry>
        </mxCell>
        <mxCell id="ah1ugPLMpwbXmZ2ufPVo-3" value="String" style="html=1;verticalAlign=bottom;endArrow=open;dashed=1;endSize=8;edgeStyle=elbowEdgeStyle;elbow=vertical;curved=0;rounded=0;" edge="1" source="ah1ugPLMpwbXmZ2ufPVo-1" parent="1" target="dO7BPfIN0M_LaYq4D5ad-5">
          <mxGeometry relative="1" as="geometry">
            <mxPoint x="334" y="315" as="targetPoint" />
            <Array as="points">
              <mxPoint x="340" y="280" />
            </Array>
          </mxGeometry>
        </mxCell>
        <mxCell id="dO7BPfIN0M_LaYq4D5ad-7" value="return" style="html=1;verticalAlign=bottom;endArrow=open;dashed=1;endSize=8;edgeStyle=elbowEdgeStyle;elbow=vertical;curved=0;rounded=0;" edge="1" source="dO7BPfIN0M_LaYq4D5ad-5" parent="1" target="dO7BPfIN0M_LaYq4D5ad-1">
          <mxGeometry relative="1" as="geometry">
            <mxPoint x="195" y="285" as="targetPoint" />
            <Array as="points">
              <mxPoint x="220" y="310" />
            </Array>
          </mxGeometry>
        </mxCell>
      </root>
    </mxGraphModel>
  </diagram>
</mxfile>
